<?xml version="1.0" encoding="UTF-8" standalone="no" ?>
<!DOCTYPE svg PUBLIC "-//W3C//DTD SVG 1.1//EN" "http://www.w3.org/Graphics/SVG/1.1/DTD/svg11.dtd">
<svg xmlns="http://www.w3.org/2000/svg" xmlns:xlink="http://www.w3.org/1999/xlink" version="1.1" width="1080" height="1080" viewBox="0 0 1080 1080" xml:space="preserve">
<desc>Created with Fabric.js 5.2.4</desc>
<defs>
</defs>
<rect x="0" y="0" width="100%" height="100%" fill="transparent"></rect>
<g transform="matrix(1 0 0 1 540 540)" id="12ee163b-d96c-44bc-bf94-38a84b5d44d1"  >
</g>
<g transform="matrix(1 0 0 1 540 540)" id="e100c13b-b9be-4ec3-9620-39f22e5c834d"  >
<rect style="stroke: none; stroke-width: 1; stroke-dasharray: none; stroke-linecap: butt; stroke-dashoffset: 0; stroke-linejoin: miter; stroke-miterlimit: 4; fill: rgb(255,255,255); fill-rule: nonzero; opacity: 1; visibility: hidden;" vector-effect="non-scaling-stroke"  x="-540" y="-540" rx="0" ry="0" width="1080" height="1080" />
</g>
<g transform="matrix(1 0 0 1 50 36.45)"  >
<rect style="stroke: none; stroke-width: 1; stroke-dasharray: none; stroke-linecap: butt; stroke-dashoffset: 0; stroke-linejoin: miter; stroke-miterlimit: 4; fill: rgb(255,255,255); fill-opacity: 0; fill-rule: nonzero; opacity: 1;" vector-effect="non-scaling-stroke"  x="-50" y="-50" rx="0" ry="0" width="100" height="100" />
</g>
<g transform="matrix(1 0 0 1 540 526.45)"  >
<rect style="stroke: none; stroke-width: 1; stroke-dasharray: none; stroke-linecap: butt; stroke-dashoffset: 0; stroke-linejoin: miter; stroke-miterlimit: 4; fill: rgb(255,255,255); fill-rule: nonzero; opacity: 1; visibility: hidden;" vector-effect="non-scaling-stroke"  x="-540" y="-540" rx="0" ry="0" width="1080" height="1080" />
</g>
<g transform="matrix(1 0 0 1 50 36.45)"  >
<rect style="stroke: none; stroke-width: 1; stroke-dasharray: none; stroke-linecap: butt; stroke-dashoffset: 0; stroke-linejoin: miter; stroke-miterlimit: 4; fill: rgb(255,255,255); fill-opacity: 0; fill-rule: nonzero; opacity: 1;" vector-effect="non-scaling-stroke"  x="-50" y="-50" rx="0" ry="0" width="100" height="100" />
</g>
<g transform="matrix(1 0 0 1 540 526.45)"  >
<rect style="stroke: none; stroke-width: 1; stroke-dasharray: none; stroke-linecap: butt; stroke-dashoffset: 0; stroke-linejoin: miter; stroke-miterlimit: 4; fill: rgb(255,255,255); fill-rule: nonzero; opacity: 1; visibility: hidden;" vector-effect="non-scaling-stroke"  x="-540" y="-540" rx="0" ry="0" width="1080" height="1080" />
</g>
<g transform="matrix(1 0 0 1 50 63.53)"  >
<rect style="stroke: none; stroke-width: 1; stroke-dasharray: none; stroke-linecap: butt; stroke-dashoffset: 0; stroke-linejoin: miter; stroke-miterlimit: 4; fill: rgb(255,255,255); fill-opacity: 0; fill-rule: nonzero; opacity: 1;" vector-effect="non-scaling-stroke"  x="-50" y="-50" rx="0" ry="0" width="100" height="100" />
</g>
<g transform="matrix(1 0 0 1 540 553.53)"  >
<rect style="stroke: none; stroke-width: 1; stroke-dasharray: none; stroke-linecap: butt; stroke-dashoffset: 0; stroke-linejoin: miter; stroke-miterlimit: 4; fill: rgb(255,255,255); fill-rule: nonzero; opacity: 1; visibility: hidden;" vector-effect="non-scaling-stroke"  x="-540" y="-540" rx="0" ry="0" width="1080" height="1080" />
</g>
<g transform="matrix(1.59 0 0 1.59 152.66 574.93)"  >
<path style="stroke: none; stroke-width: 1; stroke-dasharray: none; stroke-linecap: butt; stroke-dashoffset: 0; stroke-linejoin: miter; stroke-miterlimit: 4; fill: rgb(3,115,189); fill-rule: nonzero; opacity: 1;" vector-effect="non-scaling-stroke"  transform=" translate(-19.72, -52.34)" d="M 0 0 C 0.96776367 0.54873779 1.93552734 1.09747559 2.93261719 1.6628418 C 5.80079565 3.29649148 8.65230192 4.95596107 11.5 6.625 C 12.24314453 7.0566748 12.98628906 7.48834961 13.75195312 7.93310547 C 17.13365112 9.8976879 20.50239776 11.88285427 23.86328125 13.8828125 C 29.52479103 17.2443731 35.2322413 20.52593058 40.9375 23.8125 C 42.57404541 24.7562146 42.57404541 24.7562146 44.24365234 25.71899414 C 49.4859194 28.74079592 54.73048558 31.75847395 59.97993469 34.76777649 C 62.37063962 36.13870691 64.76022614 37.51157971 67.14968872 38.88467407 C 68.84013542 39.85498779 70.53223382 40.82242218 72.22436523 41.78979492 C 73.25118408 42.37994385 74.27800293 42.97009277 75.3359375 43.578125 C 76.23876465 44.09536133 77.1415918 44.61259766 78.07177734 45.14550781 C 78.87309082 45.63374023 79.6744043 46.12197266 80.5 46.625 C 81.26650879 47.0797168 82.03301758 47.53443359 82.82275391 48.00292969 C 84.5 49.625 84.5 49.625 84.94970703 52.13452148 C 84.5 54.625 84.5 54.625 83.20263672 56.16430664 C 77.4582771 60.12417584 71.50356177 63.64487667 65.418396 67.05691528 C 63.57443221 68.09085414 61.73429579 69.13133142 59.89501953 70.17358398 C 57.98124596 71.25800039 56.06728384 72.34206309 54.15219116 73.42414856 C 47.87103331 76.97373963 41.62093788 80.57633567 35.375 84.1875 C 34.32401123 84.79368164 33.27302246 85.39986328 32.19018555 86.02441406 C 27.18702338 88.9108979 22.18799817 91.80416465 17.19885254 94.71479797 C 15.42459192 95.74939485 13.64923954 96.78209236 11.87353516 97.81420898 C 9.65094477 99.10679832 7.43042017 100.40294915 5.21240234 101.70336914 C 2.32643062 103.37936947 -0.57742761 105.01383156 -3.5 106.625 C -4.27714355 107.06924316 -5.05428711 107.51348633 -5.85498047 107.97119141 C -15.46286785 112.9507723 -25.35238615 109.41700106 -35.1875 106.5625 C -36.18716797 106.28083984 -37.18683594 105.99917969 -38.21679688 105.70898438 C -40.64711993 105.02291232 -43.07458855 104.32819922 -45.5 103.625 C -44.24327861 99.85483584 -43.20437669 99.61788597 -39.77734375 97.76171875 C -38.77662842 97.21209473 -37.77591309 96.6624707 -36.74487305 96.09619141 C -35.65343994 95.50757324 -34.56200684 94.91895508 -33.4375 94.3125 C -31.12915499 93.04483071 -28.82183508 91.77544067 -26.515625 90.50390625 C -25.92641769 90.18017029 -25.33721039 89.85643433 -24.73014832 89.52288818 C -18.99105834 86.36318164 -13.33428717 83.07099404 -7.6875 79.75 C 2.66157627 73.67535313 13.0691078 67.70830535 23.5012207 61.77783203 C 24.63132568 61.13442871 25.76143066 60.49102539 26.92578125 59.828125 C 27.93036377 59.25739258 28.93494629 58.68666016 29.9699707 58.09863281 C 31.8509888 57.003021 33.68876691 55.83248873 35.5 54.625 C 35.41431124 52.23507012 35.41431124 52.23507012 34.5 49.625 C 32.16676276 47.68364292 32.16676276 47.68364292 29.12109375 46.12890625 C 27.98462402 45.49525146 26.8481543 44.86159668 25.67724609 44.20874023 C 24.43070673 43.53491455 23.18412358 42.86116987 21.9375 42.1875 C 20.65601094 41.47854368 19.37558493 40.76766266 18.09619141 40.05493164 C 15.48544681 38.6014002 12.87113718 37.1546158 10.25439453 35.71191406 C 4.90818188 32.75314717 -0.35898759 29.66114896 -5.625 26.5625 C -11.96230772 22.84306751 -18.3138859 19.15279861 -24.703125 15.5234375 C -26.50683067 14.49552035 -28.31028803 13.46716864 -30.1137085 12.43875122 C -31.84007111 11.45735622 -33.57063265 10.48335927 -35.30126953 9.50952148 C -36.34395996 8.91469971 -37.38665039 8.31987793 -38.4609375 7.70703125 C -39.38696777 7.18343018 -40.31299805 6.6598291 -41.26708984 6.12036133 C -43.5 4.625 -43.5 4.625 -45.5 1.625 C -13.57501763 -7.97815199 -13.57501763 -7.97815199 0 0 Z" stroke-linecap="round" />
</g>
<g transform="matrix(2.17 0 0 2.37 372.11 575.1)"  >
<path style="stroke: none; stroke-width: 1; stroke-dasharray: none; stroke-linecap: butt; stroke-dashoffset: 0; stroke-linejoin: miter; stroke-miterlimit: 4; fill: rgb(241,91,36); fill-rule: nonzero; opacity: 1;" vector-effect="non-scaling-stroke"  transform=" translate(-34.74, -27.89)" d="M 0 0 C 8.559375 -0.061875 17.11875 -0.12375 25.9375 -0.1875 C 28.62253662 -0.21481201 31.30757324 -0.24212402 34.07397461 -0.27026367 C 36.22509309 -0.27903343 38.37621659 -0.28667621 40.52734375 -0.29296875 C 42.17482605 -0.3159906 42.17482605 -0.3159906 43.85559082 -0.33947754 C 51.72122697 -0.34213037 58.28526685 0.54985686 64.9375 4.9375 C 68.07977733 8.07977733 68.87242871 9.87312023 69.375 14.3125 C 68.73491177 20.60670092 65.68232052 24.81935668 61 29 C 61.5775 29.226875 62.155 29.45375 62.75 29.6875 C 65.78738074 31.45930543 67.18872454 32.95964477 69 36 C 69.9836372 40.80989566 69.58300445 44.73850129 66.875 48.875 C 63.14748205 53.42383546 58.67844813 55.06478192 53 56 C 51.19056554 56.08326173 49.37848262 56.11784841 47.56713867 56.11352539 C 45.95397766 56.11334412 45.95397766 56.11334412 44.30822754 56.11315918 C 42.63004944 56.10548523 42.63004944 56.10548523 40.91796875 56.09765625 C 39.88111938 56.09664917 38.84427002 56.09564209 37.77600098 56.09460449 C 33.91315602 56.08938348 30.05032687 56.07542221 26.1875 56.0625 C 17.545625 56.041875 8.90375 56.02125 0 56 C 0 37.52 0 19.04 0 0 Z" stroke-linecap="round" />
</g>
<g transform="matrix(1.59 0 0 1.59 49.94 575.53)"  >
<path style="stroke: none; stroke-width: 1; stroke-dasharray: none; stroke-linecap: butt; stroke-dashoffset: 0; stroke-linejoin: miter; stroke-miterlimit: 4; fill: rgb(241,92,36); fill-rule: nonzero; opacity: 1;" vector-effect="non-scaling-stroke"  transform=" translate(16.12, -27.03)" d="M 0 0 C 6.96406501 4.79298511 13.2449453 11.54382734 15 20 C 15.85848664 30.7004228 14.33402138 38.86505932 7.53125 47.28515625 C 2.14379643 53.31855451 -5.35690618 57.45011386 -13.4453125 58.23828125 C -23.37029427 58.51317142 -30.97658578 55.84658472 -38.24609375 48.98828125 C -44.71599179 41.65380886 -47.64186575 32.68825983 -47.44140625 22.97265625 C -46.15433802 14.30487818 -40.97341768 6.23371809 -34 1 C -23.12962023 -5.64867506 -11.38524609 -5.87402682 0 0 Z" stroke-linecap="round" />
</g>
<g transform="matrix(2.17 0 0 2.17 839.58 572.74)"  >
<path style="stroke: none; stroke-width: 1; stroke-dasharray: none; stroke-linecap: butt; stroke-dashoffset: 0; stroke-linejoin: miter; stroke-miterlimit: 4; fill: rgb(241,92,37); fill-rule: nonzero; opacity: 1;" vector-effect="non-scaling-stroke"  transform=" translate(-0.31, -28.46)" d="M 0 0 C 0.85142578 -0.07089844 1.70285156 -0.14179688 2.58007812 -0.21484375 C 6.12803397 -0.31911469 8.74042885 -0.36251888 11.43457031 2.11914062 C 13.08522153 4.53948396 14.43694056 7.03754179 15.8125 9.625 C 16.88630284 11.44740631 17.98210297 13.25565634 19.07749939 15.06515503 C 21.14162701 18.4855017 23.16076445 21.93241308 25.1875 25.375 C 26.81875524 28.14154689 28.45189361 30.90697446 30.0859375 33.671875 C 30.48085388 34.34158325 30.87577026 35.0112915 31.28265381 35.70129395 C 33.22062701 38.97799272 35.1811736 42.23687782 37.19628906 45.46679688 C 37.75746933 46.36679413 37.75746933 46.36679413 38.32998657 47.28497314 C 39.34909063 48.91190193 40.37476458 50.53471008 41.40087891 52.15722656 C 42.8125 54.625 42.8125 54.625 42.8125 56.625 C 35.8825 56.625 28.9525 56.625 21.8125 56.625 C 21.16023438 54.83449219 20.50796875 53.04398437 19.8359375 51.19921875 C 18.29330172 48.06997286 18.29330172 48.06997286 15.8125 45.625 C 10.35251587 44.06053682 5.07416345 44.26322694 -0.5625 44.4375 C -2.07680816 44.4444642 -3.59114776 44.44646718 -5.10546875 44.44335938 C -8.80158399 44.44653602 -12.49278048 44.51741454 -16.1875 44.625 C -16.48688477 45.54587402 -16.78626953 46.46674805 -17.09472656 47.41552734 C -18.39600222 51.23737045 -19.38430448 53.67380969 -22.1875 56.625 C -25.6296373 57.36391214 -28.93757852 57.19117218 -32.4375 57 C -33.84128906 56.95939453 -33.84128906 56.95939453 -35.2734375 56.91796875 C -37.5804724 56.84734523 -39.88280769 56.74880579 -42.1875 56.625 C -37.91223806 48.69985997 -33.50281225 40.86040884 -29 33.0625 C -28.35015137 31.93658447 -27.70030273 30.81066895 -27.03076172 29.65063477 C -10.07264443 0.37278477 -10.07264443 0.37278477 0 0 Z" stroke-linecap="round" />
</g>
<g transform="matrix(2.17 0 0 2.17 532.89 571.18)"  >
<path style="stroke: none; stroke-width: 1; stroke-dasharray: none; stroke-linecap: butt; stroke-dashoffset: 0; stroke-linejoin: miter; stroke-miterlimit: 4; fill: rgb(241,92,37); fill-rule: nonzero; opacity: 1;" vector-effect="non-scaling-stroke"  transform=" translate(-2.18, -29.93)" d="M 0 0 C 6.16859 0.03109052 10.49553196 1.27942728 15.06884766 5.48193359 C 17.40638357 8.73372067 19.04549786 12.29849554 20.73583984 15.91699219 C 23.45923526 21.40895782 26.69876955 26.62172021 29.83755493 31.88369751 C 31.68686144 34.99801248 33.50276359 38.13167933 35.32275391 41.26318359 C 37.53773319 45.06797677 39.79349518 48.8203821 42.18994141 52.51318359 C 44.17822266 55.82568359 44.17822266 55.82568359 44.17822266 58.82568359 C 26.20285808 60.46439144 26.20285808 60.46439144 21.51416016 56.66943359 C 19.63854387 53.45409139 18.17822266 50.59760704 18.17822266 46.82568359 C 13.72904105 46.69612917 9.28649293 46.63954786 4.8359375 46.64868164 C 3.32465003 46.64173133 1.81331601 46.61530733 0.30273438 46.56860352 C -4.61345629 46.42439094 -9.06976879 46.46407846 -13.82177734 47.82568359 C -17.13096946 51.36811972 -18.12565815 54.16973585 -19.82177734 58.82568359 C -26.42177734 58.82568359 -33.02177734 58.82568359 -39.82177734 58.82568359 C -36.47421916 51.87306276 -33.02785884 45.14445701 -28.88964844 38.62402344 C -26.40075074 34.64992791 -24.19676178 30.61791629 -22.13833618 26.40194702 C -9.91670617 1.49515685 -9.91670617 1.49515685 0 0 Z" stroke-linecap="round" />
</g>
<g transform="matrix(2.17 0 0 2.17 1000.47 572.03)"  >
<path style="stroke: none; stroke-width: 1; stroke-dasharray: none; stroke-linecap: butt; stroke-dashoffset: 0; stroke-linejoin: miter; stroke-miterlimit: 4; fill: rgb(241,94,40); fill-rule: nonzero; opacity: 1;" vector-effect="non-scaling-stroke"  transform=" translate(10.69, -28.61)" d="M 0 0 C 1.18613892 0.00785522 1.18613892 0.00785522 2.39624023 0.01586914 C 3.67724609 0.02070313 3.67724609 0.02070313 4.98413086 0.02563477 C 5.88196289 0.03401367 6.77979492 0.04239258 7.70483398 0.05102539 C 8.6065332 0.05553711 9.50823242 0.06004883 10.43725586 0.06469727 C 12.67234712 0.07652315 14.90730835 0.09300319 17.14233398 0.11352539 C 17.21687046 5.66362622 17.27111798 11.21343125 17.30712891 16.76391602 C 17.32215191 18.64938436 17.34257629 20.53481814 17.36865234 22.42016602 C 17.40532261 25.14095629 17.42212544 27.8612818 17.43530273 30.58227539 C 17.45078659 31.41593628 17.46627045 32.24959717 17.48222351 33.10852051 C 17.48419357 40.06590099 16.43179843 45.77202766 11.39233398 50.92602539 C 4.10946432 55.82795689 -2.43050332 57.26969145 -11.12329102 57.21118164 C -11.91668884 57.20976669 -12.71008667 57.20835175 -13.52752686 57.20689392 C -16.05427873 57.20130954 -18.58094105 57.18875993 -21.10766602 57.17602539 C -22.82381057 57.17100837 -24.53995651 57.16644582 -26.25610352 57.16235352 C -30.4566587 57.15134523 -34.65714719 57.13409135 -38.85766602 57.11352539 C -38.85766602 53.15352539 -38.85766602 49.19352539 -38.85766602 45.11352539 C -36.18157227 45.05745117 -36.18157227 45.05745117 -33.45141602 45.00024414 C -31.08681249 44.93456071 -28.72223008 44.8681142 -26.35766602 44.80102539 C -25.18461914 44.7784668 -24.01157227 44.7559082 -22.80297852 44.73266602 C -16.21495966 44.52910364 -10.77641876 44.13754833 -4.85766602 41.11352539 C -3.59372373 37.32169853 -3.6443057 33.71623473 -3.57641602 29.76196289 C -3.55800659 28.94732574 -3.53959717 28.1326886 -3.52062988 27.29336548 C -3.44191872 23.80646928 -3.37400825 20.31938316 -3.30541992 16.83227539 C -3.25383202 14.28790321 -3.19654694 11.74370417 -3.13891602 9.19946289 C -3.12534058 8.40470551 -3.11176514 7.60994812 -3.09777832 6.79110718 C -2.94658983 0.18007153 -2.94658983 0.18007153 0 0 Z" stroke-linecap="round" />
</g>
<g transform="matrix(2.17 0 0 2.17 695.01 572.1)"  >
<path style="stroke: none; stroke-width: 1; stroke-dasharray: none; stroke-linecap: butt; stroke-dashoffset: 0; stroke-linejoin: miter; stroke-miterlimit: 4; fill: rgb(241,95,41); fill-rule: nonzero; opacity: 1;" vector-effect="non-scaling-stroke"  transform=" translate(7.78, -28.55)" d="M 0 0 C 6.6 0 13.2 0 20 0 C 20.09235486 5.37197463 20.17182946 10.74114217 20.21972656 16.11328125 C 20.23971364 17.93661892 20.26691286 19.75989356 20.30175781 21.58300781 C 20.71963096 44.02525385 20.71963096 44.02525385 13.6875 51.4375 C 6.03655497 55.88572385 -0.4207009 57.15852087 -9.14453125 57.09765625 C -9.91431808 57.0962413 -10.68410492 57.09482635 -11.47721863 57.09336853 C -13.92235288 57.08779606 -16.36739368 57.07524871 -18.8125 57.0625 C -20.47591013 57.05748144 -22.1393217 57.05291915 -23.80273438 57.04882812 C -27.86852528 57.03783566 -31.93424683 57.0205901 -36 57 C -36 53.04 -36 49.08 -36 45 C -34.2159375 44.95101562 -32.431875 44.90203125 -30.59375 44.8515625 C -28.2291522 44.7764959 -25.86456959 44.70094977 -23.5 44.625 C -21.74042969 44.57859375 -21.74042969 44.57859375 -19.9453125 44.53125 C -13.66500472 44.31955423 -8.01939087 43.83263633 -2 42 C -0.8292551 37.7858024 -0.77324396 33.64492345 -0.68359375 29.296875 C -0.66281265 28.45908508 -0.64203156 27.62129517 -0.62062073 26.75811768 C -0.5553745 24.08882644 -0.49635642 21.41943902 -0.4375 18.75 C -0.39429106 16.93749016 -0.35067601 15.12498995 -0.30664062 13.3125 C -0.1989564 8.87509704 -0.09969793 4.43761832 0 0 Z" stroke-linecap="round" />
</g>
<g transform="matrix(2.17 0 0 2.17 368.25 597.18)"  >
<path style="stroke: none; stroke-width: 1; stroke-dasharray: none; stroke-linecap: butt; stroke-dashoffset: 0; stroke-linejoin: miter; stroke-miterlimit: 4; fill: rgb(254,245,241); fill-rule: nonzero; opacity: 1;" vector-effect="non-scaling-stroke"  transform=" translate(-15.5, -4.93)" d="M 0 0 C 4.41654255 -0.08706286 8.83286457 -0.14041378 13.25 -0.1875 C 14.50425781 -0.21263672 15.75851563 -0.23777344 17.05078125 -0.26367188 C 18.85869141 -0.27817383 18.85869141 -0.27817383 20.703125 -0.29296875 C 22.36843262 -0.31653442 22.36843262 -0.31653442 24.06738281 -0.34057617 C 27.29964043 0.0347984 28.63907032 0.82241911 31 3 C 30.6875 5.375 30.6875 5.375 30 8 C 26.45986775 10.36008817 24.98878045 10.23463644 20.80078125 10.1953125 C 19.59228516 10.18886719 18.38378906 10.18242187 17.13867188 10.17578125 C 15.2447168 10.15064453 15.2447168 10.15064453 13.3125 10.125 C 12.03826172 10.11597656 10.76402344 10.10695313 9.45117188 10.09765625 C 6.30059373 10.07405641 3.15039017 10.04113194 0 10 C 0 6.7 0 3.4 0 0 Z" stroke-linecap="round" />
</g>
<g transform="matrix(2.17 0 0 2.17 368.25 549.16)"  >
<path style="stroke: none; stroke-width: 1; stroke-dasharray: none; stroke-linecap: butt; stroke-dashoffset: 0; stroke-linejoin: miter; stroke-miterlimit: 4; fill: rgb(253,242,237); fill-rule: nonzero; opacity: 1;" vector-effect="non-scaling-stroke"  transform=" translate(-15.5, -4.93)" d="M 0 0 C 4.2290362 -0.08725659 8.45784012 -0.1404789 12.6875 -0.1875 C 13.88568359 -0.21263672 15.08386719 -0.23777344 16.31835938 -0.26367188 C 17.47529297 -0.27333984 18.63222656 -0.28300781 19.82421875 -0.29296875 C 20.88729248 -0.3086792 21.95036621 -0.32438965 23.0456543 -0.34057617 C 26.38703212 0.04461696 28.26958732 1.08628311 31 3 C 30.75 5.375 30.75 5.375 30 8 C 26.72446948 10.26332059 23.82273566 10.23355623 19.921875 10.1953125 C 18.18164062 10.18564453 18.18164062 10.18564453 16.40625 10.17578125 C 15.1996875 10.15902344 13.993125 10.14226562 12.75 10.125 C 10.91695312 10.11146484 10.91695312 10.11146484 9.046875 10.09765625 C 6.03105218 10.07409513 3.01562508 10.04119706 0 10 C 0 6.7 0 3.4 0 0 Z" stroke-linecap="round" />
</g>
<g transform="matrix(2.17 0 0 2.17 839.8 564.54)"  >
<path style="stroke: none; stroke-width: 1; stroke-dasharray: none; stroke-linecap: butt; stroke-dashoffset: 0; stroke-linejoin: miter; stroke-miterlimit: 4; fill: rgb(253,238,232); fill-rule: nonzero; opacity: 1;" vector-effect="non-scaling-stroke"  transform=" translate(-1.5, -8)" d="M 0 0 C 0.66 0 1.32 0 2 0 C 3.33858524 2.28874173 4.67101014 4.58069656 6 6.875 C 6.3815625 7.52597656 6.763125 8.17695313 7.15625 8.84765625 C 10 13.7734375 10 13.7734375 10 16 C 4.39 16 -1.22 16 -7 16 C -6.10613763 11.53068814 -5.12759489 9.05511438 -2.9375 5.1875 C -2.11572266 3.72376953 -2.11572266 3.72376953 -1.27734375 2.23046875 C -0.85582031 1.49441406 -0.43429687 0.75835937 0 0 Z" stroke-linecap="round" />
</g>
<g transform="matrix(2.17 0 0 2.17 532.05 564.54)"  >
<path style="stroke: none; stroke-width: 1; stroke-dasharray: none; stroke-linecap: butt; stroke-dashoffset: 0; stroke-linejoin: miter; stroke-miterlimit: 4; fill: rgb(253,238,233); fill-rule: nonzero; opacity: 1;" vector-effect="non-scaling-stroke"  transform=" translate(-0.5, -8)" d="M 0 0 C 2.82668244 2.65152477 4.88761087 5.16536427 6.75 8.5625 C 7.39195312 9.70912109 7.39195312 9.70912109 8.046875 10.87890625 C 9 13 9 13 9 16 C 3.39 16 -2.22 16 -8 16 C -6.46392719 12.15981797 -4.86686467 8.78151668 -2.875 5.1875 C -2.33617187 4.21167969 -1.79734375 3.23585938 -1.2421875 2.23046875 C -0.83226562 1.49441406 -0.42234375 0.75835937 0 0 Z" stroke-linecap="round" />
</g>
</svg>