<?xml version="1.0" encoding="utf-8"?>
<!-- Generator: Adobe Illustrator 25.0.1, SVG Export Plug-In . SVG Version: 6.00 Build 0)  -->
<svg version="1.0" id="Layer_1" xmlns="http://www.w3.org/2000/svg" xmlns:xlink="http://www.w3.org/1999/xlink" x="0px" y="0px"
	 viewBox="0 0 934 661" style="enable-background:new 0 0 934 661;" xml:space="preserve">
<style type="text/css">
	.st0{clip-path:url(#SVGID_2_);}
	.st1{fill:#F47216;}
</style>
<g>
	<defs>
		<rect id="SVGID_1_" x="97" y="205" width="740" height="251"/>
	</defs>
	<clipPath id="SVGID_2_">
		<use xlink:href="#SVGID_1_"  style="overflow:visible;"/>
	</clipPath>
	<g class="st0">
		<path class="st1" d="M549.1,428.5c3,0,2.5-1.3,8-1.3c5.1,0,9.3,5.9,9.3,9.7c0,6.8-10.2,16.5-27.1,16.5c-17.4,0-26.2-8.9-26.2-27.1
			v-66.9c0-8.9-5.9-12.7-14.4-12.7c-10.1,0-22,8-22,31.3v60.5c0,8.9-7.6,14.8-17.4,14.8c-9.3,0-16.5-5.9-16.5-14.8v-75.3
			c0-12.3-6.8-16.5-15.2-16.5c-10.2,0-22.9,8-22.9,31.3v60.5c0,8.9-8,14.8-17.8,14.8s-16.1-5.9-16.1-14.8V335
			c0-8.5,7.2-15.2,16.1-15.2c10.6,0,16.1,5.1,16.1,13.5c9.3-11.9,22.4-15.2,34.3-15.2c19.5,0,28.8,5.9,33.9,16.1
			c10.6-12.7,22-16.1,36.4-16.1c32.6,0,37.7,20.3,37.7,41.1v63.1C545.2,426.8,546.1,428.5,549.1,428.5"/>
		<path class="st1" d="M696.7,321.2h8.2l0.9-17.4c0.4-9.3,3.8-16.5,14.4-16.5s16.1,3,16.1,13.1v20.8h31.8c6.8,0,11.9,4.7,11.9,11
			c0,6.8-5.1,12.7-11.9,12.7h-31.8v63.6c0,11.5,2.5,18.7,14.8,18.7c5.5,0,10.2-2.1,15.7-6.8c3.4-3,6.4-3.8,9.3-3.8
			c5.5,0,11,3.4,11,9.3c-0.1,2.7-0.8,5.3-2.1,7.6c-9.3,15.7-27.6,19.5-42,19.5c-24.6,0-39-13.6-39-33.9v-73.8h-7.4
			c-8.9,0-11-6.4-11-12.3C685.6,327.6,688.2,321.3,696.7,321.2"/>
		<path class="st1" d="M164.5,456L164.5,456c-20.7,0-38-6.7-50-19.3C103,424.7,97,408,97,388.4c0-51.4,36.7-74.5,73-74.5
			c11.4,0,23,2.5,31.7,6.7c10,4.9,15.5,11.8,15.5,19.3c0,9.1-5.7,14.8-14.8,14.9c-3.6-0.1-7.1-1.1-10.1-3.1c-6-4-13.1-6-20.4-5.8h-1
			c-11.3,0.1-20.9,3.8-27.9,10.7c-7.7,7.6-11.7,18.8-11.5,32.5c0.3,23.6,13.2,37.2,35.4,37.2h0.7c12.6-0.2,19.7-4.1,26.5-9.9
			c3.8-3.6,10-7.4,15.8-7.4c0.8,0,1.6,0.1,2.4,0.3c5.8,1.3,9.1,5.5,9.1,12c0,7.2-4.7,13.1-7.5,15.9
			C203.4,448.9,184.4,456.1,164.5,456"/>
		<path class="st1" d="M594.9,375.1c6.4,0.4,16.1,0.8,24.6,0.8c18.7,0,30.1-4.2,30.1-17c0-11.9-13.2-14.8-21.2-14.8
			C612.3,344.1,596.6,354.7,594.9,375.1 M681.4,428.6c-7.6,16.1-31,25.5-53.5,25.5c-43.7,0-66.6-27.1-66.6-64.5
			c0-44.1,27.6-71.3,66.6-71.3c31.8,0,53.9,15.3,53.9,40.7c0,20.4-18.2,41.6-61.1,41.6c-8.1,0.1-16.2-0.3-24.2-1.3
			c3.8,20.8,16.1,28,34.8,28c11.9,0,19.1-3.4,26.3-9.3c4.2-3.8,8.1-5.9,13.6-5.9c6.8,0,11.5,5.1,11.5,10.2
			C682.5,424.4,682.1,426.5,681.4,428.6"/>
		<path class="st1" d="M258.9,384.9c0-25,15.7-37.8,34.4-37.8c18.7,0,34.4,8.9,34.4,40.3c0,25.5-15.7,37.8-34.4,37.8
			C274.6,425.2,258.9,416.3,258.9,384.9 M224.9,386.2c0,48.8,31.4,67.9,68.3,67.9c36.9,0,68.3-24.6,68.3-67.9
			c0-48.8-31.4-67.9-68.3-67.9S224.9,342.9,224.9,386.2"/>
		<path class="st1" d="M830,235l-22.5,0.2c-5.2,0.2-5.8-0.3-7.4-5.2l-6.5-17.6c-3.2-9.9-8.2-9.8-11.1,0.1l-6,17.8
			c-1.5,5-4,6.3-7.3,5.4c-62.3-18.2-127.1-25.5-182.9-25.5c-159.2,0-273.2,47.2-341.8,96c-2,1.3-2.9,2.5-2.9,4.7
			c0,1.3,1.2,2.5,3.3,2.5c1.3,0,2.6-0.2,3.7-0.9c49.8-35.2,174.8-82.5,325.8-82.4c57.4,0,121.9,9.9,186.7,30.8
			c4.6,1.4,5.3,3.8,4.9,5.2l-7.1,21.8c-1.8,6.6,4.3,8.4,7.8,5.3l18-13.3c4.1-3.2,4.2-3.2,8.4-0.1l18.6,13c4.8,3.3,9-0.1,7.2-5.5
			l-7.8-21.4c-1.8-4.9-1.4-6.4,2.9-9.4l20.1-13.9C838.7,239.4,838.3,234.8,830,235 M794.2,257.9l-0.2,14.2l-7.8-12l-13.6,4.4
			l8.9-11.1l-8.2-11.7l13.4,4.9l8.7-11.5l-0.9,14.3l13.6,4.7L794.2,257.9z"/>
	</g>
</g>
</svg>
