<?xml version="1.0" encoding="UTF-8" standalone="no" ?>
<!DOCTYPE svg PUBLIC "-//W3C//DTD SVG 1.1//EN" "http://www.w3.org/Graphics/SVG/1.1/DTD/svg11.dtd">
<svg xmlns="http://www.w3.org/2000/svg" xmlns:xlink="http://www.w3.org/1999/xlink" version="1.1" width="1080" height="1080" viewBox="0 0 1080 1080" xml:space="preserve">
<desc>Created with Fabric.js 5.2.4</desc>
<defs>
</defs>
<g transform="matrix(1 0 0 1 540 540)" id="a505a0c8-3f6f-4313-afb6-516bbe097f6f"  >
<rect style="stroke: none; stroke-width: 1; stroke-dasharray: none; stroke-linecap: butt; stroke-dashoffset: 0; stroke-linejoin: miter; stroke-miterlimit: 4; fill: rgb(255,255,255); fill-rule: nonzero; opacity: 1; visibility: hidden;" vector-effect="non-scaling-stroke"  x="-540" y="-540" rx="0" ry="0" width="1080" height="1080" />
</g>
<g transform="matrix(1 0 0 1 540 540)" id="d34f9ec9-caa0-4c65-be30-fe0ebc772659"  >
</g>
<g transform="matrix(1 0 0 1 540 515.38)"  >
<g style="" vector-effect="non-scaling-stroke"   >
		<g transform="matrix(1 0 0 1 1.58 55.24)" clip-path="url(#CLIPPATH_3)"  >
<clipPath id="CLIPPATH_3" >
	<rect transform="matrix(1 0 0 1 -1.6 -55.25)" id="SVGID_2_" x="-370" y="-125.5" rx="0" ry="0" width="740" height="251" />
</clipPath>
<path style="stroke: none; stroke-width: 1; stroke-dasharray: none; stroke-linecap: butt; stroke-dashoffset: 0; stroke-linejoin: miter; stroke-miterlimit: 4; fill: rgb(244,114,22); fill-rule: nonzero; opacity: 1;" vector-effect="non-scaling-stroke"  transform=" translate(-468.6, -385.75)" d="M 549.1 428.5 C 552.1 428.5 551.6 427.2 557.1 427.2 C 562.2 427.2 566.4 433.09999999999997 566.4 436.9 C 566.4 443.7 556.1999999999999 453.4 539.3 453.4 C 521.9 453.4 513.0999999999999 444.5 513.0999999999999 426.29999999999995 L 513.0999999999999 359.4 C 513.0999999999999 350.5 507.19999999999993 346.7 498.69999999999993 346.7 C 488.5999999999999 346.7 476.69999999999993 354.7 476.69999999999993 378 L 476.69999999999993 438.5 C 476.69999999999993 447.4 469.0999999999999 453.3 459.29999999999995 453.3 C 449.99999999999994 453.3 442.79999999999995 447.40000000000003 442.79999999999995 438.5 L 442.79999999999995 363.2 C 442.79999999999995 350.9 435.99999999999994 346.7 427.59999999999997 346.7 C 417.4 346.7 404.7 354.7 404.7 378 L 404.7 438.5 C 404.7 447.4 396.7 453.3 386.9 453.3 C 377.09999999999997 453.3 370.79999999999995 447.40000000000003 370.79999999999995 438.5 L 370.79999999999995 335 C 370.79999999999995 326.5 377.99999999999994 319.8 386.9 319.8 C 397.5 319.8 403 324.90000000000003 403 333.3 C 412.3 321.40000000000003 425.4 318.1 437.3 318.1 C 456.8 318.1 466.1 324 471.2 334.20000000000005 C 481.8 321.50000000000006 493.2 318.1 507.59999999999997 318.1 C 540.1999999999999 318.1 545.3 338.40000000000003 545.3 359.20000000000005 L 545.3 422.30000000000007 C 545.2 426.8 546.1 428.5 549.1 428.5" stroke-linecap="round" />
</g>
		<g transform="matrix(1 0 0 1 269.33 39.64)" clip-path="url(#CLIPPATH_4)"  >
<clipPath id="CLIPPATH_4" >
	<rect transform="matrix(1 0 0 1 -269.35 -39.65)" id="SVGID_2_" x="-370" y="-125.5" rx="0" ry="0" width="740" height="251" />
</clipPath>
<path style="stroke: none; stroke-width: 1; stroke-dasharray: none; stroke-linecap: butt; stroke-dashoffset: 0; stroke-linejoin: miter; stroke-miterlimit: 4; fill: rgb(244,114,22); fill-rule: nonzero; opacity: 1;" vector-effect="non-scaling-stroke"  transform=" translate(-736.35, -370.15)" d="M 696.7 321.2 L 704.9000000000001 321.2 L 705.8000000000001 303.8 C 706.2 294.5 709.6 287.3 720.2 287.3 C 730.8000000000001 287.3 736.3000000000001 290.3 736.3000000000001 300.40000000000003 L 736.3000000000001 321.20000000000005 L 768.1 321.20000000000005 C 774.9 321.20000000000005 780 325.90000000000003 780 332.20000000000005 C 780 339.00000000000006 774.9 344.90000000000003 768.1 344.90000000000003 L 736.3000000000001 344.90000000000003 L 736.3000000000001 408.50000000000006 C 736.3000000000001 420.00000000000006 738.8000000000001 427.20000000000005 751.1 427.20000000000005 C 756.6 427.20000000000005 761.3000000000001 425.1 766.8000000000001 420.40000000000003 C 770.2 417.40000000000003 773.2 416.6 776.1 416.6 C 781.6 416.6 787.1 420 787.1 425.90000000000003 C 787 428.6 786.3000000000001 431.20000000000005 785 433.50000000000006 C 775.7 449.20000000000005 757.4 453.00000000000006 743 453.00000000000006 C 718.4 453.00000000000006 704 439.40000000000003 704 419.1000000000001 L 704 345.30000000000007 L 696.6 345.30000000000007 C 687.7 345.30000000000007 685.6 338.9000000000001 685.6 333.00000000000006 C 685.6 327.6 688.2 321.3 696.7 321.2" stroke-linecap="round" />
</g>
		<g transform="matrix(1 0 0 1 -307.82 54.44)" clip-path="url(#CLIPPATH_5)"  >
<clipPath id="CLIPPATH_5" >
	<rect transform="matrix(1 0 0 1 307.8 -54.45)" id="SVGID_2_" x="-370" y="-125.5" rx="0" ry="0" width="740" height="251" />
</clipPath>
<path style="stroke: none; stroke-width: 1; stroke-dasharray: none; stroke-linecap: butt; stroke-dashoffset: 0; stroke-linejoin: miter; stroke-miterlimit: 4; fill: rgb(244,114,22); fill-rule: nonzero; opacity: 1;" vector-effect="non-scaling-stroke"  transform=" translate(-159.2, -384.95)" d="M 164.5 456 L 164.5 456 C 143.8 456 126.5 449.3 114.5 436.7 C 103 424.7 97 408 97 388.4 C 97 337 133.7 313.9 170 313.9 C 181.4 313.9 193 316.4 201.7 320.59999999999997 C 211.7 325.49999999999994 217.2 332.4 217.2 339.9 C 217.2 349 211.5 354.7 202.39999999999998 354.79999999999995 C 198.79999999999998 354.69999999999993 195.29999999999998 353.69999999999993 192.29999999999998 351.69999999999993 C 186.29999999999998 347.69999999999993 179.2 345.69999999999993 171.89999999999998 345.8999999999999 L 170.89999999999998 345.8999999999999 C 159.59999999999997 345.99999999999994 149.99999999999997 349.69999999999993 142.99999999999997 356.5999999999999 C 135.29999999999998 364.19999999999993 131.29999999999998 375.3999999999999 131.49999999999997 389.0999999999999 C 131.79999999999998 412.69999999999993 144.69999999999996 426.2999999999999 166.89999999999998 426.2999999999999 L 167.59999999999997 426.2999999999999 C 180.19999999999996 426.0999999999999 187.29999999999995 422.1999999999999 194.09999999999997 416.3999999999999 C 197.89999999999998 412.7999999999999 204.09999999999997 408.99999999999994 209.89999999999998 408.99999999999994 C 210.7 408.99999999999994 211.49999999999997 409.09999999999997 212.29999999999998 409.29999999999995 C 218.1 410.59999999999997 221.39999999999998 414.79999999999995 221.39999999999998 421.29999999999995 C 221.39999999999998 428.49999999999994 216.7 434.4 213.89999999999998 437.19999999999993 C 203.4 448.9 184.4 456.1 164.5 456" stroke-linecap="round" />
</g>
		<g transform="matrix(1 0 0 1 154.98 55.69)" clip-path="url(#CLIPPATH_6)"  >
<clipPath id="CLIPPATH_6" >
	<rect transform="matrix(1 0 0 1 -155 -55.7)" id="SVGID_2_" x="-370" y="-125.5" rx="0" ry="0" width="740" height="251" />
</clipPath>
<path style="stroke: none; stroke-width: 1; stroke-dasharray: none; stroke-linecap: butt; stroke-dashoffset: 0; stroke-linejoin: miter; stroke-miterlimit: 4; fill: rgb(244,114,22); fill-rule: nonzero; opacity: 1;" vector-effect="non-scaling-stroke"  transform=" translate(-622, -386.2)" d="M 594.9 375.1 C 601.3 375.5 611 375.90000000000003 619.5 375.90000000000003 C 638.2 375.90000000000003 649.6 371.70000000000005 649.6 358.90000000000003 C 649.6 347.00000000000006 636.4 344.1 628.4 344.1 C 612.3 344.1 596.6 354.7 594.9 375.1 M 681.4 428.6 C 673.8 444.70000000000005 650.4 454.1 627.9 454.1 C 584.1999999999999 454.1 561.3 427 561.3 389.6 C 561.3 345.5 588.9 318.3 627.9 318.3 C 659.6999999999999 318.3 681.8 333.6 681.8 359 C 681.8 379.4 663.5999999999999 400.6 620.6999999999999 400.6 C 612.5999999999999 400.70000000000005 604.4999999999999 400.3 596.4999999999999 399.3 C 600.2999999999998 420.1 612.5999999999999 427.3 631.2999999999998 427.3 C 643.1999999999998 427.3 650.3999999999999 423.90000000000003 657.5999999999998 418 C 661.7999999999998 414.2 665.6999999999998 412.1 671.1999999999998 412.1 C 677.9999999999998 412.1 682.6999999999998 417.20000000000005 682.6999999999998 422.3 C 682.5 424.4 682.1 426.5 681.4 428.6" stroke-linecap="round" />
</g>
		<g transform="matrix(1 0 0 1 -173.82 55.69)" clip-path="url(#CLIPPATH_7)"  >
<clipPath id="CLIPPATH_7" >
	<rect transform="matrix(1 0 0 1 173.8 -55.7)" id="SVGID_2_" x="-370" y="-125.5" rx="0" ry="0" width="740" height="251" />
</clipPath>
<path style="stroke: none; stroke-width: 1; stroke-dasharray: none; stroke-linecap: butt; stroke-dashoffset: 0; stroke-linejoin: miter; stroke-miterlimit: 4; fill: rgb(244,114,22); fill-rule: nonzero; opacity: 1;" vector-effect="non-scaling-stroke"  transform=" translate(-293.2, -386.2)" d="M 258.9 384.9 C 258.9 359.9 274.59999999999997 347.09999999999997 293.29999999999995 347.09999999999997 C 311.99999999999994 347.09999999999997 327.69999999999993 355.99999999999994 327.69999999999993 387.4 C 327.69999999999993 412.9 311.99999999999994 425.2 293.29999999999995 425.2 C 274.6 425.2 258.9 416.3 258.9 384.9 M 224.9 386.2 C 224.9 435 256.3 454.1 293.2 454.1 C 330.09999999999997 454.1 361.5 429.5 361.5 386.20000000000005 C 361.5 337.40000000000003 330.1 318.30000000000007 293.2 318.30000000000007 C 256.29999999999995 318.30000000000007 224.9 342.9 224.9 386.2" stroke-linecap="round" />
</g>
		<g transform="matrix(1 0 0 1 72.3 -71.3)" clip-path="url(#CLIPPATH_8)"  >
<clipPath id="CLIPPATH_8" >
	<rect transform="matrix(1 0 0 1 -72.32 71.29)" id="SVGID_2_" x="-370" y="-125.5" rx="0" ry="0" width="740" height="251" />
</clipPath>
<path style="stroke: none; stroke-width: 1; stroke-dasharray: none; stroke-linecap: butt; stroke-dashoffset: 0; stroke-linejoin: miter; stroke-miterlimit: 4; fill: rgb(244,114,22); fill-rule: nonzero; opacity: 1;" vector-effect="non-scaling-stroke"  transform=" translate(-539.32, -259.21)" d="M 830 235 L 807.5 235.2 C 802.3 235.39999999999998 801.7 234.89999999999998 800.1 230 L 793.6 212.4 C 790.4 202.5 785.4 202.6 782.5 212.5 L 776.5 230.3 C 775 235.3 772.5 236.60000000000002 769.2 235.70000000000002 C 706.9000000000001 217.50000000000003 642.1 210.20000000000002 586.3000000000001 210.20000000000002 C 427.1000000000001 210.20000000000002 313.1000000000001 257.40000000000003 244.50000000000006 306.20000000000005 C 242.50000000000006 307.50000000000006 241.60000000000005 308.70000000000005 241.60000000000005 310.90000000000003 C 241.60000000000005 312.20000000000005 242.80000000000004 313.40000000000003 244.90000000000006 313.40000000000003 C 246.20000000000007 313.40000000000003 247.50000000000006 313.20000000000005 248.60000000000005 312.50000000000006 C 298.40000000000003 277.30000000000007 423.4000000000001 230.00000000000006 574.4000000000001 230.10000000000005 C 631.8000000000001 230.10000000000005 696.3000000000001 240.00000000000006 761.1000000000001 260.90000000000003 C 765.7000000000002 262.3 766.4000000000001 264.70000000000005 766.0000000000001 266.1 L 758.9000000000001 287.90000000000003 C 757.1000000000001 294.50000000000006 763.2 296.3 766.7 293.20000000000005 L 784.7 279.90000000000003 C 788.8000000000001 276.70000000000005 788.9000000000001 276.70000000000005 793.1 279.8 L 811.7 292.8 C 816.5 296.1 820.7 292.7 818.9000000000001 287.3 L 811.1000000000001 265.90000000000003 C 809.3000000000002 261.00000000000006 809.7000000000002 259.50000000000006 814.0000000000001 256.50000000000006 L 834.1000000000001 242.60000000000005 C 838.7 239.4 838.3 234.8 830 235 M 794.2 257.9 L 794 272.09999999999997 L 786.2 260.09999999999997 L 772.6 264.49999999999994 L 781.5 253.39999999999995 L 773.3 241.69999999999996 L 786.6999999999999 246.59999999999997 L 795.4 235.09999999999997 L 794.5 249.39999999999998 L 808.1 254.09999999999997 L 794.2 257.9 z" stroke-linecap="round" />
</g>
</g>
</g>
</svg>