<?xml version="1.0" encoding="UTF-8" standalone="no" ?>
<!DOCTYPE svg PUBLIC "-//W3C//DTD SVG 1.1//EN" "http://www.w3.org/Graphics/SVG/1.1/DTD/svg11.dtd">
<svg xmlns="http://www.w3.org/2000/svg" xmlns:xlink="http://www.w3.org/1999/xlink" version="1.1" width="1080" height="1080" viewBox="0 0 1080 1080" xml:space="preserve">
<desc>Created with Fabric.js 5.2.4</desc>
<defs>
</defs>
<rect x="0" y="0" width="100%" height="100%" fill="transparent"></rect>
<g transform="matrix(1 0 0 1 540 540)" id="12ee163b-d96c-44bc-bf94-38a84b5d44d1"  >
</g>
<g transform="matrix(1 0 0 1 540 540)" id="e100c13b-b9be-4ec3-9620-39f22e5c834d"  >
<rect style="stroke: none; stroke-width: 1; stroke-dasharray: none; stroke-linecap: butt; stroke-dashoffset: 0; stroke-linejoin: miter; stroke-miterlimit: 4; fill: rgb(255,255,255); fill-rule: nonzero; opacity: 1; visibility: hidden;" vector-effect="non-scaling-stroke"  x="-540" y="-540" rx="0" ry="0" width="1080" height="1080" />
</g>
<g transform="matrix(1 0 0 1 50 36.45)"  >
<rect style="stroke: none; stroke-width: 1; stroke-dasharray: none; stroke-linecap: butt; stroke-dashoffset: 0; stroke-linejoin: miter; stroke-miterlimit: 4; fill: rgb(255,255,255); fill-opacity: 0; fill-rule: nonzero; opacity: 1;" vector-effect="non-scaling-stroke"  x="-50" y="-50" rx="0" ry="0" width="100" height="100" />
</g>
<g transform="matrix(1 0 0 1 540 526.45)"  >
<rect style="stroke: none; stroke-width: 1; stroke-dasharray: none; stroke-linecap: butt; stroke-dashoffset: 0; stroke-linejoin: miter; stroke-miterlimit: 4; fill: rgb(255,255,255); fill-rule: nonzero; opacity: 1; visibility: hidden;" vector-effect="non-scaling-stroke"  x="-540" y="-540" rx="0" ry="0" width="1080" height="1080" />
</g>
<g transform="matrix(1 0 0 1 50 36.45)"  >
<rect style="stroke: none; stroke-width: 1; stroke-dasharray: none; stroke-linecap: butt; stroke-dashoffset: 0; stroke-linejoin: miter; stroke-miterlimit: 4; fill: rgb(255,255,255); fill-opacity: 0; fill-rule: nonzero; opacity: 1;" vector-effect="non-scaling-stroke"  x="-50" y="-50" rx="0" ry="0" width="100" height="100" />
</g>
<g transform="matrix(1 0 0 1 540 526.45)"  >
<rect style="stroke: none; stroke-width: 1; stroke-dasharray: none; stroke-linecap: butt; stroke-dashoffset: 0; stroke-linejoin: miter; stroke-miterlimit: 4; fill: rgb(255,255,255); fill-rule: nonzero; opacity: 1; visibility: hidden;" vector-effect="non-scaling-stroke"  x="-540" y="-540" rx="0" ry="0" width="1080" height="1080" />
</g>
<g transform="matrix(1 0 0 1 50 63.53)"  >
<rect style="stroke: none; stroke-width: 1; stroke-dasharray: none; stroke-linecap: butt; stroke-dashoffset: 0; stroke-linejoin: miter; stroke-miterlimit: 4; fill: rgb(255,255,255); fill-opacity: 0; fill-rule: nonzero; opacity: 1;" vector-effect="non-scaling-stroke"  x="-50" y="-50" rx="0" ry="0" width="100" height="100" />
</g>
<g transform="matrix(1 0 0 1 540 553.53)"  >
<rect style="stroke: none; stroke-width: 1; stroke-dasharray: none; stroke-linecap: butt; stroke-dashoffset: 0; stroke-linejoin: miter; stroke-miterlimit: 4; fill: rgb(255,255,255); fill-rule: nonzero; opacity: 1; visibility: hidden;" vector-effect="non-scaling-stroke"  x="-540" y="-540" rx="0" ry="0" width="1080" height="1080" />
</g>
<g transform="matrix(1 0 0 1 50 20.45)"  >
<rect style="stroke: none; stroke-width: 1; stroke-dasharray: none; stroke-linecap: butt; stroke-dashoffset: 0; stroke-linejoin: miter; stroke-miterlimit: 4; fill: rgb(255,255,255); fill-opacity: 0; fill-rule: nonzero; opacity: 1;" vector-effect="non-scaling-stroke"  x="-50" y="-50" rx="0" ry="0" width="100" height="100" />
</g>
<g transform="matrix(1 0 0 1 540 510.45)"  >
<rect style="stroke: none; stroke-width: 1; stroke-dasharray: none; stroke-linecap: butt; stroke-dashoffset: 0; stroke-linejoin: miter; stroke-miterlimit: 4; fill: rgb(255,255,255); fill-rule: nonzero; opacity: 1; visibility: hidden;" vector-effect="non-scaling-stroke"  x="-540" y="-540" rx="0" ry="0" width="1080" height="1080" />
</g>
<g transform="matrix(5.52 0 0 5.73 677.4 580.19)"  >
<path style="stroke: none; stroke-width: 1; stroke-dasharray: none; stroke-linecap: butt; stroke-dashoffset: 0; stroke-linejoin: miter; stroke-miterlimit: 4; fill: rgb(0,0,0); fill-rule: evenodd; opacity: 1;" vector-effect="non-scaling-stroke"  transform=" translate(-121.26, -104.57)" d="M 106.234 93.688 L 109.21499999999999 93.688 L 109.21499999999999 107.93900000000001 L 117.63499999999999 107.93900000000001 L 117.63499999999999 110.52900000000001 L 106.234 110.52900000000001 L 106.234 93.688 z M 119.318 98.352 L 121.91 98.352 L 121.91 110.53 L 119.318 110.53 L 119.318 98.352 z M 119.318 93.688 L 121.91 93.688 L 121.91 96.15 L 119.318 96.15 L 119.318 93.688 z M 130.07 108.457 C 127.869 108.457 126.832 106.38499999999999 126.832 104.44099999999999 C 126.832 102.36699999999999 127.609 100.16599999999998 130.07 100.16599999999998 C 132.273 100.16599999999998 133.31 102.10899999999998 133.31 104.18199999999999 C 133.31 106.255 132.40200000000002 108.457 130.07 108.457 z M 135.9 98.35199999999999 L 133.31 98.35199999999999 L 133.31 100.03799999999998 L 133.179 100.03799999999998 C 132.53300000000002 98.61199999999998 131.107 97.96399999999998 129.683 97.96399999999998 C 126.18499999999999 97.96399999999998 124.24199999999999 100.81599999999999 124.24199999999999 104.18299999999998 C 124.24199999999999 107.68099999999998 125.797 110.53099999999998 129.553 110.53099999999998 C 131.108 110.53099999999998 132.403 109.75399999999998 133.18 108.45899999999997 L 133.311 108.45899999999997 L 133.311 110.27099999999997 C 133.311 112.34499999999997 132.274 113.37999999999997 130.202 113.37999999999997 C 128.776 113.37999999999997 127.61 113.12199999999997 127.222 111.56799999999997 L 124.63199999999999 111.56799999999997 C 124.88999999999999 114.41799999999996 127.61099999999999 115.45499999999997 129.94299999999998 115.45499999999997 C 133.82999999999998 115.45499999999997 135.902 113.64099999999996 135.902 109.88499999999996 L 135.902 98.352 L 135.89999999999998 98.352 z M 138.492 93.688 L 141.213 93.688 L 141.213 99.906 C 141.85899999999998 98.87100000000001 143.285 97.96300000000001 144.84 97.96300000000001 C 147.43 97.96300000000001 149.115 99.38900000000001 149.115 102.10900000000001 L 149.115 110.52900000000001 L 146.394 110.52900000000001 L 146.394 102.88600000000001 C 146.394 100.94300000000001 145.61700000000002 100.165 144.062 100.165 C 142.37800000000001 100.165 141.21200000000002 101.58900000000001 141.21200000000002 103.274 L 141.21200000000002 110.528 L 138.491 110.528 L 138.491 93.688 L 138.49200000000002 93.688 z M 150.668 98.352 L 152.61100000000002 98.352 L 152.61100000000002 94.596 L 155.33200000000002 94.596 L 155.33200000000002 98.352 L 157.66400000000002 98.352 L 157.66400000000002 100.295 L 155.33200000000002 100.295 L 155.33200000000002 106.902 C 155.33200000000002 107.93900000000001 155.33200000000002 108.586 156.49800000000002 108.586 C 156.88700000000003 108.586 157.275 108.586 157.66400000000002 108.457 L 157.66400000000002 110.529 C 157.14600000000002 110.658 156.49800000000002 110.658 155.98000000000002 110.658 C 153.25900000000001 110.658 152.74200000000002 109.623 152.61100000000002 107.551 L 152.61100000000002 100.295 L 150.668 100.295 L 150.668 98.352 z M 159.607 98.352 L 162.328 98.352 L 162.328 110.53 L 159.607 110.53 L 159.607 98.352 z M 159.607 93.688 L 162.328 93.688 L 162.328 96.15 L 159.607 96.15 L 159.607 93.688 z M 165.566 98.352 L 168.02700000000002 98.352 L 168.02700000000002 100.166 C 168.804 98.871 170.23000000000002 97.963 171.78500000000003 97.963 C 174.37500000000003 97.963 176.06000000000003 99.389 176.06000000000003 102.109 L 176.06000000000003 110.529 L 173.46800000000002 110.529 L 173.46800000000002 102.886 C 173.33900000000003 100.943 172.562 100.16499999999999 171.007 100.16499999999999 C 169.323 100.16499999999999 168.157 101.589 168.157 103.27399999999999 L 168.157 110.52799999999999 L 165.565 110.52799999999999 L 165.565 98.352 L 165.566 98.352 z M 184.092 108.457 C 181.889 108.457 180.854 106.38499999999999 180.854 104.44099999999999 C 180.854 102.36699999999999 181.76000000000002 100.16599999999998 184.092 100.16599999999998 C 186.29500000000002 100.16599999999998 187.33 102.10899999999998 187.33 104.18199999999999 C 187.33 106.255 186.424 108.457 184.092 108.457 z M 189.92200000000003 98.35199999999999 L 187.33 98.35199999999999 L 187.33 100.03799999999998 L 187.20100000000002 100.03799999999998 C 186.55300000000003 98.61199999999998 185.12900000000002 97.96399999999998 183.70300000000003 97.96399999999998 C 180.20500000000004 97.96399999999998 178.26200000000003 100.81599999999999 178.26200000000003 104.18299999999998 C 178.26200000000003 107.68099999999998 179.81700000000004 110.53099999999998 183.57400000000004 110.53099999999998 C 185.12900000000005 110.53099999999998 186.42400000000004 109.75399999999998 187.20100000000005 108.45899999999997 L 187.33000000000004 108.45899999999997 L 187.33000000000004 110.27099999999997 C 187.33000000000004 112.34499999999997 186.29500000000004 113.37999999999997 184.22100000000003 113.37999999999997 C 182.79700000000003 113.37999999999997 181.63100000000003 113.12199999999997 181.37100000000004 111.56799999999997 L 178.65000000000003 111.56799999999997 C 178.91000000000003 114.41799999999996 181.63000000000002 115.45499999999997 183.96200000000005 115.45499999999997 C 187.84900000000005 115.45499999999997 189.92100000000005 113.64099999999996 189.92100000000005 109.88499999999996 L 189.92100000000005 98.352 L 189.92200000000005 98.352 z M 68.667 93.688 L 82.139 93.688 L 82.139 97.44500000000001 L 74.88499999999999 97.44500000000001 L 74.88499999999999 100.037 L 81.88 100.037 L 81.88 103.793 L 74.88499999999999 103.793 L 74.88499999999999 106.643 L 82.00999999999999 106.643 L 82.00999999999999 110.529 L 68.667 110.529 L 68.667 93.688 z M 61.542 93.688 L 52.604 93.688 L 52.604 110.529 L 58.822 110.529 L 58.822 105.476 L 61.543000000000006 105.476 C 65.947 105.476 68.021 103.533 68.021 99.517 C 68.019 95.761 66.07600000000001 93.688 61.542 93.688 z M 59.728 101.721 L 58.821 101.721 L 58.821 97.446 L 59.727999999999994 97.446 C 61.41199999999999 97.446 61.92999999999999 98.352 61.92999999999999 99.518 C 61.92999999999999 100.943 61.41199999999999 101.721 59.727999999999994 101.721 z" stroke-linecap="round" />
</g>
<g transform="matrix(5.52 0 0 5.73 388.46 435.96)"  >
<path style="stroke: none; stroke-width: 1; stroke-dasharray: none; stroke-linecap: butt; stroke-dashoffset: 0; stroke-linejoin: miter; stroke-miterlimit: 4; fill: rgb(176,24,66); fill-rule: evenodd; opacity: 1;" vector-effect="non-scaling-stroke"  transform=" translate(-68.93, -79.44)" d="M 85.249 80.086 L 85.249 65.966 L 52.603 78.791 L 52.603 92.91199999999999 L 85.249 80.08599999999998 z" stroke-linecap="round" />
</g>
<g transform="matrix(5.52 0 0 5.73 292.18 566.07)"  >
<path style="stroke: none; stroke-width: 1; stroke-dasharray: none; stroke-linecap: butt; stroke-dashoffset: 0; stroke-linejoin: miter; stroke-miterlimit: 4; fill: rgb(0,0,0); fill-rule: evenodd; opacity: 1;" vector-effect="non-scaling-stroke"  transform=" translate(-51.49, -102.11)" d="M 97.426 95.243 C 96.649 94.336 95.224 93.68799999999999 93.151 93.68799999999999 L 83.046 93.68799999999999 L 83.046 110.529 L 89.394 110.529 L 89.394 97.445 L 89.912 97.445 C 91.46700000000001 97.445 91.59700000000001 97.574 91.985 98.09299999999999 C 92.374 98.73899999999999 92.374 100.42499999999998 91.855 101.20199999999998 C 91.337 101.71999999999998 90.819 101.84799999999998 90.171 101.84799999999998 L 89.39500000000001 101.84799999999998 L 93.15100000000001 110.52799999999999 L 100.147 110.52799999999999 L 95.872 102.755 C 96.779 102.366 97.427 101.978 97.944 101.202 C 98.333 100.554 98.721 99.388 98.721 98.222 C 98.721 97.05599999999998 98.33200000000001 96.021 97.426 95.243 z M 43.793 93.041 C 40.684 93.041 38.741 93.688 37.445 95.243 C 36.15 96.928 35.89 98.871 35.89 102.109 C 35.89 105.347 35.89 107.03099999999999 37.315 108.97399999999999 C 38.61 110.529 40.683 111.17699999999999 43.792 111.17699999999999 C 46.901 111.17699999999999 48.974000000000004 110.529 50.14 108.97399999999999 C 51.565 107.28999999999999 51.695 105.347 51.695 102.109 C 51.695 98.871 51.695 97.056 50.27 95.243 C 49.105000000000004 93.68799999999999 46.903000000000006 93.041 43.793000000000006 93.041 z M 43.793 107.291 C 43.146 107.291 42.368 107.03099999999999 42.368 105.219 L 42.368 99 C 42.368 97.186 43.145 96.928 43.793 96.928 C 44.440999999999995 96.928 45.217999999999996 97.18599999999999 45.217999999999996 99 L 45.217999999999996 105.219 C 45.218999999999994 107.03099999999999 44.440999999999995 107.291 43.793 107.291 z M 10.759 107.291 C 11.407 107.291 12.184000000000001 107.03099999999999 12.184000000000001 105.219 L 12.184000000000001 103.79299999999999 L 18.532 103.79299999999999 C 18.532 109.49399999999999 16.589 111.178 10.759 111.178 C 7.65 111.178 5.447 110.53 4.1530000000000005 108.846 C 2.7280000000000006 107.162 2.857 105.21900000000001 2.857 102.239 C 2.728 98.09400000000001 3.116 96.15100000000001 4.93 94.596 C 6.225 93.43 8.169 93.042 10.76 93.042 C 16.59 93.042 18.533 95.115 18.533 100.038 L 12.185000000000002 100.038 L 12.185000000000002 99 C 12.185000000000002 97.186 11.408000000000003 96.928 10.760000000000002 96.928 C 10.242 96.928 9.335 97.18599999999999 9.335 99 L 9.335 105.219 C 9.334000000000001 107.03099999999999 10.241000000000001 107.291 10.759 107.291 z M 27.212 93.041 C 24.103 93.041 22.159 93.688 20.864 95.243 C 19.569000000000003 96.928 19.309 98.871 19.309 102.109 C 19.309 105.347 19.309 107.03099999999999 20.734 108.97399999999999 C 22.029000000000003 110.529 24.103 111.17699999999999 27.212000000000003 111.17699999999999 C 30.321000000000005 111.17699999999999 32.394000000000005 110.529 33.56 108.97399999999999 C 34.985 107.28999999999999 35.114000000000004 105.347 35.114000000000004 102.109 C 35.114000000000004 98.871 35.114000000000004 97.056 33.68900000000001 95.243 C 32.52300000000001 93.68799999999999 30.32100000000001 93.041 27.212000000000007 93.041 z M 27.212 107.291 C 26.564 107.291 25.787 107.03099999999999 25.787 105.219 L 25.787 99 C 25.787 97.186 26.564 96.928 27.212 96.928 C 27.858999999999998 96.928 28.637 97.18599999999999 28.637 99 L 28.637 105.219 C 28.637 107.03099999999999 27.859 107.291 27.212 107.291 z" stroke-linecap="round" />
</g>
</svg>