<?xml version="1.0" encoding="UTF-8" standalone="no" ?>
<!DOCTYPE svg PUBLIC "-//W3C//DTD SVG 1.1//EN" "http://www.w3.org/Graphics/SVG/1.1/DTD/svg11.dtd">
<svg xmlns="http://www.w3.org/2000/svg" xmlns:xlink="http://www.w3.org/1999/xlink" version="1.1" width="1080" height="1080" viewBox="0 0 1080 1080" xml:space="preserve">
<desc>Created with Fabric.js 5.2.4</desc>
<defs>
</defs>
<rect x="0" y="0" width="100%" height="100%" fill="transparent"></rect>
<g transform="matrix(1 0 0 1 540 540)" id="d34f9ec9-caa0-4c65-be30-fe0ebc772659"  >
</g>
<g transform="matrix(1 0 0 1 540 540)" id="a505a0c8-3f6f-4313-afb6-516bbe097f6f"  >
<rect style="stroke: none; stroke-width: 1; stroke-dasharray: none; stroke-linecap: butt; stroke-dashoffset: 0; stroke-linejoin: miter; stroke-miterlimit: 4; fill: rgb(255,255,255); fill-rule: nonzero; opacity: 1; visibility: hidden;" vector-effect="non-scaling-stroke"  x="-540" y="-540" rx="0" ry="0" width="1080" height="1080" />
</g>
<g transform="matrix(0 0 0 0 0 0)"  >
<g style=""   >
</g>
</g>
<g transform="matrix(0 0 0 0 0 0)"  >
<g style=""   >
</g>
</g>
<g transform="matrix(0 0 0 0 0 0)"  >
<g style=""   >
</g>
</g>
<g transform="matrix(1 0 0 1 50 50)"  >
<rect style="stroke: none; stroke-width: 1; stroke-dasharray: none; stroke-linecap: butt; stroke-dashoffset: 0; stroke-linejoin: miter; stroke-miterlimit: 4; fill: rgb(255,255,255); fill-opacity: 0; fill-rule: nonzero; opacity: 1;" vector-effect="non-scaling-stroke"  x="-50" y="-50" rx="0" ry="0" width="100" height="100" />
</g>
<g transform="matrix(1 0 0 1 540 540)"  >
<rect style="stroke: none; stroke-width: 1; stroke-dasharray: none; stroke-linecap: butt; stroke-dashoffset: 0; stroke-linejoin: miter; stroke-miterlimit: 4; fill: rgb(255,255,255); fill-rule: nonzero; opacity: 1; visibility: hidden;" vector-effect="non-scaling-stroke"  x="-540" y="-540" rx="0" ry="0" width="1080" height="1080" />
</g>
<g transform="matrix(2.5 0 0 2.5 686.75 553.09)"  >
<path style="stroke: none; stroke-width: 1; stroke-dasharray: none; stroke-linecap: butt; stroke-dashoffset: 0; stroke-linejoin: miter; stroke-miterlimit: 4; fill: rgb(237,28,36); fill-rule: nonzero; opacity: 1;" vector-effect="non-scaling-stroke"  transform=" translate(-150.05, -173.52)" d="M 2.182 151.268 L 16.22 151.268 L 16.22 166.308 L 29.493 166.308 L 29.493 151.268 L 43.533 151.268 L 43.533 195.711 L 29.493000000000002 195.711 L 29.493000000000002 178.513 L 16.220000000000002 178.513 L 16.220000000000002 195.711 L 2.182000000000002 195.711 z M 63.436 151.268 L 77.654 151.268 L 92.93599999999999 195.711 L 79.01599999999999 195.711 L 77.30099999999999 189.79700000000003 L 63.435999999999986 189.79700000000003 L 61.77599999999999 195.711 L 48.15299999999999 195.711 z M 66.045 180.54500000000002 L 74.87 180.54500000000002 L 70.367 164.645 z M 90.331 151.26800000000003 L 104.491 151.26800000000003 L 112.014 180.79300000000003 L 119.773 151.26800000000003 L 133.87199999999999 151.26800000000003 L 119.06199999999998 195.711 L 104.96499999999999 195.711 z M 139.62 151.26800000000003 L 174.452 151.26800000000003 L 174.452 161.62400000000002 L 153.659 161.62400000000002 L 153.659 168.03600000000003 L 171.19299999999998 168.03600000000003 L 171.19299999999998 178.38900000000004 L 153.659 178.38900000000004 L 153.659 185.35600000000005 L 175.284 185.35600000000005 L 175.284 195.71100000000004 L 139.62 195.71100000000004 z M 182.45 151.26800000000003 L 196.49099999999999 151.26800000000003 L 196.49099999999999 185.35600000000002 L 215.682 185.35600000000002 L 215.682 195.711 L 182.45 195.711 z M 222.01999999999998 151.26800000000003 L 236.05999999999997 151.26800000000003 L 236.05999999999997 185.35600000000002 L 255.25599999999997 185.35600000000002 L 255.25599999999997 195.711 L 222.02099999999996 195.711 z M 283.45399999999995 164.14900000000003 C 283.09899999999993 161.60400000000004 281.18499999999995 160.33100000000002 277.70599999999996 160.33100000000002 C 274.941 160.33100000000002 273.50399999999996 161.13100000000003 273.383 162.735 C 273.34499999999997 163.722 273.805 164.54000000000002 274.775 165.199 C 275.743 165.85600000000002 277.036 166.401 278.655 166.834 C 280.27399999999994 167.267 281.83599999999996 167.667 283.335 168.036 C 288.351 169.269 292.04499999999996 170.934 294.41299999999995 173.026 C 296.782 175.122 297.948 178.02200000000002 297.90899999999993 181.71900000000002 C 297.90899999999993 185.33400000000003 296.97999999999996 188.28400000000002 295.12499999999994 190.56600000000003 C 293.26599999999996 192.84400000000002 290.82899999999995 194.47800000000004 287.80999999999995 195.46600000000004 C 284.78899999999993 196.45200000000003 281.54099999999994 196.94300000000004 278.06199999999995 196.94300000000004 C 272.85099999999994 196.94300000000004 268.43699999999995 195.55600000000004 264.82199999999995 192.78300000000004 C 261.20699999999994 190.01000000000005 259.28399999999993 186.40600000000003 259.04699999999997 181.96700000000004 L 272.49499999999995 181.96700000000004 C 272.80999999999995 183.73200000000003 273.631 184.96700000000004 274.9549999999999 185.66400000000004 C 276.2749999999999 186.36200000000005 277.6479999999999 186.71200000000005 279.0709999999999 186.71200000000005 C 282.5059999999999 186.54900000000004 284.3229999999999 185.54000000000005 284.5209999999999 183.69000000000005 C 284.6779999999999 182.41700000000006 284.0579999999999 181.44000000000005 282.6549999999999 180.76500000000004 C 281.2519999999999 180.08500000000004 279.0899999999999 179.37900000000005 276.1649999999999 178.63700000000006 C 272.4949999999999 177.69100000000006 269.5699999999999 176.72400000000005 267.3999999999999 175.73900000000006 C 265.25222605457157 174.77304395567637 263.4011907433505 173.25134241672407 262.0379999999999 171.33100000000007 C 260.6349999999999 169.38100000000009 259.9539999999999 166.8040000000001 259.9949999999999 163.59500000000008 C 260.0749999999999 159.6080000000001 261.7599999999999 156.36300000000008 265.0599999999999 153.85700000000008 C 268.3569999999999 151.3480000000001 272.8699999999999 150.0970000000001 278.59699999999987 150.0970000000001 C 281.6369999999999 150.0970000000001 284.4299999999999 150.54100000000008 286.97699999999986 151.4200000000001 C 289.52799999999985 152.3050000000001 291.68699999999984 153.8080000000001 293.46699999999987 155.9220000000001 C 295.2429999999999 158.0390000000001 296.3489999999999 160.78000000000011 296.78199999999987 164.14900000000011 z" stroke-linecap="round" />
</g>
<g transform="matrix(2.16 0 0 2.16 157.56 540)"  >
<path style="stroke: none; stroke-width: 1; stroke-dasharray: none; stroke-linecap: butt; stroke-dashoffset: 0; stroke-linejoin: miter; stroke-miterlimit: 4; fill: rgb(237,28,36); fill-rule: nonzero; opacity: 1;" vector-effect="non-scaling-stroke"  transform=" translate(-150.05, -61.36)" d="M 212.07 61.039 C 212.00199999999998 47.207 207.525 33.497 199.45999999999998 22.433 C 192.93499999999997 13.486 184.47599999999997 6.638 174.695 2.2959999999999994 C 173.942 1.9979999999999993 171.392 1.3029999999999995 170.744 1.4329999999999994 C 168.331 1.9149999999999994 166.606 4.186999999999999 166.082 7.1259999999999994 C 165.952 7.845999999999999 165.897 8.609 165.922 9.392 C 165.828 10.882 165.742 12.443999999999999 165.66 14.148 C 165.632 14.432 165.63 14.865 165.60999999999999 15.379999999999999 C 165.53599999999997 17.302 165.426 20.205 165.23299999999998 21.333 C 163.52599999999998 31.147999999999996 153.634 37.361999999999995 145.063 37.70099999999999 C 139.213 37.92699999999999 133.469 38.23599999999999 127.99399999999999 38.61099999999999 C 124.95599999999999 38.82599999999999 121.94299999999998 39.06299999999999 119.03699999999998 39.31899999999999 C 117.63699999999997 39.44599999999999 116.22999999999998 39.575999999999986 114.82399999999998 39.71899999999999 L 114.49899999999998 39.75199999999999 C 113.74899999999998 39.828999999999986 112.97099999999998 39.908999999999985 112.16399999999999 39.908999999999985 C 111.62399999999998 39.908999999999985 111.12399999999998 39.87599999999998 110.65299999999999 39.804999999999986 C 107.36099999999999 39.316999999999986 104.767 37.286999999999985 103.53999999999999 34.23299999999998 C 102.99099999999999 32.87599999999998 102.726 31.469999999999985 102.726 29.922999999999984 C 102.726 27.932999999999986 103.19 26.019999999999985 103.592 24.577999999999985 C 104.339 21.933999999999983 105.37 18.611999999999984 106.829 15.402999999999984 C 101.84566499471877 20.464817774139355 97.7263174918578 26.309737447298307 94.63499999999998 32.704999999999984 C 90.496 41.27399999999999 88.21099999999998 50.85199999999998 88.029 60.41299999999998 L 88.029 61.68099999999998 C 88.026 78.46799999999999 94.238 94.34099999999998 105.274 106.25099999999998 C 103.813 102.73799999999997 102.842 99.06599999999997 102.164 96.16799999999998 C 101.744 94.39299999999997 101.34 92.49299999999998 101.34 90.51099999999998 C 101.34 88.95599999999997 101.58500000000001 87.50299999999999 102.092 86.06399999999998 C 103.25 82.78899999999997 105.643 80.53099999999998 108.833 79.69799999999998 C 109.71048267993436 79.4697117950276 110.61435469458064 79.35874536465809 111.52100000000002 79.36799999999998 C 112.045 79.36799999999998 112.605 79.39799999999998 113.231 79.46099999999998 C 117.82885743554455 79.91014181050905 122.43341259971669 80.2878540173587 127.04300000000018 80.59400000000002 C 132.744 80.97999999999998 138.749 81.28899999999997 144.892 81.51799999999999 C 149.642 81.69399999999999 154.577 83.63199999999999 158.428 86.83299999999998 C 162.5 90.21599999999998 165.095 94.70699999999998 165.743 99.48999999999998 C 165.878 100.49099999999999 166.01 103.35799999999998 166.109 105.44799999999998 C 166.142 106.13499999999998 166.16400000000002 106.70299999999997 166.184 107.02799999999998 C 166.322 109.43199999999997 166.462 111.54699999999998 166.614 113.48999999999998 L 166.614 113.50099999999998 C 166.677 114.35099999999997 166.744 115.12799999999997 166.80700000000002 115.85299999999998 C 167.342 118.56599999999997 168.935 120.66399999999999 171.193 121.18799999999997 C 171.96300000000002 121.36999999999998 172.745 121.33899999999997 173.50900000000001 121.14899999999997 C 174.1320294899606 120.88446327809095 174.7514204757376 120.61143786509237 175.36700000000002 120.32999999999997 C 185.02700000000002 115.84799999999997 193.359 108.92199999999997 199.769 99.95999999999997 C 207.707 88.84599999999996 212.079 75.13499999999996 212.079 61.36699999999996 L 212.079 61.03899999999996 z" stroke-linecap="round" />
</g>
<g transform="matrix(2.08 0 0 2.08 86.35 456.9)"  >
<path style="stroke: none; stroke-width: 1; stroke-dasharray: none; stroke-linecap: butt; stroke-dashoffset: 0; stroke-linejoin: miter; stroke-miterlimit: 4; fill: rgb(242,87,70); fill-rule: nonzero; opacity: 1;" vector-effect="non-scaling-stroke"  transform=" translate(-117.99, -22.41)" d="M 112.167 37.312 C 111.78694510231303 37.31351295752769 111.40728141029994 37.287444499801445 111.031 37.233999999999995 C 108.646 36.876 106.83800000000001 35.46399999999999 105.94500000000001 33.25899999999999 C 105.525 32.218999999999994 105.322 31.130999999999993 105.322 29.928999999999995 C 105.322 28.243999999999996 105.732 26.561999999999994 106.09400000000001 25.282999999999994 C 108.048 18.321999999999996 110.284 13.435999999999995 112.93100000000001 10.334999999999994 C 113.3933704472984 9.7844656006024 113.90443960265122 9.276743329043633 114.45800000000001 8.817999999999996 L 114.61800000000001 8.704999999999995 C 114.67800000000001 8.652999999999995 114.745 8.605999999999995 114.80600000000001 8.561999999999994 C 115.78200000000001 7.850999999999994 116.72400000000002 7.508999999999994 117.63700000000001 7.505999999999994 C 119.81200000000001 7.505999999999994 122.12300000000002 9.493999999999994 124.15400000000001 13.107999999999993 C 126.269 16.857999999999993 128.102 22.321999999999996 129.464 28.913999999999994 C 129.922 31.141999999999996 130.316 33.416 130.661 35.833999999999996 C 129.713 35.897 128.761 35.958 127.813 36.023999999999994 C 124.629 36.24399999999999 121.681 36.47599999999999 118.806 36.733 C 117.392 36.863 115.977 36.995 114.568 37.138 L 114.238 37.171 C 113.518 37.246 112.838 37.311 112.168 37.311" stroke-linecap="round" />
</g>
<g transform="matrix(1.96 0 0 1.96 86.23 617.33)"  >
<path style="stroke: none; stroke-width: 1; stroke-dasharray: none; stroke-linecap: butt; stroke-dashoffset: 0; stroke-linejoin: miter; stroke-miterlimit: 4; fill: rgb(186,21,27); fill-rule: nonzero; opacity: 1;" vector-effect="non-scaling-stroke"  transform=" translate(-117.1, -98.22)" d="M 115.908 114.472 L 115.88 114.472 C 114.937 114.472 113.967 114.092 113.002 113.347 L 112.999 113.347 L 112.97099999999999 113.317 L 112.89999999999999 113.26499999999999 L 112.836 113.21499999999999 L 112.767 113.15699999999998 C 112.731 113.13199999999998 112.701 113.10199999999998 112.663 113.07999999999998 C 112.11657050481512 112.60211329584423 111.6160556033543 112.07414540313273 111.16799999999999 111.50299999999999 C 108.52999999999999 108.19399999999999 106.401 102.98099999999998 104.66499999999999 95.57299999999998 C 104.28099999999999 93.94899999999998 103.90899999999999 92.21499999999997 103.90899999999999 90.51099999999998 C 103.90899999999999 89.25899999999999 104.10799999999999 88.08799999999998 104.51899999999999 86.92999999999998 C 105.38099999999999 84.49499999999998 107.13799999999999 82.81599999999997 109.46199999999999 82.20699999999998 C 110.12691126735874 82.03995399663155 110.81045587025557 81.95862764761432 111.496 81.96499999999997 C 111.943 81.96499999999997 112.398 81.99199999999998 112.94399999999999 82.04499999999997 C 114.35799999999999 82.18799999999997 115.85 82.32299999999998 117.374 82.45799999999997 C 120.42099999999999 82.72299999999997 123.60499999999999 82.96799999999998 126.847 83.18599999999996 C 127.991 83.26299999999996 129.141 83.33499999999997 130.287 83.40899999999996 C 129.82500000000002 86.44199999999996 129.293 89.24899999999997 128.675 91.97499999999997 C 127.12800000000001 98.79299999999996 125.11300000000001 104.48899999999996 122.85500000000002 108.43499999999997 C 120.66100000000002 112.26899999999998 118.12500000000001 114.47199999999998 115.89100000000002 114.47199999999998" stroke-linecap="round" />
</g>
</svg>