<?xml version="1.0" encoding="UTF-8" standalone="no" ?>
<!DOCTYPE svg PUBLIC "-//W3C//DTD SVG 1.1//EN" "http://www.w3.org/Graphics/SVG/1.1/DTD/svg11.dtd">
<svg xmlns="http://www.w3.org/2000/svg" xmlns:xlink="http://www.w3.org/1999/xlink" version="1.1" width="1080" height="1080" viewBox="0 0 1080 1080" xml:space="preserve">
<desc>Created with Fabric.js 5.2.4</desc>
<defs>
</defs>
<rect x="0" y="0" width="100%" height="100%" fill="transparent"></rect>
<g transform="matrix(1 0 0 1 540 540)" id="d34f9ec9-caa0-4c65-be30-fe0ebc772659"  >
</g>
<g transform="matrix(1 0 0 1 540 540)" id="a505a0c8-3f6f-4313-afb6-516bbe097f6f"  >
<rect style="stroke: none; stroke-width: 1; stroke-dasharray: none; stroke-linecap: butt; stroke-dashoffset: 0; stroke-linejoin: miter; stroke-miterlimit: 4; fill: rgb(255,255,255); fill-rule: nonzero; opacity: 1; visibility: hidden;" vector-effect="non-scaling-stroke"  x="-540" y="-540" rx="0" ry="0" width="1080" height="1080" />
</g>
<g transform="matrix(0 0 0 0 0 0)"  >
<g style=""   >
</g>
</g>
<g transform="matrix(0 0 0 0 0 0)"  >
<g style=""   >
</g>
</g>
<g transform="matrix(0 0 0 0 0 0)"  >
<g style=""   >
</g>
</g>
<g transform="matrix(1 0 0 1 50 50)"  >
<rect style="stroke: none; stroke-width: 1; stroke-dasharray: none; stroke-linecap: butt; stroke-dashoffset: 0; stroke-linejoin: miter; stroke-miterlimit: 4; fill: rgb(255,255,255); fill-opacity: 0; fill-rule: nonzero; opacity: 1;" vector-effect="non-scaling-stroke"  x="-50" y="-50" rx="0" ry="0" width="100" height="100" />
</g>
<g transform="matrix(1 0 0 1 540 540)"  >
<rect style="stroke: none; stroke-width: 1; stroke-dasharray: none; stroke-linecap: butt; stroke-dashoffset: 0; stroke-linejoin: miter; stroke-miterlimit: 4; fill: rgb(255,255,255); fill-rule: nonzero; opacity: 1; visibility: hidden;" vector-effect="non-scaling-stroke"  x="-540" y="-540" rx="0" ry="0" width="1080" height="1080" />
</g>
<g transform="matrix(3.36 0 0 3.36 126.91 540)"  >
<path style="stroke: none; stroke-width: 1; stroke-dasharray: none; stroke-linecap: butt; stroke-dashoffset: 0; stroke-linejoin: miter; stroke-miterlimit: 4; fill: rgb(0,17,87); fill-rule: evenodd; opacity: 1;" vector-effect="non-scaling-stroke"  transform=" translate(-32.45, -32.45)" d="M 27.9 60.5 L 41.7 36.5 L 32.300000000000004 36.5 L 36.900000000000006 28.4 L 58.900000000000006 28.4 L 54.2 36.5 L 46.300000000000004 36.5 L 32.300000000000004 60.9 C 48 60.8 60.8 48 60.8 32.4 C 60.8 16.8 48 4.1 32.4 4.1 C 31.299999999999997 4.1 30.099999999999998 4.199999999999999 29 4.3 L 15 28.400000000000002 L 32.3 28.400000000000002 L 27.599999999999998 36.5 L 5.8 36.5 L 23.7 5.5 C 12.3 9.1 4 19.9 4 32.4 C 4 46.5 14.4 58.3 27.9 60.5 M 32.4 0 C 50.2 0 64.9 14.6 64.9 32.4 C 64.9 50.3 50.300000000000004 64.9 32.400000000000006 64.9 C 14.6 64.9 0 50.3 0 32.4 C 0 14.6 14.6 0 32.4 0" stroke-linecap="round" />
</g>
<g transform="matrix(2.93 0 0 3.36 664.97 540)"  >
<path style="stroke: none; stroke-width: 1; stroke-dasharray: none; stroke-linecap: butt; stroke-dashoffset: 0; stroke-linejoin: miter; stroke-miterlimit: 4; fill: rgb(0,15,87); fill-rule: evenodd; opacity: 1;" vector-effect="non-scaling-stroke"  transform=" translate(-215.97, -32.4)" d="M 333.1 32.4 C 333.90000000000003 28.599999999999998 336.6 24.7 341.1 24.7 C 345.6 24.7 346.6 28.599999999999998 345.70000000000005 32.4 C 344.90000000000003 36.3 342.30000000000007 40.199999999999996 337.70000000000005 40.199999999999996 C 333.1 40.2 332.2 36.3 333.1 32.4 M 328.4 32.4 C 327 39 329.79999999999995 43.599999999999994 337 43.599999999999994 C 344.1 43.599999999999994 349 38.89999999999999 350.5 32.39999999999999 C 351.9 25.89999999999999 348.9 21.29999999999999 341.9 21.29999999999999 C 334.6 21.3 329.8 25.7 328.4 32.4 M 308.9 43.2 L 313.4 43.2 L 315.29999999999995 34.2 L 316.79999999999995 34.2 C 318.69999999999993 34.2 319.09999999999997 34.800000000000004 319.4 36.400000000000006 L 320.59999999999997 43.10000000000001 L 325.59999999999997 43.10000000000001 L 323.79999999999995 34.60000000000001 C 323.59999999999997 33.60000000000001 323.09999999999997 32.50000000000001 321.9 32.400000000000006 L 321.9 32.300000000000004 C 324.9 31.900000000000006 327.09999999999997 29.800000000000004 327.59999999999997 27.300000000000004 C 328.9 21.300000000000004 323.09999999999997 21.400000000000006 318.29999999999995 21.400000000000006 L 313.4 21.400000000000006 L 308.9 43.2 z M 317.4 25 L 318.9 25 C 321.2 25 323.59999999999997 25.2 323.09999999999997 27.8 C 322.49999999999994 30.5 319.9 30.8 317.7 30.8 L 316.2 30.8 L 317.4 25 z M 290.3 43.2 L 298.2 43.2 C 301 43.2 306.3 42.400000000000006 307.5 36.900000000000006 C 308.1 34.2 306.4 32.300000000000004 303.4 32.00000000000001 L 303.4 31.900000000000006 C 306.2 31.400000000000006 308.4 29.600000000000005 308.9 27.100000000000005 C 309.9 22.400000000000006 305.79999999999995 21.600000000000005 302.79999999999995 21.600000000000005 L 295 21.600000000000005 L 290.3 43.2 z M 298.7 25 L 300.4 25 C 302.5 25 304.7 25.2 304.2 27.7 C 303.7 29.9 301.3 30.3 299.4 30.3 L 297.59999999999997 30.3 L 298.7 25 z M 296.9 33.6 L 299 33.6 C 301.3 33.6 303.5 34 302.9 36.9 C 302.4 39.4 299.7 39.9 297.59999999999997 39.9 L 295.49999999999994 39.9 L 296.9 33.6 z M 270.2 35.4 C 268.9 41.199999999999996 271.8 43.599999999999994 277.59999999999997 43.599999999999994 C 283.4 43.599999999999994 287.29999999999995 41.199999999999996 288.59999999999997 35.39999999999999 L 291.59999999999997 21.59999999999999 L 287 21.59999999999999 L 284.3 34.099999999999994 C 283.5 37.8 281.8 40.199999999999996 278.3 40.199999999999996 C 274.90000000000003 40.199999999999996 274.1 37.8 274.90000000000003 34.099999999999994 L 277.6 21.599999999999994 L 273.1 21.599999999999994 L 270.2 35.4 z M 251.1 32.4 C 251.9 28.599999999999998 254.6 24.7 259.1 24.7 C 263.6 24.7 264.6 28.599999999999998 263.70000000000005 32.4 C 262.90000000000003 36.3 260.30000000000007 40.199999999999996 255.70000000000005 40.199999999999996 C 251.1 40.2 250.3 36.3 251.1 32.4 M 246.4 32.4 C 245 39 247.8 43.599999999999994 255 43.599999999999994 C 262.1 43.599999999999994 267 38.89999999999999 268.5 32.39999999999999 C 269.9 25.89999999999999 266.9 21.29999999999999 259.9 21.29999999999999 C 252.7 21.3 247.9 25.7 246.4 32.4 M 234.6 43.2 L 239.1 43.2 L 243.1 25.000000000000004 L 249.5 25.000000000000004 L 250.2 21.600000000000005 L 232.79999999999998 21.600000000000005 L 232.1 25.000000000000004 L 238.5 25.000000000000004 L 234.6 43.2 z M 212.8 31.9 C 215.5 30.5 217.70000000000002 29.099999999999998 218.4 26.2 C 219.20000000000002 22.7 216.1 21.299999999999997 213 21.299999999999997 C 209.8 21.299999999999997 205.8 22.9 205.1 26.199999999999996 C 204.6 28.699999999999996 205.7 29.799999999999997 207.1 31.399999999999995 C 203.2 32.89999999999999 201.6 34.699999999999996 201.1 37.3 C 200.2 41.4 203.29999999999998 43.599999999999994 207.79999999999998 43.599999999999994 C 209.99999999999997 43.599999999999994 212.49999999999997 42.89999999999999 214.39999999999998 41.3 L 215.49999999999997 43.199999999999996 L 220.99999999999997 43.199999999999996 L 217.89999999999998 38.9 C 220.2 36.8 221.59999999999997 34.3 222.39999999999998 31.5 L 218.49999999999997 31.5 C 218.09999999999997 33.2 217.39999999999998 35 216.09999999999997 36.2 L 212.8 31.9 z M 210.8 29.6 C 210.10000000000002 28.8 209.10000000000002 27.700000000000003 209.3 26.5 C 209.60000000000002 24.9 211.10000000000002 24.2 212.4 24.2 C 213.70000000000002 24.2 214.70000000000002 24.9 214.4 26.4 C 214.2 27.8 212.1 29.1 210.8 29.6 M 212.8 39.1 C 211.60000000000002 40 210.10000000000002 40.4 208.60000000000002 40.4 C 206.50000000000003 40.4 205.10000000000002 39.1 205.50000000000003 37.199999999999996 C 205.90000000000003 35.49999999999999 207.30000000000004 34.49999999999999 209.00000000000003 33.699999999999996 L 212.8 39.1 z M 168.7 43.2 L 173 43.2 L 176.5 27.000000000000004 L 176.6 27.000000000000004 L 181.7 43.2 L 187.2 43.2 L 191.89999999999998 21.6 L 187.59999999999997 21.6 L 184.09999999999997 37.8 L 184 37.8 L 179 21.6 L 173.5 21.6 L 168.7 43.2 z M 152 43.2 L 165.3 43.2 L 166 39.800000000000004 L 157.2 39.800000000000004 L 158.5 33.7 L 166.5 33.7 L 167.2 30.300000000000004 L 159.2 30.300000000000004 L 160.39999999999998 25.000000000000004 L 169.2 25.000000000000004 L 169.89999999999998 21.600000000000005 L 156.59999999999997 21.600000000000005 L 152 43.2 z M 152.8 22 C 151.3 21.5 149.5 21.2 147.60000000000002 21.2 C 143.60000000000002 21.2 139.40000000000003 23 138.3 27.799999999999997 C 136.70000000000002 35 147 33.3 146.10000000000002 37.4 C 145.70000000000002 39.4 143.20000000000002 40.199999999999996 141.50000000000003 40.199999999999996 C 139.70000000000002 40.199999999999996 138.10000000000002 39.699999999999996 136.70000000000002 38.9 L 135.4 42.8 C 137.5 43.3 138.5 43.599999999999994 141 43.599999999999994 C 145.5 43.599999999999994 149.8 41.8 150.9 37.099999999999994 C 152.5 29.899999999999995 142.3 31.399999999999995 143.1 27.699999999999996 C 143.6 25.299999999999997 145.79999999999998 24.699999999999996 147.29999999999998 24.699999999999996 C 148.89999999999998 24.699999999999996 150.39999999999998 24.999999999999996 151.7 25.599999999999994 L 152.8 22 z M 117.5 43.2 L 122 43.2 L 123.9 34.2 L 125.4 34.2 C 127.30000000000001 34.2 127.7 34.800000000000004 128 36.400000000000006 L 129.2 43.10000000000001 L 134.2 43.10000000000001 L 132.39999999999998 34.60000000000001 C 132.2 33.60000000000001 131.7 32.50000000000001 130.49999999999997 32.400000000000006 L 130.49999999999997 32.300000000000004 C 133.39999999999998 31.900000000000006 135.69999999999996 29.800000000000004 136.19999999999996 27.300000000000004 C 137.49999999999997 21.300000000000004 131.69999999999996 21.400000000000006 126.89999999999996 21.400000000000006 L 121.99999999999996 21.400000000000006 L 117.5 43.2 z M 126 25 L 127.5 25 C 129.8 25 132.2 25.2 131.7 27.8 C 131.1 30.5 128.5 30.8 126.29999999999998 30.8 L 124.79999999999998 30.8 L 126 25 z M 94.6 43.2 L 99.3 43.2 L 102.3 38.2 L 111.39999999999999 38.2 L 112.3 43.2 L 117.3 43.2 L 113.2 21.6 L 108.10000000000001 21.6 L 94.6 43.2 z M 110.9 34.9 L 104.30000000000001 34.9 L 109.50000000000001 26 L 109.60000000000001 26 L 110.9 34.9 z M 81.1 43.2 L 94.3 43.2 L 95 39.800000000000004 L 86.3 39.800000000000004 L 90.3 21.600000000000005 L 85.8 21.600000000000005 L 81.1 43.2 z" stroke-linecap="round" />
</g>
</svg>