<?xml version="1.0" encoding="UTF-8" standalone="no" ?>
<!DOCTYPE svg PUBLIC "-//W3C//DTD SVG 1.1//EN" "http://www.w3.org/Graphics/SVG/1.1/DTD/svg11.dtd">
<svg xmlns="http://www.w3.org/2000/svg" xmlns:xlink="http://www.w3.org/1999/xlink" version="1.1" width="1080" height="1080" viewBox="0 0 1080 1080" xml:space="preserve">
<desc>Created with Fabric.js 5.2.4</desc>
<defs>
</defs>
<rect x="0" y="0" width="100%" height="100%" fill="transparent"></rect>
<g transform="matrix(1 0 0 1 540 540)" id="d34f9ec9-caa0-4c65-be30-fe0ebc772659"  >
</g>
<g transform="matrix(1 0 0 1 540 540)" id="a505a0c8-3f6f-4313-afb6-516bbe097f6f"  >
<rect style="stroke: none; stroke-width: 1; stroke-dasharray: none; stroke-linecap: butt; stroke-dashoffset: 0; stroke-linejoin: miter; stroke-miterlimit: 4; fill: rgb(255,255,255); fill-rule: nonzero; opacity: 1; visibility: hidden;" vector-effect="non-scaling-stroke"  x="-540" y="-540" rx="0" ry="0" width="1080" height="1080" />
</g>
<g transform="matrix(0 0 0 0 0 0)"  >
<g style=""   >
</g>
</g>
<g transform="matrix(0 0 0 0 0 0)"  >
<g style=""   >
</g>
</g>
<g transform="matrix(0 0 0 0 0 0)"  >
<g style=""   >
</g>
</g>
<g transform="matrix(1 0 0 1 50 50)"  >
<rect style="stroke: none; stroke-width: 1; stroke-dasharray: none; stroke-linecap: butt; stroke-dashoffset: 0; stroke-linejoin: miter; stroke-miterlimit: 4; fill: rgb(255,255,255); fill-opacity: 0; fill-rule: nonzero; opacity: 1;" vector-effect="non-scaling-stroke"  x="-50" y="-50" rx="0" ry="0" width="100" height="100" />
</g>
<g transform="matrix(1 0 0 1 540 540)"  >
<rect style="stroke: none; stroke-width: 1; stroke-dasharray: none; stroke-linecap: butt; stroke-dashoffset: 0; stroke-linejoin: miter; stroke-miterlimit: 4; fill: rgb(255,255,255); fill-rule: nonzero; opacity: 1; visibility: hidden;" vector-effect="non-scaling-stroke"  x="-540" y="-540" rx="0" ry="0" width="1080" height="1080" />
</g>
<g transform="matrix(4.02 0 0 3.64 540 575.24)"  >
<g style="" vector-effect="non-scaling-stroke"   >
		<g transform="matrix(1 0 0 1 -28.65 -9.7)"  >
<polygon style="stroke: none; stroke-width: 1; stroke-dasharray: none; stroke-linecap: butt; stroke-dashoffset: 0; stroke-linejoin: miter; stroke-miterlimit: 4; fill: rgb(35,31,32); fill-rule: nonzero; opacity: 1;" vector-effect="non-scaling-stroke"  points="-19.25,-18.1 -8.65,-18.1 -0.05,-4.1 8.65,-18.1 19.25,-18.1 19.25,18.1 9.25,18.1 9.25,-2.7 -0.05,11.5 -0.25,11.5 -9.45,-2.6 -9.45,18.1 -19.25,18.1 " />
</g>
		<g transform="matrix(1 0 0 1 2.35 -9.65)"  >
<rect style="stroke: none; stroke-width: 1; stroke-dasharray: none; stroke-linecap: butt; stroke-dashoffset: 0; stroke-linejoin: miter; stroke-miterlimit: 4; fill: rgb(35,31,32); fill-rule: nonzero; opacity: 1;" vector-effect="non-scaling-stroke"  x="-5.05" y="-18.15" rx="0" ry="0" width="10.1" height="36.3" />
</g>
		<g transform="matrix(1 0 0 1 31.25 -9.7)"  >
<path style="stroke: none; stroke-width: 1; stroke-dasharray: none; stroke-linecap: butt; stroke-dashoffset: 0; stroke-linejoin: miter; stroke-miterlimit: 4; fill: rgb(35,31,32); fill-rule: nonzero; opacity: 1;" vector-effect="non-scaling-stroke"  transform=" translate(-149.25, -25.5)" d="M 146.2 34.7 C 152.2 34.7 156.2 31.400000000000002 156.2 25.500000000000004 L 156.2 25.400000000000002 C 156.2 19.6 152.2 16.200000000000003 146.2 16.200000000000003 L 142.1 16.200000000000003 L 142.1 34.7 L 146.2 34.7 z M 132 7.4 L 146 7.4 C 159 7.4 166.5 14.9 166.5 25.299999999999997 L 166.5 25.4 C 166.5 35.9 158.9 43.599999999999994 145.8 43.599999999999994 L 132 43.599999999999994 L 132 7.4 z" stroke-linecap="round" />
</g>
		<g transform="matrix(1 0 0 1 66.3 -9.85)"  >
<path style="stroke: none; stroke-width: 1; stroke-dasharray: none; stroke-linecap: butt; stroke-dashoffset: 0; stroke-linejoin: miter; stroke-miterlimit: 4; fill: rgb(35,31,32); fill-rule: nonzero; opacity: 1;" vector-effect="non-scaling-stroke"  transform=" translate(-184.3, -25.35)" d="M 188.4 29.3 L 184.4 19 L 180.3 29.3 L 188.4 29.3 z M 179.5 7.1 L 189.2 7.1 L 204.6 43.6 L 193.79999999999998 43.6 L 191.2 37.1 L 177.2 37.1 L 174.6 43.6 L 164 43.6 L 179.5 7.1 z" stroke-linecap="round" />
</g>
		<g transform="matrix(1 0 0 1 102.2 -9.7)"  >
<path style="stroke: none; stroke-width: 1; stroke-dasharray: none; stroke-linecap: butt; stroke-dashoffset: 0; stroke-linejoin: miter; stroke-miterlimit: 4; fill: rgb(35,31,32); fill-rule: nonzero; opacity: 1;" vector-effect="non-scaling-stroke"  transform=" translate(-220.2, -25.5)" d="M 204.4 38.3 L 210 31.599999999999998 C 213.6 34.5 217.6 36 221.8 36 C 224.5 36 225.9 35.1 225.9 33.5 L 225.9 33.4 C 225.9 31.9 224.70000000000002 31.099999999999998 219.8 29.9 C 212.10000000000002 28.099999999999998 206.10000000000002 26 206.10000000000002 18.5 L 206.10000000000002 18.4 C 206.10000000000002 11.7 211.40000000000003 6.799999999999999 220.10000000000002 6.799999999999999 C 226.3 6.799999999999999 231.10000000000002 8.499999999999998 235.00000000000003 11.599999999999998 L 230.00000000000003 18.699999999999996 C 226.70000000000002 16.399999999999995 223.10000000000002 15.099999999999996 219.80000000000004 15.099999999999996 C 217.40000000000003 15.099999999999996 216.20000000000005 16.099999999999994 216.20000000000005 17.399999999999995 L 216.20000000000005 17.499999999999996 C 216.20000000000005 19.199999999999996 217.40000000000003 19.899999999999995 222.50000000000006 20.999999999999996 C 230.80000000000007 22.799999999999997 236.00000000000006 25.499999999999996 236.00000000000006 32.3 L 236.00000000000006 32.4 C 236.00000000000006 39.8 230.10000000000005 44.2 221.30000000000007 44.2 C 215 44.3 208.9 42.2 204.4 38.3" stroke-linecap="round" />
</g>
		<g transform="matrix(1 0 0 1 -88.15 0)"  >
<path style="stroke: none; stroke-width: 1; stroke-dasharray: none; stroke-linecap: butt; stroke-dashoffset: 0; stroke-linejoin: miter; stroke-miterlimit: 4; fill: rgb(190,23,29); fill-rule: nonzero; opacity: 1;" vector-effect="non-scaling-stroke"  transform=" translate(-29.85, -35.2)" d="M 52.4 32.9 L 15.2 53.7 L 8.1 49.6 L 37 33.3 L 29.9 29.199999999999996 L 7.3 42 L 7.3 12.6 L 29.900000000000002 25.299999999999997 L 52.400000000000006 12.599999999999998 L 52.400000000000006 32.9 z M 29.9 16.9 L 0 0 L 0 53.4 L 15.4 62.099999999999994 L 52.5 40.99999999999999 L 52.5 49.39999999999999 L 22.5 66.2 L 29.9 70.4 L 59.7 53.7 L 59.7 0 L 29.9 16.9 z" stroke-linecap="round" />
</g>
		<g transform="matrix(1 0 0 1 -41.95 22.4)"  >
<path style="stroke: none; stroke-width: 1; stroke-dasharray: none; stroke-linecap: butt; stroke-dashoffset: 0; stroke-linejoin: miter; stroke-miterlimit: 4; fill: rgb(190,23,29); fill-rule: nonzero; opacity: 1;" vector-effect="non-scaling-stroke"  transform=" translate(-76.05, -57.6)" d="M 69.8 62.6 L 72 60 C 73.4 61.1 75 61.7 76.6 61.7 C 77.69999999999999 61.7 78.3 61.300000000000004 78.3 60.7 L 78.3 60.7 C 78.3 60.1 77.8 59.800000000000004 75.89999999999999 59.300000000000004 C 72.89999999999999 58.6 70.49999999999999 57.7 70.49999999999999 54.800000000000004 L 70.49999999999999 54.800000000000004 C 70.49999999999999 52.1 72.59999999999998 50.2 75.99999999999999 50.2 C 78.39999999999999 50.2 80.29999999999998 50.900000000000006 81.89999999999999 52.1 L 79.89999999999999 54.9 C 78.6 54 77.19999999999999 53.5 75.89999999999999 53.5 C 74.89999999999999 53.5 74.49999999999999 53.9 74.49999999999999 54.4 L 74.49999999999999 54.4 C 74.49999999999999 55.1 74.99999999999999 55.3 76.99999999999999 55.8 C 80.29999999999998 56.5 82.29999999999998 57.599999999999994 82.29999999999998 60.3 L 82.29999999999998 60.3 C 82.29999999999998 63.199999999999996 79.99999999999999 65 76.49999999999999 65 C 73.9 65 71.5 64.2 69.8 62.6" stroke-linecap="round" />
</g>
		<g transform="matrix(1 0 0 1 -23.2 22.3)"  >
<path style="stroke: none; stroke-width: 1; stroke-dasharray: none; stroke-linecap: butt; stroke-dashoffset: 0; stroke-linejoin: miter; stroke-miterlimit: 4; fill: rgb(190,23,29); fill-rule: nonzero; opacity: 1;" vector-effect="non-scaling-stroke"  transform=" translate(-94.8, -57.5)" d="M 96.4 59.1 L 94.8 55 L 93.2 59.1 L 96.4 59.1 z M 92.9 50.3 L 96.7 50.3 L 102.8 64.7 L 98.5 64.7 L 97.5 62.1 L 92 62.1 L 91 64.7 L 86.8 64.7 L 92.9 50.3 z" stroke-linecap="round" />
</g>
		<g transform="matrix(1 0 0 1 -3.95 22.4)"  >
<polygon style="stroke: none; stroke-width: 1; stroke-dasharray: none; stroke-linecap: butt; stroke-dashoffset: 0; stroke-linejoin: miter; stroke-miterlimit: 4; fill: rgb(190,23,29); fill-rule: nonzero; opacity: 1;" vector-effect="non-scaling-stroke"  points="-5.75,-7.2 5.75,-7.2 5.75,-3.7 -1.75,-3.7 -1.75,-1.2 5.05,-1.2 5.05,2.1 -1.75,2.1 -1.75,7.2 -5.75,7.2 " />
</g>
		<g transform="matrix(1 0 0 1 13.5 22.4)"  >
<polygon style="stroke: none; stroke-width: 1; stroke-dasharray: none; stroke-linecap: butt; stroke-dashoffset: 0; stroke-linejoin: miter; stroke-miterlimit: 4; fill: rgb(190,23,29); fill-rule: nonzero; opacity: 1;" vector-effect="non-scaling-stroke"  points="-5.8,-7.2 5.7,-7.2 5.7,-3.8 -1.9,-3.8 -1.9,-1.6 5,-1.6 5,1.5 -1.9,1.5 -1.9,3.8 5.8,3.8 5.8,7.2 -5.8,7.2 " />
</g>
		<g transform="matrix(1 0 0 1 30.95 22.4)"  >
<polygon style="stroke: none; stroke-width: 1; stroke-dasharray: none; stroke-linecap: butt; stroke-dashoffset: 0; stroke-linejoin: miter; stroke-miterlimit: 4; fill: rgb(190,23,29); fill-rule: nonzero; opacity: 1;" vector-effect="non-scaling-stroke"  points="-1.95,-3.7 -6.25,-3.7 -6.25,-7.2 6.25,-7.2 6.25,-3.7 1.95,-3.7 1.95,7.2 -1.95,7.2 " />
</g>
		<g transform="matrix(1 0 0 1 49.15 22.4)"  >
<polygon style="stroke: none; stroke-width: 1; stroke-dasharray: none; stroke-linecap: butt; stroke-dashoffset: 0; stroke-linejoin: miter; stroke-miterlimit: 4; fill: rgb(190,23,29); fill-rule: nonzero; opacity: 1;" vector-effect="non-scaling-stroke"  points="-1.95,1.8 -7.45,-7.2 -2.85,-7.2 0.05,-1.9 3.05,-7.2 7.45,-7.2 2.05,1.7 2.05,7.2 -1.95,7.2 " />
</g>
</g>
</g>
</svg>