<?xml version="1.0" encoding="UTF-8" standalone="no" ?>
<!DOCTYPE svg PUBLIC "-//W3C//DTD SVG 1.1//EN" "http://www.w3.org/Graphics/SVG/1.1/DTD/svg11.dtd">
<svg xmlns="http://www.w3.org/2000/svg" xmlns:xlink="http://www.w3.org/1999/xlink" version="1.1" width="1080" height="1080" viewBox="0 0 1080 1080" xml:space="preserve">
<desc>Created with Fabric.js 5.2.4</desc>
<defs>
</defs>
<rect x="0" y="0" width="100%" height="100%" fill="transparent"></rect>
<g transform="matrix(1 0 0 1 540 540)" id="d34f9ec9-caa0-4c65-be30-fe0ebc772659"  >
</g>
<g transform="matrix(1 0 0 1 540 540)" id="a505a0c8-3f6f-4313-afb6-516bbe097f6f"  >
<rect style="stroke: none; stroke-width: 1; stroke-dasharray: none; stroke-linecap: butt; stroke-dashoffset: 0; stroke-linejoin: miter; stroke-miterlimit: 4; fill: rgb(255,255,255); fill-rule: nonzero; opacity: 1; visibility: hidden;" vector-effect="non-scaling-stroke"  x="-540" y="-540" rx="0" ry="0" width="1080" height="1080" />
</g>
<g transform="matrix(0 0 0 0 0 0)"  >
<g style=""   >
</g>
</g>
<g transform="matrix(0 0 0 0 0 0)"  >
<g style=""   >
</g>
</g>
<g transform="matrix(0 0 0 0 0 0)"  >
<g style=""   >
</g>
</g>
<g transform="matrix(1 0 0 1 50 50)"  >
<rect style="stroke: none; stroke-width: 1; stroke-dasharray: none; stroke-linecap: butt; stroke-dashoffset: 0; stroke-linejoin: miter; stroke-miterlimit: 4; fill: rgb(255,255,255); fill-opacity: 0; fill-rule: nonzero; opacity: 1;" vector-effect="non-scaling-stroke"  x="-50" y="-50" rx="0" ry="0" width="100" height="100" />
</g>
<g transform="matrix(1 0 0 1 540 540)"  >
<rect style="stroke: none; stroke-width: 1; stroke-dasharray: none; stroke-linecap: butt; stroke-dashoffset: 0; stroke-linejoin: miter; stroke-miterlimit: 4; fill: rgb(255,255,255); fill-rule: nonzero; opacity: 1; visibility: hidden;" vector-effect="non-scaling-stroke"  x="-540" y="-540" rx="0" ry="0" width="1080" height="1080" />
</g>
<g transform="matrix(6.03 0 0 6.03 903.64 555.2)"  >
<path style="stroke: none; stroke-width: 1; stroke-dasharray: none; stroke-linecap: butt; stroke-dashoffset: 0; stroke-linejoin: miter; stroke-miterlimit: 4; fill: rgb(209,107,30); fill-rule: evenodd; opacity: 1;" vector-effect="non-scaling-stroke"  transform=" translate(-156.64, -96.38)" d="M 178.582 96.378 C 178.582 110.914 168.75 122.715 156.641 122.715 C 144.52599999999998 122.715 134.694 110.914 134.694 96.378 C 134.694 81.842 144.52599999999998 70.042 156.641 70.042 C 168.75 70.042 178.582 81.842 178.582 96.378 z" stroke-linecap="round" />
</g>
<g transform="matrix(6.03 0 0 6.03 901.6 565.24)"  >
<path style="stroke: none; stroke-width: 1; stroke-dasharray: none; stroke-linecap: butt; stroke-dashoffset: 0; stroke-linejoin: miter; stroke-miterlimit: 4; fill: rgb(230,230,231); fill-rule: evenodd; opacity: 1;" vector-effect="non-scaling-stroke"  transform=" translate(-156.3, -98.04)" d="M 145.986 91.843 C 145.986 88.22 149.16799999999998 81.41900000000001 156.298 81.41900000000001 C 163.435 81.41900000000001 166.614 88.22000000000001 166.614 91.84300000000002 C 166.614 95.46300000000002 164.089 98.66200000000002 163.21200000000002 100.18100000000001 C 162.33100000000002 101.70100000000001 161.788 105.12 161.788 105.12 L 160.68800000000002 106.21600000000001 L 151.907 106.21600000000001 L 150.81300000000002 105.12 C 150.81300000000002 105.12 150.37400000000002 101.7 149.49900000000002 100.18100000000001 C 148.61900000000003 98.662 145.98600000000002 95.46300000000001 145.98600000000002 91.84300000000002 z M 151.908 106.875 L 160.689 106.875 L 160.689 108.41 L 160.136 109.178 L 152.458 109.178 L 151.907 108.41 L 151.907 106.875 L 151.90800000000002 106.875 z M 152.45899999999997 109.729 L 160.13699999999997 109.729 L 160.13699999999997 112.36 L 159.69899999999998 113.237 L 152.902 113.237 L 152.45899999999997 112.36 L 152.45899999999997 109.729 z M 154.21699999999998 113.895 L 158.385 113.895 L 157.947 114.666 L 154.654 114.666 L 154.21699999999998 113.895 z" stroke-linecap="round" />
</g>
<g transform="matrix(6.03 0 0 6.03 374.03 559.95)"  >
<path style="stroke: none; stroke-width: 1; stroke-dasharray: none; stroke-linecap: butt; stroke-dashoffset: 0; stroke-linejoin: miter; stroke-miterlimit: 4; fill: rgb(218,103,24); fill-rule: evenodd; opacity: 1;" vector-effect="non-scaling-stroke"  transform=" translate(-68.87, -97.16)" d="M 36.345 97.176 C 36.345 104.289 31.985 109.174 25.272 109.174 C 18.596999999999998 109.174 14.172999999999998 104.289 14.172999999999998 97.176 C 14.172999999999998 90.107 18.941 85.13 25.272 85.13 C 31.759999999999998 85.10499999999999 36.345 89.902 36.345 97.17599999999999 z M 30.875 97.131 C 30.875 93.449 29.218 89.902 25.271 89.902 C 21.276 89.902 19.596 93.605 19.596 97.152 C 19.596 100.677 21.409 104.289 25.246000000000002 104.289 C 29.107000000000003 104.289 30.875 100.518 30.875 97.131 z M 56.429 101.859 C 56.472 106.265 52.253 109.199 47.17100000000001 109.199 C 37.068000000000005 109.199 37.751000000000005 101.678 37.708000000000006 101.062 L 43.06400000000001 101.062 C 42.83500000000001 103.39999999999999 45.242000000000004 104.697 47.39600000000001 104.64999999999999 C 48.98400000000001 104.62899999999999 50.93600000000001 104.336 51.18500000000001 102.24399999999999 C 51.68500000000001 98.04099999999998 38.02300000000001 101.06199999999998 38.02300000000001 92.33699999999999 C 38.02300000000001 87.69699999999999 42.65200000000001 85.15499999999999 47.17000000000001 85.15499999999999 C 53.56700000000001 85.15499999999999 56.42800000000001 88.94699999999999 56.42800000000001 93.01699999999998 L 50.91300000000001 93.01699999999998 C 50.91300000000001 93.01699999999998 51.18400000000001 89.76699999999998 47.05400000000001 89.76699999999998 C 45.44300000000001 89.76699999999998 43.64900000000001 90.40099999999998 43.44900000000001 91.90299999999998 C 42.90000000000001 95.83299999999998 56.31200000000001 92.92399999999998 56.429000000000016 101.85899999999998 z M 77.575 93.60499999999999 C 77.575 96.92399999999999 75.96600000000001 99.51599999999999 72.95 100.90199999999999 L 76.762 108.51299999999999 L 70.93 108.51299999999999 L 67.546 101.243 L 64.09700000000001 101.243 L 64.09700000000001 108.51299999999999 L 58.784000000000006 108.51299999999999 L 58.784000000000006 85.791 L 70.403 85.791 C 74.492 85.791 77.575 89.223 77.575 93.60499999999999 z M 72.153 93.60499999999999 C 72.06500000000001 92.01499999999999 71.153 90.58299999999998 69.566 90.58299999999998 L 64.029 90.58299999999998 L 64.029 96.69799999999998 L 69.566 96.69799999999998 C 71.13 96.69699999999997 72.223 95.01699999999998 72.153 93.60499999999998 z M 100.24600000000001 108.514 L 94.6 108.514 L 93.23599999999999 104.61 L 84.29299999999999 104.61 L 82.93199999999999 108.514 L 77.24 108.514 L 85.49799999999999 85.76599999999999 L 91.98899999999999 85.76599999999999 L 100.246 108.514 z M 91.62500000000001 99.857 L 88.78700000000002 91.535 L 88.78700000000002 91.585 L 85.88700000000001 99.857 L 91.62500000000001 99.857 z M 123.57600000000002 108.537 L 118.02100000000002 108.537 L 117.99800000000002 95.994 L 112.43900000000002 105.289 L 106.87800000000001 96.336 L 106.87800000000001 108.537 L 101.13800000000002 108.537 L 101.13800000000002 85.766 L 107.01100000000002 85.81400000000001 L 112.32200000000003 95.039 L 117.95100000000004 85.81400000000001 L 123.57600000000004 85.766 L 123.57600000000004 108.537 z" stroke-linecap="round" />
</g>
</svg>