<?xml version="1.0" encoding="UTF-8" standalone="no" ?>
<!DOCTYPE svg PUBLIC "-//W3C//DTD SVG 1.1//EN" "http://www.w3.org/Graphics/SVG/1.1/DTD/svg11.dtd">
<svg xmlns="http://www.w3.org/2000/svg" xmlns:xlink="http://www.w3.org/1999/xlink" version="1.1" width="1080" height="1080" viewBox="0 0 1080 1080" xml:space="preserve">
<desc>Created with Fabric.js 5.2.4</desc>
<defs>
</defs>
<rect x="0" y="0" width="100%" height="100%" fill="transparent"></rect>
<g transform="matrix(1 0 0 1 540 540)" id="d34f9ec9-caa0-4c65-be30-fe0ebc772659"  >
</g>
<g transform="matrix(1 0 0 1 540 540)" id="a505a0c8-3f6f-4313-afb6-516bbe097f6f"  >
<rect style="stroke: none; stroke-width: 1; stroke-dasharray: none; stroke-linecap: butt; stroke-dashoffset: 0; stroke-linejoin: miter; stroke-miterlimit: 4; fill: rgb(255,255,255); fill-rule: nonzero; opacity: 1; visibility: hidden;" vector-effect="non-scaling-stroke"  x="-540" y="-540" rx="0" ry="0" width="1080" height="1080" />
</g>
<g transform="matrix(0 0 0 0 0 0)"  >
<g style=""   >
</g>
</g>
<g transform="matrix(0 0 0 0 0 0)"  >
<g style=""   >
</g>
</g>
<g transform="matrix(0 0 0 0 0 0)"  >
<g style=""   >
</g>
</g>
<g transform="matrix(1 0 0 1 50 50)"  >
<rect style="stroke: none; stroke-width: 1; stroke-dasharray: none; stroke-linecap: butt; stroke-dashoffset: 0; stroke-linejoin: miter; stroke-miterlimit: 4; fill: rgb(255,255,255); fill-opacity: 0; fill-rule: nonzero; opacity: 1;" vector-effect="non-scaling-stroke"  x="-50" y="-50" rx="0" ry="0" width="100" height="100" />
</g>
<g transform="matrix(1 0 0 1 540 540)"  >
<rect style="stroke: none; stroke-width: 1; stroke-dasharray: none; stroke-linecap: butt; stroke-dashoffset: 0; stroke-linejoin: miter; stroke-miterlimit: 4; fill: rgb(255,255,255); fill-rule: nonzero; opacity: 1; visibility: hidden;" vector-effect="non-scaling-stroke"  x="-540" y="-540" rx="0" ry="0" width="1080" height="1080" />
</g>
<g transform="matrix(5.55 0 0 5.55 540 540)"  >
<path style="stroke: none; stroke-width: 1; stroke-dasharray: none; stroke-linecap: butt; stroke-dashoffset: 0; stroke-linejoin: miter; stroke-miterlimit: 4; fill: rgb(0,161,227); fill-rule: evenodd; opacity: 1;" vector-effect="non-scaling-stroke"  transform=" translate(-96.38, -96.38)" d="M 39.611 79.109 L 52.765 79.109 C 52.765 79.109 62.712 79.26299999999999 62.712 90.428 C 62.712 101.05499999999999 52.548 101.747 52.548 101.747 L 47.311 101.747 L 47.311 108.216 L 39.611 108.216 L 39.611 79.109 z M 47.311 95.12599999999999 L 50.392 95.12599999999999 C 50.392 95.12599999999999 54.473000000000006 94.74099999999999 54.473000000000006 90.27499999999999 C 54.473000000000006 85.809 50.084 85.50099999999999 50.084 85.50099999999999 L 47.312000000000005 85.50099999999999 L 47.312000000000005 95.12599999999999 L 47.31100000000001 95.12599999999999 z M 144.201 79.109 L 157.6 79.109 C 157.6 79.109 167.303 79.725 167.303 90.428 C 167.303 100.13 157.524 101.747 157.524 101.747 L 151.903 101.747 L 151.903 108.216 L 144.202 108.216 L 144.202 79.109 L 144.201 79.109 z M 151.902 95.12599999999999 L 154.982 95.12599999999999 C 154.982 95.12599999999999 159.062 94.74099999999999 159.062 90.27499999999999 C 159.062 85.809 154.673 85.50099999999999 154.673 85.50099999999999 L 151.90200000000002 85.50099999999999 L 151.90200000000002 95.12599999999999 z M 66.1 79.341 L 73.723 79.341 L 73.723 89.967 L 81.809 89.967 L 81.809 79.341 L 89.124 79.341 L 89.124 108.217 L 81.886 108.217 L 81.886 96.512 L 73.8 96.512 L 73.8 108.217 L 66.1 108.217 L 66.1 79.341 z M 96.324 79.264 L 103.6 79.264 L 103.6 108.217 L 96.324 108.217 L 96.324 79.264 z M 129.896 79.264 L 137.17399999999998 79.264 L 137.17399999999998 108.217 L 129.896 108.217 L 129.896 79.264 z M 110.762 79.341 L 118.076 79.341 L 118.076 101.363 L 126.008 101.363 L 126.008 108.217 L 110.762 108.217 L 110.762 79.341 z M 186.688 79.032 C 186.688 79.032 183.838 78.64699999999999 181.22099999999998 78.64699999999999 C 177.21499999999997 78.64699999999999 170.20899999999997 79.725 170.13099999999997 88.04199999999999 C 170.13099999999997 88.04199999999999 169.61899999999997 94.55399999999999 176.75399999999996 96.35799999999999 C 183.45299999999997 98.05199999999999 181.95099999999996 99.39999999999999 182.14499999999995 99.59199999999998 C 182.14499999999995 99.59199999999998 182.29899999999995 101.66999999999999 177.21499999999995 101.66999999999999 C 172.13299999999995 101.66999999999999 170.97899999999996 100.74599999999998 170.97899999999996 100.74599999999998 L 170.97899999999996 107.52199999999998 C 170.97899999999996 107.52199999999998 172.15099999999995 108.03599999999997 177.13899999999995 108.44599999999998 C 183.68399999999994 108.98499999999999 189.92199999999994 106.14299999999999 189.92199999999994 99.12999999999998 C 189.92199999999994 96.35799999999998 188.53499999999994 91.89099999999998 182.14499999999995 90.35099999999998 C 178.05699999999996 89.36599999999999 177.49299999999997 88.19899999999998 177.52399999999994 87.65599999999999 C 177.52399999999994 87.65599999999999 177.34399999999994 85.321 181.99099999999996 85.42299999999999 C 186.30199999999996 85.51799999999999 186.76399999999995 86.11599999999999 186.76399999999995 86.11599999999999 L 186.68799999999996 79.03199999999998 z M 15.624 114.109 C 6.829000000000001 114.109 2.835000000000001 106.702 2.835000000000001 100.90799999999999 L 2.835000000000001 79.081 L 29.002000000000002 79.081 L 29.002000000000002 100.908 C 29.002000000000002 106.702 24.692000000000004 114.10900000000001 15.897000000000002 114.10900000000001 L 15.624000000000002 114.10900000000001 z M 15.784 113.357 C 24.059 113.357 28.232 106.351 28.232 100.9 L 28.232 79.832 L 3.605 79.832 L 3.605 100.9 C 3.605 106.351 7.481999999999999 113.357 15.757 113.357 L 15.783999999999999 113.357 z" stroke-linecap="round" />
</g>
<g transform="matrix(5.55 0 0 5.55 93.33 565.75)"  >
<path style="stroke: none; stroke-width: 1; stroke-dasharray: none; stroke-linecap: butt; stroke-dashoffset: 0; stroke-linejoin: miter; stroke-miterlimit: 4; fill: rgb(0,161,227); fill-rule: evenodd; opacity: 1;" vector-effect="non-scaling-stroke"  transform=" translate(-15.92, -101.02)" d="M 4.242 101.017 C 4.242 94.568 9.469999999999999 89.341 15.918 89.341 C 22.366 89.341 27.594 94.56899999999999 27.594 101.017 C 27.594 107.465 22.366 112.693 15.918000000000001 112.693 C 9.470000000000002 112.693 4.242000000000001 107.465 4.242000000000001 101.017 z M 15.918 112.006 C 21.987 112.006 26.907 107.086 26.907 101.017 C 26.907 94.948 21.987000000000002 90.02799999999999 15.918 90.02799999999999 C 9.849 90.02799999999999 4.9289999999999985 94.948 4.9289999999999985 101.017 C 4.9289999999999985 107.086 9.848999999999998 112.006 15.918 112.006 z" stroke-linecap="round" />
</g>
<g transform="matrix(5.55 0 0 5.55 63.27 535.53)"  >
<path style="stroke: none; stroke-width: 1; stroke-dasharray: none; stroke-linecap: butt; stroke-dashoffset: 0; stroke-linejoin: miter; stroke-miterlimit: 4; fill: rgb(0,161,227); fill-rule: evenodd; opacity: 1;" vector-effect="non-scaling-stroke"  transform=" translate(-10.5, -95.57)" d="M 10.503 91.271 L 11.16 94.916 L 14.805 95.573 L 11.16 96.22999999999999 L 10.503 99.87499999999999 L 9.846 96.22999999999999 L 6.2010000000000005 95.573 L 9.846 94.916 L 10.503 91.271 z" stroke-linecap="round" />
</g>
<g transform="matrix(5.55 0 0 5.55 105.5 562.73)"  >
<path style="stroke: none; stroke-width: 1; stroke-dasharray: none; stroke-linecap: butt; stroke-dashoffset: 0; stroke-linejoin: miter; stroke-miterlimit: 4; fill: rgb(0,161,227); fill-rule: evenodd; opacity: 1;" vector-effect="non-scaling-stroke"  transform=" translate(-18.11, -100.47)" d="M 13.235 90.091 L 13.652999999999999 92.40599999999999 L 15.967999999999998 92.824 L 13.652999999999999 93.241 L 13.235 95.557 L 12.818 93.241 L 10.501999999999999 92.824 L 12.817999999999998 92.40599999999999 L 13.234999999999998 90.091 z M 21.415 110.854 L 20.758 107.208 L 17.113 106.551 L 20.758 105.894 L 21.415 102.24900000000001 L 22.072 105.894 L 25.717 106.551 L 22.072 107.208 L 21.415 110.854 z" stroke-linecap="round" />
</g>
<g transform="matrix(5.55 0 0 5.55 93.14 589.67)"  >
<path style="stroke: none; stroke-width: 1; stroke-dasharray: none; stroke-linecap: butt; stroke-dashoffset: 0; stroke-linejoin: miter; stroke-miterlimit: 4; fill: rgb(0,161,227); fill-rule: evenodd; opacity: 1;" vector-effect="non-scaling-stroke"  transform=" translate(-15.88, -105.33)" d="M 18.683 112.033 L 18.265 109.718 L 15.949000000000002 109.3 L 18.265 108.883 L 18.683 106.567 L 19.1 108.883 L 21.416 109.3 L 19.1 109.718 L 18.683 112.033 z M 26.805 99.438 C 26.805 99.438 25.287 100.136 24.134 100.136 C 22.981 100.136 21.676000000000002 99.469 21.676000000000002 99.469 C 21.676000000000002 99.469 20.249000000000002 98.618 18.55 98.618 C 17.093 98.618 15.787 99.49799999999999 15.787 99.49799999999999 C 15.787 99.49799999999999 14.269 100.19599999999998 12.995000000000001 100.19599999999998 C 11.72 100.19599999999998 10.597000000000001 99.49799999999999 10.597000000000001 99.49799999999999 C 10.597000000000001 99.49799999999999 9.353000000000002 98.618 7.653000000000001 98.618 C 5.953000000000001 98.618 4.955000000000002 99.392 4.955000000000002 99.392 L 4.891000000000002 100.25699999999999 C 4.891000000000002 100.25699999999999 5.953000000000002 99.46 7.653000000000002 99.46 C 9.353000000000002 99.46 10.597000000000001 100.33999999999999 10.597000000000001 100.33999999999999 C 10.597000000000001 100.33999999999999 11.72 101.03799999999998 12.995000000000001 101.03799999999998 C 14.269000000000002 101.03799999999998 15.787 100.33999999999999 15.787 100.33999999999999 C 15.787 100.33999999999999 17.093 99.46 18.55 99.46 C 20.25 99.46 21.676000000000002 100.30999999999999 21.676000000000002 100.30999999999999 C 21.676000000000002 100.30999999999999 22.981 100.978 24.134 100.978 C 25.287 100.978 26.896 100.22699999999999 26.896 100.22699999999999 L 26.805 99.43799999999999 z M 26.917 102.018 C 26.917 102.018 25.288 102.785 24.135 102.785 C 22.982000000000003 102.785 21.677 102.11699999999999 21.677 102.11699999999999 C 21.677 102.11699999999999 20.25 101.267 18.551 101.267 C 17.093999999999998 101.267 15.787999999999998 102.14699999999999 15.787999999999998 102.14699999999999 C 15.787999999999998 102.14699999999999 14.269999999999998 102.84499999999998 12.995999999999999 102.84499999999998 C 11.720999999999998 102.84499999999998 10.597999999999999 102.14699999999999 10.597999999999999 102.14699999999999 C 10.597999999999999 102.14699999999999 9.354 101.267 7.653999999999999 101.267 C 5.953999999999999 101.267 4.850999999999999 102.04899999999999 4.850999999999999 102.04899999999999 L 4.8919999999999995 102.90599999999999 C 4.8919999999999995 102.90599999999999 5.954 102.109 7.654 102.109 C 9.354 102.109 10.597999999999999 102.98899999999999 10.597999999999999 102.98899999999999 C 10.597999999999999 102.98899999999999 11.720999999999998 103.68699999999998 12.995999999999999 103.68699999999998 C 14.27 103.68699999999998 15.787999999999998 102.98899999999999 15.787999999999998 102.98899999999999 C 15.787999999999998 102.98899999999999 17.093999999999998 102.109 18.551 102.109 C 20.250999999999998 102.109 21.677 102.95899999999999 21.677 102.95899999999999 C 21.677 102.95899999999999 22.982 103.627 24.134999999999998 103.627 C 25.287999999999997 103.627 26.897 102.875 26.897 102.875 L 26.916999999999998 102.018 z" stroke-linecap="round" />
</g>
<g transform="matrix(5.55 0 0 5.55 94.03 517.83)"  >
<path style="stroke: none; stroke-width: 1; stroke-dasharray: none; stroke-linecap: butt; stroke-dashoffset: 0; stroke-linejoin: miter; stroke-miterlimit: 4; fill: rgb(0,161,227); fill-rule: evenodd; opacity: 1;" vector-effect="non-scaling-stroke"  transform=" translate(-16.04, -92.38)" d="M 26.947 100.683 C 26.947 100.683 25.288 101.46100000000001 24.134999999999998 101.46100000000001 C 22.981999999999996 101.46100000000001 21.677 100.793 21.677 100.793 C 21.677 100.793 20.25 99.94200000000001 18.551 99.94200000000001 C 17.093999999999998 99.94200000000001 15.787999999999998 100.82300000000001 15.787999999999998 100.82300000000001 C 15.787999999999998 100.82300000000001 14.269999999999998 101.521 12.995999999999999 101.521 C 11.720999999999998 101.521 10.597999999999999 100.82300000000001 10.597999999999999 100.82300000000001 C 10.597999999999999 100.82300000000001 9.354 99.94200000000001 7.653999999999999 99.94200000000001 C 5.953999999999999 99.94200000000001 4.850999999999999 100.74300000000001 4.850999999999999 100.74300000000001 L 4.8919999999999995 101.58200000000001 C 4.8919999999999995 101.58200000000001 5.954 100.78500000000001 7.654 100.78500000000001 C 9.354 100.78500000000001 10.597999999999999 101.665 10.597999999999999 101.665 C 10.597999999999999 101.665 11.720999999999998 102.363 12.995999999999999 102.363 C 14.27 102.363 15.787999999999998 101.665 15.787999999999998 101.665 C 15.787999999999998 101.665 17.093999999999998 100.78500000000001 18.551 100.78500000000001 C 20.250999999999998 100.78500000000001 21.677 101.635 21.677 101.635 C 21.677 101.635 22.982 102.30300000000001 24.134999999999998 102.30300000000001 C 25.287999999999997 102.30300000000001 26.977999999999998 101.50200000000001 26.977999999999998 101.50200000000001 L 26.947 100.683 z M 4.665 82.476 L 6.694 82.476 C 6.694 82.476 8.163 82.569 8.163 84.19 C 8.163 85.65899999999999 6.682 85.904 6.682 85.904 L 5.831 85.904 L 5.831 86.883 L 4.665 86.883 L 4.665 82.476 z M 5.831 84.9 L 6.297000000000001 84.9 C 6.297000000000001 84.9 6.915000000000001 84.842 6.915000000000001 84.16600000000001 C 6.915000000000001 83.49000000000002 6.250000000000001 83.44300000000001 6.250000000000001 83.44300000000001 L 5.830000000000001 83.44300000000001 L 5.830000000000001 84.9 L 5.831000000000001 84.9 z M 20.501 82.476 L 22.53 82.476 C 22.53 82.476 23.999000000000002 82.569 23.999000000000002 84.19 C 23.999000000000002 85.65899999999999 22.518 85.904 22.518 85.904 L 21.667 85.904 L 21.667 86.883 L 20.501 86.883 L 20.501 82.476 z M 21.667 84.9 L 22.134 84.9 C 22.134 84.9 22.752 84.842 22.752 84.16600000000001 C 22.752 83.49000000000002 22.087 83.44300000000001 22.087 83.44300000000001 L 21.666999999999998 83.44300000000001 L 21.666999999999998 84.9 z M 8.676 82.511 L 9.83 82.511 L 9.83 84.119 L 11.054 84.119 L 11.054 82.511 L 12.162 82.511 L 12.162 86.883 L 11.066 86.883 L 11.066 85.11 L 9.842 85.11 L 9.842 86.883 L 8.676 86.883 L 8.676 82.511 z M 13.247 82.499 L 14.354 82.499 L 14.354 86.883 L 13.258 86.883 L 13.247 82.499 z M 18.33 82.499 L 19.438 82.499 L 19.438 86.883 L 18.340999999999998 86.883 L 18.33 82.499 z M 15.438 82.511 L 16.546 82.511 L 16.546 85.845 L 17.747 85.845 L 17.747 86.883 L 15.437999999999999 86.883 L 15.437999999999999 82.511 z M 26.934 82.464 C 26.934 82.464 26.503 82.40599999999999 26.106 82.40599999999999 C 25.5 82.40599999999999 24.439 82.56899999999999 24.427000000000003 83.82799999999999 C 24.427000000000003 83.82799999999999 24.35 84.814 25.430000000000003 85.08699999999999 C 26.445000000000004 85.344 26.217000000000002 85.54799999999999 26.246000000000002 85.57699999999998 C 26.246000000000002 85.57699999999998 26.269000000000002 85.89099999999998 25.499000000000002 85.89099999999998 C 24.730000000000004 85.89099999999998 24.555000000000003 85.75099999999998 24.555000000000003 85.75099999999998 L 24.555000000000003 86.77699999999997 C 24.555000000000003 86.77699999999997 24.732000000000003 86.85499999999998 25.488000000000003 86.91699999999997 C 26.479000000000003 86.99899999999997 27.424000000000003 86.56799999999997 27.424000000000003 85.50599999999997 C 27.424000000000003 85.08599999999997 27.214000000000002 84.40999999999997 26.246000000000002 84.17699999999998 C 25.627000000000002 84.02799999999998 25.512 83.85099999999998 25.546000000000003 83.76899999999998 C 25.583000000000002 83.68299999999998 25.569000000000003 83.43099999999998 26.222 83.43099999999998 C 26.875 83.43099999999998 26.945 83.53599999999999 26.945 83.53599999999999 L 26.934 82.46399999999998 z" stroke-linecap="round" />
</g>
</svg>