<?xml version="1.0" encoding="UTF-8"?>
<svg version="1.1" xmlns="http://www.w3.org/2000/svg" width="562" height="166">
<path d="M0 0 C50 0 50 0 59.65625 8.44921875 C64.63507687 13.96355898 65.51389241 19.94264351 65.38671875 27.11328125 C64.51139531 33.64726126 61.12969273 39.82025037 56 44 C57.0725 44.680625 58.145 45.36125 59.25 46.0625 C64.18842736 49.58137941 66.79119343 54.02439016 68 60 C68.78895267 67.93504321 67.20332319 74.5280968 62.9375 81.25 C58.27673008 86.33576413 51.57942532 88.68411494 45 90 C30.15 90 15.3 90 0 90 C0 60.3 0 30.6 0 0 Z M16 14 C16 21.92 16 29.84 16 38 C19.83625 38.061875 23.6725 38.12375 27.625 38.1875 C28.82334473 38.21481201 30.02168945 38.24212402 31.25634766 38.27026367 C37.94383068 38.32248331 42.63834749 37.91343218 47.875 33.375 C49.65645159 29.61415776 49.62728931 26.07738049 49 22 C47.06643352 18.13286704 44.94311501 16.77840794 41 15.37890625 C35.76647807 13.7094977 30.88437478 13.6578914 25.4375 13.8125 C22.323125 13.874375 19.20875 13.93625 16 14 Z M16 52 C16 60.25 16 68.5 16 77 C32.58535703 78.02290682 32.58535703 78.02290682 48 73.125 C51.04677076 69.88780606 51.86172425 68.06669867 52.4375 63.625 C51.87516093 58.96561915 50.36056016 57.21120194 47 54 C43.17747969 52.07060335 40.07769733 51.76278131 35.82421875 51.8046875 C34.66728516 51.81113281 33.51035156 51.81757812 32.31835938 51.82421875 C31.12017578 51.84097656 29.92199219 51.85773437 28.6875 51.875 C26.8612207 51.88853516 26.8612207 51.88853516 24.99804688 51.90234375 C21.99861353 51.92586872 18.99928156 51.96173844 16 52 Z " fill="#EE4028" transform="translate(489,6)"/>
<path d="M0 0 C1.875 2.75 1.875 2.75 2.5 5.75 C1.62801412 9.9355322 0.42030418 11.36234617 -3.125 13.75 C-6.20006793 13.88085395 -9.10227745 13.26945314 -12.125 12.75 C-20.85587203 12.0007658 -29.50703429 13.6745351 -36.52734375 19.16796875 C-42.93371384 25.51168485 -46.3899193 33.04689027 -46.5 42.0625 C-46.32583643 51.07802592 -43.30802029 57.40783369 -37.1640625 63.95703125 C-30.57218351 69.75333864 -22.84581939 72.18541894 -14.125 71.75 C-4.05636255 69.96292582 2.90327764 64.93849808 8.875 56.75 C12.73136804 50.3544037 12.59298744 43.002582 11.875 35.75 C11.21544215 33.41476492 11.21544215 33.41476492 10.3125 31.375 C8.66223889 27.21347198 8.69931435 25.03285487 9.875 20.75 C11.55184402 18.10235155 12.72638861 17.79522955 15.75 16.875 C19.73174677 16.71573013 20.92892669 17.03651143 23.875 19.75 C29.75390742 31.31053606 30.79250993 44.22256878 27.25 56.6875 C25.24426896 62.36806693 22.67756546 67.08563817 18.875 71.75 C18.32328125 72.43707031 17.7715625 73.12414062 17.203125 73.83203125 C10.80160551 80.98586607 0.45763562 87.11556136 -9.24047852 87.92700195 C-25.96434119 88.3797783 -38.30813469 86.26477127 -50.875 74.375 C-60.4600222 64.25747657 -63.53127571 52.20064471 -63.40234375 38.51953125 C-62.44585272 25.51933625 -56.51344174 15.39918799 -47.26171875 6.53515625 C-35.40075645 -3.3742766 -13.58837084 -9.783627 0 0 Z " fill="#009FDC" transform="translate(144.125,9.25)"/>
<path d="M0 0 C2.83203125 0.03255208 5.6640625 0.06510417 8.49609375 0.09765625 C12.4388046 7.66478898 15.80418513 15.4012294 19.05859375 23.28515625 C20.1862381 26.00237207 21.31723603 28.7181827 22.44921875 31.43359375 C22.90884758 32.53683739 22.90884758 32.53683739 23.37776184 33.66236877 C26.14709527 40.29414 28.9666207 46.90407797 31.79296875 53.51171875 C32.24796249 54.57632828 32.70295624 55.64093781 33.17173767 56.73780823 C35.00867836 61.03524945 36.8459314 65.33253952 38.68972778 69.62704468 C39.98897715 72.65368549 41.2839149 75.68213919 42.578125 78.7109375 C42.97437073 79.6303714 43.37061646 80.5498053 43.77886963 81.49710083 C44.13777283 82.33892914 44.49667603 83.18075745 44.86645508 84.0480957 C45.34058586 85.15360527 45.34058586 85.15360527 45.82429504 86.28144836 C46.49609375 88.09765625 46.49609375 88.09765625 46.49609375 90.09765625 C40.88609375 90.09765625 35.27609375 90.09765625 29.49609375 90.09765625 C27.18609375 84.48765625 24.87609375 78.87765625 22.49609375 73.09765625 C2.69609375 72.60265625 2.69609375 72.60265625 -17.50390625 72.09765625 C-18.49390625 75.39765625 -19.48390625 78.69765625 -20.50390625 82.09765625 C-21.77864731 84.79282306 -23.09331515 87.47103834 -24.50390625 90.09765625 C-30.11390625 90.09765625 -35.72390625 90.09765625 -41.50390625 90.09765625 C-36.48886676 77.20184043 -31.102957 64.52249325 -25.48452759 51.88241577 C-19.58482288 38.6092454 -13.83699284 25.27555296 -8.16381836 11.90405273 C-7.70492973 10.82613464 -7.70492973 10.82613464 -7.23677063 9.72644043 C-6.66281325 8.37820652 -6.09084168 7.02912494 -5.52116394 5.67907715 C-3.15322794 0.12298081 -3.15322794 0.12298081 0 0 Z M2.49609375 24.09765625 C0.82057214 27.97406841 -0.85167453 31.85187224 -2.52099609 35.73095703 C-3.08847297 37.0483948 -3.65681861 38.36545873 -4.22607422 39.68212891 C-5.04757733 41.58266413 -5.86587146 43.48455425 -6.68359375 45.38671875 C-7.17585449 46.52834473 -7.66811523 47.6699707 -8.17529297 48.84619141 C-9.41498154 51.88003419 -10.46751685 54.98848806 -11.50390625 58.09765625 C-2.26390625 58.09765625 6.97609375 58.09765625 16.49609375 58.09765625 C14.75323365 52.86907595 13.06404807 47.83115333 11.015625 42.75 C10.57412109 41.65107422 10.13261719 40.55214844 9.67773438 39.41992188 C9.22591797 38.30294922 8.77410156 37.18597656 8.30859375 36.03515625 C7.84517578 34.88337891 7.38175781 33.73160156 6.90429688 32.54492188 C5.77059655 29.72820251 4.63447874 26.91248478 3.49609375 24.09765625 C3.16609375 24.09765625 2.83609375 24.09765625 2.49609375 24.09765625 Z " fill="#EE4028" transform="translate(433.50390625,5.90234375)"/>
<path d="M0 0 C47.55822524 0 47.55822524 0 58.875 10.1875 C65.69077426 17.72835663 66.81845336 26.30228002 66.37890625 36.15234375 C65.59706605 44.09164891 62.99083048 50.06035282 57.0625 55.46484375 C49.92521612 60.77725391 42.8891382 63.14302122 34.04296875 63.09765625 C33.04031982 63.09515869 32.0376709 63.09266113 31.00463867 63.09008789 C29.74498291 63.08098389 28.48532715 63.07187988 27.1875 63.0625 C23.165625 63.041875 19.14375 63.02125 15 63 C15 71.91 15 80.82 15 90 C10.05 90 5.1 90 0 90 C0 60.3 0 30.6 0 0 Z M15 15 C15 26.22 15 37.44 15 49 C19.7025 49.0928125 19.7025 49.0928125 24.5 49.1875 C25.47130859 49.21481201 26.44261719 49.24212402 27.44335938 49.27026367 C34.04953153 49.33275086 39.8280009 48.70251916 45.05859375 44.24609375 C45.51363281 43.64925781 45.96867187 43.05242188 46.4375 42.4375 C46.91058594 41.83808594 47.38367187 41.23867188 47.87109375 40.62109375 C50.82804741 36.37494921 50.52651129 32.01690047 50 27 C48.65712428 22.70441561 46.28791817 19.90914637 42.4375 17.625 C38.36679915 15.70066869 35.55862439 14.87540228 31.11328125 14.90234375 C29.845448 14.90609009 29.845448 14.90609009 28.55200195 14.90991211 C27.48296631 14.91901611 26.41393066 14.92812012 25.3125 14.9375 C21.909375 14.958125 18.50625 14.97875 15 15 Z " fill="#EE4028" transform="translate(6,6)"/>
<path d="M0 0 C0.495 1.485 0.495 1.485 1 3 C-0.43359375 5.69921875 -0.43359375 5.69921875 -2.4375 8.6875 C-3.09621094 9.68136719 -3.75492187 10.67523437 -4.43359375 11.69921875 C-4.95050781 12.45847656 -5.46742188 13.21773437 -6 14 C-8.86470365 12.86687236 -11.68570779 11.69388045 -14.5 10.4375 C-24.02803713 6.52419904 -33.22128536 7.36881348 -42.875 10.61328125 C-49.34321822 13.48355308 -54.24019493 17.876703 -57.5 24.1875 C-60.64747865 32.54708779 -61.21302899 42.59177488 -58 51 C-54.65905678 58.04588025 -49.5888915 63.65357488 -42.375 66.8125 C-29.76869427 70.87669509 -17.68882635 68.57875803 -6 63 C-5.01364163 64.41166886 -4.03618745 65.82956184 -3.0625 67.25 C-2.51722656 68.03890625 -1.97195313 68.8278125 -1.41015625 69.640625 C-0.10377559 71.82636993 0.54980511 73.5153801 1 76 C-8.50338131 82.88927069 -17.5297223 84.26242408 -29.0625 84.375 C-29.98434082 84.38893799 -30.90618164 84.40287598 -31.85595703 84.41723633 C-44.62330202 84.32969532 -55.75382749 79.6390399 -65.1484375 71.01171875 C-74.01479978 61.37843484 -77.38524618 48.89161914 -77.2109375 36.0625 C-76.53038242 26.18184842 -73.78155497 18.02049047 -68 10 C-67.5359375 9.35289063 -67.071875 8.70578125 -66.59375 8.0390625 C-59.20382653 -1.36256235 -48.81186992 -5.38375105 -37.375 -7.75 C-24.65569828 -8.6921705 -10.74042034 -7.67507161 0 0 Z " fill="#EE4028" transform="translate(386,13)"/>
<path d="M0 0 C2.88012653 -0.24453905 5.739478 -0.42157916 8.625 -0.5625 C9.43324219 -0.63791016 10.24148437 -0.71332031 11.07421875 -0.79101562 C13.6292356 -0.88449185 15.56090349 -0.78081002 18 0 C20.71018856 2.58234948 22.24325266 5.72351789 24 9 C25.00013456 10.65429887 26.00073052 12.30834908 27.01156616 13.95613098 C28.45930745 16.32603885 29.87385034 18.71501744 31.28857422 21.10473633 C32.38922979 22.96150517 33.49719681 24.81378512 34.60546875 26.66601562 C35.30773594 27.84869464 36.00957529 29.03162783 36.7109375 30.21484375 C37.65912354 31.80993774 37.65912354 31.80993774 38.62646484 33.43725586 C40 36 40 36 40 38 C42.51786079 35.69564339 44.14498404 33.29741329 45.85546875 30.3515625 C46.65827271 28.97508545 46.65827271 28.97508545 47.47729492 27.57080078 C48.0416626 26.59868652 48.60603027 25.62657227 49.1875 24.625 C49.77700439 23.63870605 50.36650879 22.65241211 50.97387695 21.63623047 C53.50990709 17.38127736 55.99384649 13.18963585 58 8.65625 C59.73263179 5.03055755 60.9196874 2.5931934 64 0 C69.92740075 -1.47318845 76.0129103 -0.74838621 82 0 C80.26841436 4.9945736 77.54244689 9.31791331 74.8125 13.8125 C74.03422852 15.10256958 74.03422852 15.10256958 73.24023438 16.41870117 C68.27203989 24.62075723 63.18853455 32.75092915 58.07739258 40.86450195 C57.47435303 41.82316162 56.87131348 42.78182129 56.25 43.76953125 C55.71890625 44.61104736 55.1878125 45.45256348 54.640625 46.31958008 C53.82851563 47.64638794 53.82851563 47.64638794 53 49 C51.92830566 50.64307129 51.92830566 50.64307129 50.83496094 52.31933594 C48.67726042 56.13845939 48.39813219 59.79765995 48.390625 64.12109375 C48.37408875 64.86585464 48.35755249 65.61061554 48.34051514 66.37794495 C48.29235387 68.73121647 48.27073706 71.08384349 48.25 73.4375 C48.22181337 75.04365167 48.19188221 76.64977372 48.16015625 78.25585938 C48.0833519 82.17086018 48.04254338 86.08388146 48 90 C43.05 90 38.1 90 33 90 C33.12503906 87.79828125 33.25007813 85.5965625 33.37890625 83.328125 C34.20452736 61.44218605 30.16745221 47.88085731 17.36279297 30.30761719 C13.42866019 24.87391076 9.9704987 19.1363431 6.4375 13.4375 C5.78894043 12.42534424 5.14038086 11.41318848 4.47216797 10.37036133 C3.88193848 9.44247803 3.29170898 8.51459473 2.68359375 7.55859375 C2.16337646 6.74704834 1.64315918 5.93550293 1.10717773 5.09936523 C0 3 0 3 0 0 Z " fill="#EE4028" transform="translate(231,6)"/>
<path d="M0 0 C5.28 0 10.56 0 16 0 C16 25.08 16 50.16 16 76 C30.85 76 45.7 76 61 76 C61 80.62 61 85.24 61 90 C40.87 90 20.74 90 0 90 C0 60.3 0 30.6 0 0 Z " fill="#EE4028" transform="translate(184,6)"/>
<path d="M0 0 C1.875 2.75 1.875 2.75 2.5 5.75 C1.62801412 9.9355322 0.42030418 11.36234617 -3.125 13.75 C-6.20006793 13.88085395 -9.10227745 13.26945314 -12.125 12.75 C-20.84880839 12.00137196 -29.52990546 13.66447741 -36.53125 19.1796875 C-42.11576772 24.68207996 -45.1105422 31.27530131 -47.125 38.75 C-57.5 38.75 -57.5 38.75 -62.125 35.75 C-61.72720427 23.81612812 -56.32030885 14.93299883 -47.70703125 6.875 C-35.62322612 -3.06991678 -13.91757943 -10.02065719 0 0 Z " fill="#9F4E9F" transform="translate(144.125,9.25)"/>
<path d="M0 0 C6.9682606 7.54894899 7.69658706 18.15274655 7.34765625 27.9609375 C6.40694825 42.14236348 -0.61617304 52.7985964 -11 62 C-13.75 64.125 -13.75 64.125 -16 65 C-19.04389958 64.10473542 -20.962885 62.38664679 -23 60 C-23.73046875 57.73828125 -23.73046875 57.73828125 -24.1875 55.3125 C-24.34605469 54.50425781 -24.50460938 53.69601563 -24.66796875 52.86328125 C-24.77753906 52.24839844 -24.88710937 51.63351563 -25 51 C-24.32453125 50.443125 -23.6490625 49.88625 -22.953125 49.3125 C-16.34962773 43.66326534 -12.75812466 39.27437397 -10 31 C-9.57822421 25.07080575 -9.17583651 19.17208546 -11.5625 13.625 C-13.21276111 9.46347198 -13.17568565 7.28285487 -12 3 C-8.55626723 -1.49182535 -5.32480234 -1.37710405 0 0 Z " fill="#ED4229" transform="translate(166,27)"/>
<path d="M0 0 C2.35125 -0.061875 4.7025 -0.12375 7.125 -0.1875 C7.85348145 -0.21481201 8.58196289 -0.24212402 9.33251953 -0.27026367 C14.00299268 -0.32916712 17.05045158 0.54895671 21 3 C24.30079948 6.56138891 25.2750859 9.31718366 25.4375 14.0625 C25.25990701 18.14101486 24.7086601 20.8076506 22 24 C17.39352292 28.03066744 13.19899419 28.1334065 7.3125 28.0625 C3.6928125 28.0315625 3.6928125 28.0315625 0 28 C0 18.76 0 9.52 0 0 Z M5 5 C5 10.94 5 16.88 5 23 C11.95725102 23.63139083 11.95725102 23.63139083 18.125 21 C20.19618595 17.68610247 20.76001833 15.78224192 20.46875 11.9375 C19.58556388 8.28699736 18.120231 6.99694784 15 5 C11.55189604 4.59465037 8.49364097 4.7670906 5 5 Z " fill="#6D7176" transform="translate(14,132)"/>
<path d="M0 0 C5.62650684 1.12530137 5.62650684 1.12530137 8.078125 4.08984375 C8.59890625 4.70923828 9.1196875 5.32863281 9.65625 5.96679688 C10.1821875 6.61712891 10.708125 7.26746094 11.25 7.9375 C11.79140625 8.58396484 12.3328125 9.23042969 12.890625 9.89648438 C16.80300726 14.60601452 16.80300726 14.60601452 18 17 C18.33 11.39 18.66 5.78 19 0 C20.65 0 22.3 0 24 0 C24 9.24 24 18.48 24 28 C18.33364528 26.86672906 17.7986695 26.1224431 14.4375 21.75 C13.32181641 20.31914062 13.32181641 20.31914062 12.18359375 18.859375 C11.46300781 17.91578125 10.74242187 16.9721875 10 16 C8.68 14.35 7.36 12.7 6 11 C5.67 16.61 5.34 22.22 5 28 C3.35 28 1.7 28 0 28 C0 18.76 0 9.52 0 0 Z " fill="#6D7176" transform="translate(213,132)"/>
<path d="M0 0 C1.32 0 2.64 0 4 0 C6.18359375 2.1953125 6.18359375 2.1953125 8.4375 5.125 C9.17871094 6.07632813 9.91992188 7.02765625 10.68359375 8.0078125 C11.44800781 8.99523437 12.21242187 9.98265625 13 11 C14.65 12.98 16.3 14.96 18 17 C18.33 11.39 18.66 5.78 19 0 C20.65 0 22.3 0 24 0 C24 9.24 24 18.48 24 28 C18.375 26.875 18.375 26.875 15.66796875 23.62109375 C14.81235352 22.61079102 14.81235352 22.61079102 13.93945312 21.58007812 C13.36130859 20.87302734 12.78316406 20.16597656 12.1875 19.4375 C11.59001953 18.72658203 10.99253906 18.01566406 10.37695312 17.28320312 C8.90712878 15.53117251 7.45209581 13.766752 6 12 C5.67 17.28 5.34 22.56 5 28 C3.35 28 1.7 28 0 28 C0 18.76 0 9.52 0 0 Z " fill="#6D7176" transform="translate(186,132)"/>
<path d="M0 0 C16.82857143 0 16.82857143 0 22.3125 5.1875 C24.43958247 8.73263745 25.20206733 11.91202244 25 16 C23.52569482 20.65570057 21.80780618 23.90615748 18 27 C14.37918537 28.20693821 11.0749281 28.10782079 7.3125 28.0625 C3.6928125 28.0315625 3.6928125 28.0315625 0 28 C0 18.76 0 9.52 0 0 Z M5 5 C5 10.94 5 16.88 5 23 C13.35371403 23.82018335 13.35371403 23.82018335 17.0625 21 C19.20766662 17.67845169 19.7595293 15.82131981 19.47265625 11.9375 C18.59426669 8.33682874 17.05067422 6.99227704 14 5 C11.03 5 8.06 5 5 5 Z " fill="#6D7176" transform="translate(335,132)"/>
<path d="M0 0 C3.91433127 3.33869432 6.23993322 5.98276202 7.125 11.125 C7.4782473 16.16297938 6.07774343 19.7679061 3.125 23.8125 C-0.08947087 26.92956266 -3.0600604 27.0369115 -7.375 27.1875 C-11.69173744 27.0542316 -14.53103474 26.75113613 -17.875 23.8125 C-18.638125 23.1525 -19.40125 22.4925 -20.1875 21.8125 C-22.76130119 17.23685344 -22.62064414 12.94162789 -21.875 7.8125 C-17.54501911 -1.16820111 -9.12328185 -3.76831207 0 0 Z M-14.875 5.8125 C-17.33139458 9.49709187 -17.68384302 12.53480442 -16.875 16.8125 C-14.45402228 20.15914567 -12.78740083 21.50836639 -8.875 22.8125 C-5.26922343 22.8125 -3.73015989 21.95386992 -0.875 19.8125 C1.78553508 17.15196492 1.90983954 15.54194805 2.125 11.8125 C0.79626142 7.57714577 -0.35702426 6.14121538 -4.125 3.75 C-8.84625186 2.56968703 -10.73657526 3.3781325 -14.875 5.8125 Z " fill="#6D7176" transform="translate(176.875,133.1875)"/>
<path d="M0 0 C6.27 0 12.54 0 19 0 C19 1.65 19 3.3 19 5 C14.38 5 9.76 5 5 5 C5 7.31 5 9.62 5 12 C9.29 12 13.58 12 18 12 C18 13.32 18 14.64 18 16 C13.71 16 9.42 16 5 16 C5 18.64 5 21.28 5 24 C9.62 24 14.24 24 19 24 C19 25.32 19 26.64 19 28 C12.73 28 6.46 28 0 28 C0 18.76 0 9.52 0 0 Z " fill="#6D7176" transform="translate(240,132)"/>
<path d="M0 0 C6.27 0 12.54 0 19 0 C19 1.65 19 3.3 19 5 C14.38 5 9.76 5 5 5 C5 7.31 5 9.62 5 12 C8.96 12 12.92 12 17 12 C17 13.32 17 14.64 17 16 C13.04 16 9.08 16 5 16 C5 18.64 5 21.28 5 24 C9.62 24 14.24 24 19 24 C19 25.32 19 26.64 19 28 C12.73 28 6.46 28 0 28 C0 18.76 0 9.52 0 0 Z " fill="#6D7176" transform="translate(312,132)"/>
<path d="M0 0 C6.27 0 12.54 0 19 0 C19 1.65 19 3.3 19 5 C14.38 5 9.76 5 5 5 C5 7.31 5 9.62 5 12 C8.96 12 12.92 12 17 12 C17 13.32 17 14.64 17 16 C13.04 16 9.08 16 5 16 C5 18.64 5 21.28 5 24 C9.62 24 14.24 24 19 24 C19 25.32 19 26.64 19 28 C12.73 28 6.46 28 0 28 C0 18.76 0 9.52 0 0 Z " fill="#6D7176" transform="translate(42,132)"/>
<path d="M0 0 C2.3190918 0.15649414 2.3190918 0.15649414 5 1 C6.57739258 3.37670898 6.57739258 3.37670898 7.89453125 6.49609375 C8.37470703 7.61177734 8.85488281 8.72746094 9.34960938 9.87695312 C9.83236328 11.05193359 10.31511719 12.22691406 10.8125 13.4375 C11.31458984 14.60861328 11.81667969 15.77972656 12.33398438 16.98632812 C16 25.63014456 16 25.63014456 16 28 C14.02 28 12.04 28 10 28 C9.34 26.35 8.68 24.7 8 23 C4.04 22.67 0.08 22.34 -4 22 C-4.33 23.65 -4.66 25.3 -5 27 C-6 28 -6 28 -8.5625 28.0625 C-9.366875 28.041875 -10.17125 28.02125 -11 28 C-8.94661139 21.48529224 -6.50465317 15.21269971 -3.8125 8.9375 C-3.44447266 8.07189453 -3.07644531 7.20628906 -2.69726562 6.31445312 C-1.80127408 4.20829117 -0.90215345 2.10352808 0 0 Z M2 8 C0.68 11.3 -0.64 14.6 -2 18 C0.64 18 3.28 18 6 18 C5.39009109 14.44219804 4.4216319 11.3171411 3 8 C2.67 8 2.34 8 2 8 Z " fill="#6D7176" transform="translate(74,132)"/>
<path d="M0 0 C2.30859375 1.0234375 2.30859375 1.0234375 4 2 C3.34 3.32 2.68 4.64 2 6 C1.06027344 5.87431641 1.06027344 5.87431641 0.1015625 5.74609375 C-1.12433594 5.59333984 -1.12433594 5.59333984 -2.375 5.4375 C-3.59316406 5.28087891 -3.59316406 5.28087891 -4.8359375 5.12109375 C-7.04899186 4.81762672 -7.04899186 4.81762672 -9 6 C-9 6.99 -9 7.98 -9 9 C-8.31292969 9.25394531 -7.62585938 9.50789062 -6.91796875 9.76953125 C-6.01691406 10.11371094 -5.11585937 10.45789063 -4.1875 10.8125 C-2.84751953 11.31716797 -2.84751953 11.31716797 -1.48046875 11.83203125 C0.96876068 12.98529046 2.36198719 13.86369204 4 16 C4.62564474 20.22310199 4.44197752 22.2836916 2.1875 25.9375 C-2.39705298 28.90397546 -6.67108727 28.75446603 -12 28 C-14.33984375 26.97265625 -14.33984375 26.97265625 -16 26 C-15.625 24.0625 -15.625 24.0625 -15 22 C-14.34 21.67 -13.68 21.34 -13 21 C-12.2575 21.33 -11.515 21.66 -10.75 22 C-7.42503815 23.20907704 -5.39892549 22.79044779 -2 22 C-2.11872579 20.04437823 -2.11872579 20.04437823 -3 18 C-5.24275547 16.74912218 -5.24275547 16.74912218 -7.9375 15.9375 C-12.79369981 14.30945028 -12.79369981 14.30945028 -15 11 C-15.51940701 6.91894494 -15.67222913 4.87389788 -13.125 1.5625 C-8.77317951 -0.61341024 -4.78714632 -0.66942209 0 0 Z " fill="#6D7176" transform="translate(107,132)"/>
<path d="M0 0 C2.3359375 1.0234375 2.3359375 1.0234375 4 2 C3.67 3.32 3.34 4.64 3 6 C2.19175781 5.94199219 1.38351562 5.88398438 0.55078125 5.82421875 C-6.21980953 5.44048992 -6.21980953 5.44048992 -12.25 8.125 C-14.32658223 11.53652795 -14.73507826 13.07958262 -14 17 C-12.5714939 19.9315113 -12.5714939 19.9315113 -10 22 C-5.38742445 23.19585292 -1.62873326 23.0160634 3 22 C3.33 23.32 3.66 24.64 4 26 C-0.68150708 29.12100472 -5.52012752 28.57988069 -11 28 C-14.91271318 26.21525364 -16.47414901 24.77124813 -18.875 21.25 C-20.68608661 16.01797201 -20.68608661 11.98202799 -18.875 6.75 C-14.04281098 -0.33721056 -8.05564918 -1.04650427 0 0 Z " fill="#6D7176" transform="translate(280,132)"/>
<path d="M0 0 C0.85464844 -0.01417969 1.70929688 -0.02835938 2.58984375 -0.04296875 C5.20159303 0.20046444 6.81750652 0.8696732 9.0625 2.1875 C8.7325 3.5075 8.4025 4.8275 8.0625 6.1875 C7.24265625 6.14109375 6.4228125 6.0946875 5.578125 6.046875 C4.50046875 6.01078125 3.4228125 5.9746875 2.3125 5.9375 C1.24515625 5.89109375 0.1778125 5.8446875 -0.921875 5.796875 C-4.6165835 6.27546418 -5.67722987 7.29731852 -7.9375 10.1875 C-9.27123886 13.56630511 -9.03294312 14.91707783 -7.8125 18.375 C-6.16694296 21.22761733 -6.16694296 21.22761733 -3.8125 22.625 C0.26774299 23.42330841 3.98697963 22.84455557 8.0625 22.1875 C8.3925 23.5075 8.7225 24.8275 9.0625 26.1875 C4.37749388 29.31083741 -0.4542795 28.76048204 -5.9375 28.1875 C-10.13899435 26.34473932 -11.50530514 24.89853025 -13.875 21 C-15.17132397 16.34848458 -15.42595773 12.80741251 -13.9375 8.1875 C-10.27702982 2.33074771 -6.97910472 0.05247447 0 0 Z " fill="#6D7176" transform="translate(144.9375,131.8125)"/>
<path d="M0 0 C7.59 0 15.18 0 23 0 C23 1.65 23 3.3 23 5 C20.03 5 17.06 5 14 5 C14 12.59 14 20.18 14 28 C12.35 28 10.7 28 9 28 C9 20.41 9 12.82 9 5 C6.03 5 3.06 5 0 5 C0 3.35 0 1.7 0 0 Z " fill="#6D7176" transform="translate(287,132)"/>
<path d="M0 0 C0.59355614 2.64860427 0.74209269 5.29197322 1 8 C1.99 8.33 2.98 8.66 4 9 C5.1875 11.5625 5.1875 11.5625 6 14 C4.2097939 14.67057887 2.41778511 15.3363469 0.625 16 C-0.37273437 16.37125 -1.37046875 16.7425 -2.3984375 17.125 C-5 18 -5 18 -7 18 C-7.99 12.72 -8.98 7.44 -10 2 C-2.25 -1.125 -2.25 -1.125 0 0 Z " fill="#AD7872" transform="translate(142,79)"/>
<path d="M0 0 C3.96 1.98 3.96 1.98 8 4 C8.66 3.34 9.32 2.68 10 2 C10 2.66 10 3.32 10 4 C10.99 3.67 11.98 3.34 13 3 C13.99 3.33 14.98 3.66 16 4 C16 6.97 16 9.94 16 13 C15.01 13.33 14.02 13.66 13 14 C13 13.34 13 12.68 13 12 C12.09507813 12.2165625 12.09507813 12.2165625 11.171875 12.4375 C10.37265625 12.623125 9.5734375 12.80875 8.75 13 C7.96109375 13.185625 7.1721875 13.37125 6.359375 13.5625 C4 14 4 14 0 14 C0 9.38 0 4.76 0 0 Z " fill="#1599D5" transform="translate(81,44)"/>
<path d="M0 0 C1.65 0 3.3 0 5 0 C5 9.24 5 18.48 5 28 C3.35 28 1.7 28 0 28 C0 18.76 0 9.52 0 0 Z " fill="#6D7176" transform="translate(6,132)"/>
<path d="M0 0 C3.73907104 2.49271403 3.97913078 3.68093791 5 8 C5.15216356 11.00891171 5.12038111 13.99047214 5 17 C2.12240569 15.71004393 -0.02543367 14.48713812 -2 12 C-2.73046875 9.73828125 -2.73046875 9.73828125 -3.1875 7.3125 C-3.34605469 6.50425781 -3.50460938 5.69601563 -3.66796875 4.86328125 C-3.77753906 4.24839844 -3.88710937 3.63351563 -4 3 C-2.68 2.01 -1.36 1.02 0 0 Z " fill="#C36B5B" transform="translate(145,75)"/>
<path d="M0 0 C3.96 1.98 3.96 1.98 8 4 C8.66 3.34 9.32 2.68 10 2 C10 2.66 10 3.32 10 4 C10.99 3.67 11.98 3.34 13 3 C13.99 3.33 14.98 3.66 16 4 C16 5.65 16 7.3 16 9 C10.06997733 9.37851209 5.52760359 8.10575375 0 6 C0 4.02 0 2.04 0 0 Z " fill="#4D8DCA" transform="translate(81,44)"/>
<path d="M0 0 C5.49404762 10.56547619 5.49404762 10.56547619 5 16 C3.35 16.33 1.7 16.66 0 17 C-0.99 11.72 -1.98 6.44 -3 1 C-2.01 0.67 -1.02 0.34 0 0 Z " fill="#6792AE" transform="translate(135,80)"/>
<path d="M0 0 C0.99 0.33 1.98 0.66 3 1 C4.8621508 5.7300622 5.25833731 10.96242242 5 16 C3.35 16 1.7 16 0 16 C0 10.72 0 5.44 0 0 Z " fill="#4997BE" transform="translate(130,81)"/>
<path d="M0 0 C0.99 0.33 1.98 0.66 3 1 C3 1.99 3 2.98 3 4 C3.66 4 4.32 4 5 4 C5 5.65 5 7.3 5 9 C5.66 9 6.32 9 7 9 C7.33 10.98 7.66 12.96 8 15 C6.68 15.33 5.36 15.66 4 16 C2.07528683 10.66164461 0.60108576 5.65020618 0 0 Z " fill="#8F858E" transform="translate(136,80)"/>
<path d="M0 0 C1.98 0 3.96 0 6 0 C6 0.66 6 1.32 6 2 C8.97 2 11.94 2 15 2 C15.33 2.66 15.66 3.32 16 4 C13.89594609 4.16808419 11.79175242 4.33441948 9.6875 4.5 C8.51574219 4.5928125 7.34398438 4.685625 6.13671875 4.78125 C4.094806 4.92364989 2.0468721 5 0 5 C0 3.35 0 1.7 0 0 Z " fill="#2D95D2" transform="translate(81,50)"/>
<path d="M0 0 C2.0625 0.1875 2.0625 0.1875 4 1 C4.33 1.99 4.66 2.98 5 4 C4.67 4.66 4.34 5.32 4 6 C2.35 6 0.7 6 -1 6 C-1.625 4.125 -1.625 4.125 -2 2 C-1.34 1.34 -0.68 0.68 0 0 Z " fill="#6D7176" transform="translate(362,154)"/>
<path d="M0 0 C3 2 3 2 3.73046875 4.1640625 C3.88128906 4.97617188 4.03210938 5.78828125 4.1875 6.625 C4.34605469 7.44226563 4.50460938 8.25953125 4.66796875 9.1015625 C4.83232422 10.04128906 4.83232422 10.04128906 5 11 C4.01 11 3.02 11 2 11 C2 9.68 2 8.36 2 7 C1.34 7 0.68 7 0 7 C-0.38133299 5.0085944 -0.71325582 3.00720923 -1 1 C-0.67 0.67 -0.34 0.34 0 0 Z " fill="#D75A42" transform="translate(145,75)"/>
<path d="M0 0 C1.65 0.33 3.3 0.66 5 1 C4.67 2.65 4.34 4.3 4 6 C2.35 5.67 0.7 5.34 -1 5 C-0.67 3.35 -0.34 1.7 0 0 Z " fill="#6D7176" transform="translate(114,154)"/>
<path d="M0 0 C5.49404762 10.56547619 5.49404762 10.56547619 5 16 C4.34 16 3.68 16 3 16 C2.566875 14.453125 2.566875 14.453125 2.125 12.875 C1.44094059 10.44388238 0.68175273 8.12900748 -0.1875 5.75 C-1 3 -1 3 0 0 Z " fill="#7D8C9E" transform="translate(135,80)"/>
<path d="M0 0 C2.85793316 2.85793316 2.40799941 5.14665584 2.625 9.125 C2.69976562 10.40632813 2.77453125 11.68765625 2.8515625 13.0078125 C2.92503906 14.48894531 2.92503906 14.48894531 3 16 C2.01 16 1.02 16 0 16 C0 10.72 0 5.44 0 0 Z " fill="#279AC8" transform="translate(130,81)"/>
<path d="M0 0 C0.33 0 0.66 0 1 0 C1 1.65 1 3.3 1 5 C1.66 5 2.32 5 3 5 C3.33 6.98 3.66 8.96 4 11 C3.34 11 2.68 11 2 11 C0.19769832 7.17010894 -0.19622241 4.21878192 0 0 Z " fill="#9C8083" transform="translate(140,84)"/>
<path d="M0 0 C1.98 0 3.96 0 6 0 C6.33 0.99 6.66 1.98 7 3 C4.69 3 2.38 3 0 3 C0 2.01 0 1.02 0 0 Z " fill="#3B93D0" transform="translate(81,50)"/>
</svg>
