<?xml version="1.0" encoding="UTF-8" standalone="no" ?>
<!DOCTYPE svg PUBLIC "-//W3C//DTD SVG 1.1//EN" "http://www.w3.org/Graphics/SVG/1.1/DTD/svg11.dtd">
<svg xmlns="http://www.w3.org/2000/svg" xmlns:xlink="http://www.w3.org/1999/xlink" version="1.1" width="1080" height="1080" viewBox="0 0 1080 1080" xml:space="preserve">
<desc>Created with Fabric.js 5.2.4</desc>
<defs>
</defs>
<rect x="0" y="0" width="100%" height="100%" fill="transparent"></rect>
<g transform="matrix(1 0 0 1 540 540)" id="a505a0c8-3f6f-4313-afb6-516bbe097f6f"  >
<rect style="stroke: none; stroke-width: 1; stroke-dasharray: none; stroke-linecap: butt; stroke-dashoffset: 0; stroke-linejoin: miter; stroke-miterlimit: 4; fill: rgb(255,255,255); fill-rule: nonzero; opacity: 1; visibility: hidden;" vector-effect="non-scaling-stroke"  x="-540" y="-540" rx="0" ry="0" width="1080" height="1080" />
</g>
<g transform="matrix(1 0 0 1 540 540)" id="d34f9ec9-caa0-4c65-be30-fe0ebc772659"  >
</g>
<g transform="matrix(0 0 0 0 0 0)"  >
<g style=""   >
</g>
</g>
<g transform="matrix(0 0 0 0 0 0)"  >
<g style=""   >
</g>
</g>
<g transform="matrix(0 0 0 0 0 0)"  >
<g style=""   >
</g>
</g>
<g transform="matrix(1 0 0 1 50 50)"  >
<rect style="stroke: none; stroke-width: 1; stroke-dasharray: none; stroke-linecap: butt; stroke-dashoffset: 0; stroke-linejoin: miter; stroke-miterlimit: 4; fill: rgb(255,255,255); fill-opacity: 0; fill-rule: nonzero; opacity: 1;" vector-effect="non-scaling-stroke"  x="-50" y="-50" rx="0" ry="0" width="100" height="100" />
</g>
<g transform="matrix(1 0 0 1 540 540)"  >
<rect style="stroke: none; stroke-width: 1; stroke-dasharray: none; stroke-linecap: butt; stroke-dashoffset: 0; stroke-linejoin: miter; stroke-miterlimit: 4; fill: rgb(255,255,255); fill-rule: nonzero; opacity: 1; visibility: hidden;" vector-effect="non-scaling-stroke"  x="-540" y="-540" rx="0" ry="0" width="1080" height="1080" />
</g>
<g transform="matrix(1.18 0 0 1.18 540 561.59)"  >
<g style="" vector-effect="non-scaling-stroke"   >
		<g transform="matrix(4.5 0 0 4.5 -44.38 -55.53)"  >
<path style="stroke: none; stroke-width: 1; stroke-dasharray: none; stroke-linecap: butt; stroke-dashoffset: 0; stroke-linejoin: miter; stroke-miterlimit: 4; fill: rgb(0,158,77); fill-rule: nonzero; opacity: 1;" vector-effect="non-scaling-stroke"  transform=" translate(-84.35, -16.16)" d="M 22.852 9.168 C 18.628 7.292999999999999 16.109 6.5649999999999995 13.608 6.5649999999999995 C 10.983 6.5649999999999995 9.302 7.504999999999999 9.302 8.957999999999998 C 9.302 13.341999999999999 24.173000000000002 12.107999999999999 24.173000000000002 22.247999999999998 C 24.173000000000002 27.839 19.482000000000003 31.087999999999997 12.964000000000002 31.087999999999997 C 7.852000000000002 31.087999999999997 5.334000000000002 29.764999999999997 2.434000000000003 28.267999999999997 L 2.434000000000003 21.994999999999997 C 6.617000000000003 24.766999999999996 9.177000000000003 25.744999999999997 12.404000000000003 25.744999999999997 C 15.201000000000004 25.744999999999997 16.709000000000003 24.766999999999996 16.709000000000003 23.06 C 16.709000000000003 18.287 1.839000000000004 20.035 1.839000000000004 9.594 C 1.839000000000004 4.558999999999999 6.189000000000004 1.2249999999999996 12.964000000000004 1.2249999999999996 C 16.234000000000005 1.2249999999999996 19.184000000000005 1.9119999999999997 22.852000000000004 3.4889999999999994 z M 43.673 29.755 C 41.194 30.654999999999998 39.098 31.083 37.007000000000005 31.083 C 30.081000000000003 31.083 25.603000000000005 27.049 25.603000000000005 20.912 C 25.603000000000005 14.886999999999999 30.254000000000005 10.629999999999999 36.74900000000001 10.629999999999999 C 38.75600000000001 10.629999999999999 41.32100000000001 11.143999999999998 43.37200000000001 11.908 L 43.37200000000001 16.52 C 41.748000000000005 15.658 39.86800000000001 15.184999999999999 38.32900000000001 15.184999999999999 C 34.61200000000001 15.184999999999999 32.22100000000001 17.418999999999997 32.22100000000001 20.866999999999997 C 32.22100000000001 24.362999999999996 34.57100000000001 26.663999999999998 38.11400000000001 26.663999999999998 C 39.60900000000001 26.663999999999998 40.93800000000001 26.322 43.674000000000014 25.298 z M 97.673 18.652 C 97.927 15.914000000000001 99.517 14.332 101.952 14.332 C 104.346 14.332 105.968 15.959000000000001 106.224 18.652 z M 101.524 10.637 C 95.447 10.637 91.121 14.929 91.121 20.969 C 91.121 27.054000000000002 95.619 31.083000000000002 102.553 31.083000000000002 C 104.089 31.083000000000002 107.804 31.083000000000002 111.34299999999999 28.464000000000002 L 111.34299999999999 24.613000000000003 C 108.44399999999999 26.678000000000004 106.52699999999999 27.389000000000003 104.05199999999999 27.389000000000003 C 100.14599999999999 27.389000000000003 97.75699999999999 25.368000000000002 97.541 21.918000000000003 L 111.691 21.918000000000003 C 111.986 14.717000000000002 107.25800000000001 10.637000000000002 101.524 10.637000000000002 M 114.086 30.724000000000004 L 120.273 30.724000000000004 L 120.273 11.000000000000004 L 114.086 11.000000000000004 z M 137.492 25.333000000000006 C 136.203 26.493000000000006 135.13199999999998 26.958000000000006 133.81099999999998 26.958000000000006 C 130.897 26.958000000000006 129.05299999999997 24.560000000000006 129.05299999999997 20.967000000000006 C 129.05299999999997 17.029000000000007 130.89699999999996 14.759000000000006 134.01599999999996 14.759000000000006 C 135.13199999999998 14.759000000000006 136.58899999999997 15.273000000000005 137.49199999999996 15.917000000000005 z M 137.492 1.5890000000000057 L 137.492 11.865000000000006 C 135.821 11.057000000000006 134.154 10.630000000000006 132.35299999999998 10.630000000000006 C 126.70899999999997 10.630000000000006 122.80399999999997 14.802000000000007 122.80399999999997 20.838000000000008 C 122.80399999999997 26.744000000000007 126.70899999999997 31.088000000000008 132.00399999999996 31.088000000000008 C 134.10399999999996 31.088000000000008 135.72699999999998 30.538000000000007 137.49199999999996 29.13000000000001 L 137.49199999999996 30.71800000000001 L 143.67799999999997 30.71800000000001 L 143.67799999999997 1.5890000000000093 z M 152.837 18.652000000000005 C 153.094 15.914000000000005 154.676 14.332000000000004 157.107 14.332000000000004 C 159.504 14.332000000000004 161.143 15.959000000000005 161.399 18.652000000000005 z M 156.684 10.637000000000004 C 150.608 10.637000000000004 146.289 14.929000000000004 146.289 20.969000000000005 C 146.289 27.054000000000006 150.789 31.083000000000006 157.714 31.083000000000006 C 159.248 31.083000000000006 162.971 31.083000000000006 166.518 28.464000000000006 L 166.518 24.613000000000007 C 163.616 26.678000000000008 161.694 27.389000000000006 159.208 27.389000000000006 C 155.323 27.389000000000006 152.924 25.368000000000006 152.708 21.918000000000006 L 166.853 21.918000000000006 C 167.14700000000002 14.717000000000006 162.416 10.637000000000006 156.684 10.637000000000006" stroke-linecap="round" />
</g>
		<g transform="matrix(5.63 0 0 -5.63 251.64 -56.3)"  >
<path style="stroke: none; stroke-width: 1; stroke-dasharray: none; stroke-linecap: butt; stroke-dashoffset: 0; stroke-linejoin: miter; stroke-miterlimit: 4; fill: rgb(0,158,77); fill-rule: nonzero; opacity: 1;" vector-effect="non-scaling-stroke"  transform=" translate(-528.06, -114.44)" d="M 548.863 113.914 L 548.936 113.914 C 550.4050000000001 117.19800000000001 552.0500000000001 118.738 553.9590000000001 118.738 C 554.9480000000001 118.738 555.801 118.361 557.2370000000001 117.299 L 555.8750000000001 112.924 C 554.5750000000002 113.744 553.7210000000001 114.087 552.9360000000001 114.087 C 551.1200000000001 114.087 549.9580000000002 112.375 548.8630000000002 109.48100000000001 L 548.8630000000002 102.674 L 543.9070000000002 102.674 L 543.9070000000002 118.44900000000001 L 548.8630000000002 118.44900000000001 z M 504.42100000000005 125.07000000000001 C 504.886 123.84400000000001 504.04900000000004 122.13400000000001 502.55800000000005 121.254 C 501.06100000000004 120.375 499.47900000000004 120.65400000000001 499.01800000000003 121.88000000000001 C 498.548 123.108 499.38100000000003 124.82000000000001 500.87600000000003 125.69500000000001 C 502.369 126.57900000000001 503.95200000000006 126.299 504.42100000000005 125.07000000000001" stroke-linecap="round" />
</g>
		<g transform="matrix(4.5 0 0 4.5 87.47 -9.16)"  >
<path style="stroke: none; stroke-width: 1; stroke-dasharray: none; stroke-linecap: butt; stroke-dashoffset: 0; stroke-linejoin: miter; stroke-miterlimit: 4; fill: rgb(0,158,77); fill-rule: nonzero; opacity: 1;" vector-effect="non-scaling-stroke"  transform=" translate(-113.64, -26.46)" d="M 65.96 18.17 C 65.96 12.825000000000003 62.32699999999999 10.637 58.74199999999999 10.637 C 56.30399999999999 10.637 54.30099999999999 11.665000000000001 52.50799999999999 13.934000000000001 L 52.42299999999999 13.934000000000001 L 52.42299999999999 1.5900000000000016 L 46.22999999999999 1.5900000000000016 L 46.22999999999999 30.668 L 52.42399999999999 30.668 L 52.42399999999999 18.17 C 53.87299999999999 16.074 55.10999999999999 15.178 56.56199999999999 15.178 C 58.48799999999999 15.178 59.767999999999994 16.548000000000002 59.767999999999994 19.494 L 59.767999999999994 26.423000000000002 C 61.84499999999999 25.355 63.956999999999994 24.700000000000003 65.96 24.457 z M 81.494 10.630000000000003 C 78.972 10.630000000000003 77.04599999999999 11.568000000000003 75.074 13.823000000000002 L 75.074 11.000000000000002 L 68.884 11.000000000000002 L 68.884 24.404000000000003 C 71.028 24.618000000000002 73.764 25.602000000000004 75.074 27.227000000000004 L 75.074 18.015000000000004 C 76.702 15.573000000000004 77.857 14.759000000000004 79.39699999999999 14.759000000000004 C 81.151 14.759000000000004 82.48299999999999 15.917000000000003 82.48299999999999 18.698000000000004 L 82.48299999999999 30.673000000000002 L 88.67599999999999 30.673000000000002 L 88.67599999999999 18.185000000000002 C 88.67599999999999 12.377000000000002 84.573 10.630000000000003 81.49399999999999 10.630000000000003 M 92.09599999999999 36.337 L 84.89999999999999 36.337 L 84.89999999999999 41.449000000000005 L 91.83999999999999 41.449000000000005 L 91.83999999999999 43.64300000000001 L 84.89999999999999 43.64300000000001 L 84.89999999999999 48.91700000000001 L 92.30999999999999 48.91700000000001 L 92.30999999999999 51.10800000000001 L 82.487 51.10800000000001 L 82.487 34.14800000000001 L 92.095 34.14800000000001 z M 97.972 51.118 L 100.17599999999999 51.118 L 100.17599999999999 34.143 L 97.972 34.143 z M 111.08699999999999 41.61 C 112.64899999999999 41.61 113.618 42.687 113.69099999999999 44.378 L 108.07799999999999 44.378 C 108.38199999999999 42.612 109.39799999999998 41.61 111.08699999999999 41.61 z M 108.03799999999998 45.85 L 115.88899999999998 45.85 C 115.88899999999998 41.71 113.99899999999998 39.713 111.03699999999998 39.713 C 107.96399999999998 39.713 105.83099999999997 41.984 105.83099999999997 45.372 C 105.83099999999997 48.468 107.75799999999998 51.327 111.22799999999998 51.327 C 113.11899999999999 51.327 114.34199999999998 50.907 115.69599999999998 50.007999999999996 L 115.69599999999998 47.86299999999999 C 114.38799999999998 48.718999999999994 113.11899999999999 49.212999999999994 111.78399999999998 49.212999999999994 C 109.64899999999997 49.212999999999994 108.38199999999998 48.06799999999999 108.03799999999998 45.849 M 130.27999999999997 42.863 C 129.01299999999998 41.995 128.16699999999997 41.74 127.20199999999997 41.74 C 125.18399999999997 41.74 123.78699999999996 43.288000000000004 123.78699999999996 45.554 C 123.78699999999996 47.863 125.27399999999996 49.254000000000005 127.57099999999997 49.254000000000005 C 128.51599999999996 49.254000000000005 129.41599999999997 49.00900000000001 130.52699999999996 48.51200000000001 L 130.52699999999996 50.68500000000001 C 129.78399999999996 51.03500000000001 128.36899999999997 51.32700000000001 127.20199999999996 51.32700000000001 C 123.86399999999996 51.32700000000001 121.54799999999996 49.03200000000001 121.54799999999996 45.75200000000001 C 121.54799999999996 42.05000000000001 123.66399999999996 39.71300000000001 127.05099999999996 39.71300000000001 C 128.34399999999997 39.71300000000001 129.21399999999997 40.01400000000001 130.28099999999995 40.48300000000001 z M 140.32199999999997 39.927 L 143.85899999999998 39.927 L 143.85899999999998 41.913 L 140.32199999999997 41.913 L 140.32199999999997 47.653 C 140.32199999999997 48.967 141.27299999999997 49.347 141.91599999999997 49.347 C 142.71299999999997 49.347 143.53599999999997 49.068 144.42799999999997 48.517 L 144.42799999999997 50.584 C 143.65399999999997 51.010000000000005 142.46699999999996 51.327000000000005 141.73899999999998 51.327000000000005 C 139.33899999999997 51.327000000000005 138.12599999999998 49.837 138.12599999999998 47.819 L 138.12599999999998 41.913000000000004 L 136.182 41.913000000000004 L 136.182 41.667 L 140.32199999999997 37.615 z M 152.28699999999998 39.927 L 152.28699999999998 42.515 L 152.33199999999997 42.515 C 153.45599999999996 40.535000000000004 154.52399999999997 39.713 155.56399999999996 39.713 C 156.46199999999996 39.713 157.30199999999996 40.134 158.22599999999997 41.008 L 157.05799999999996 42.95 C 156.38699999999997 42.287000000000006 155.51899999999998 41.830000000000005 154.99599999999995 41.830000000000005 C 153.47799999999995 41.830000000000005 152.28599999999994 43.37200000000001 152.28599999999994 45.28300000000001 L 152.28599999999994 51.11800000000001 L 150.08599999999996 51.11800000000001 L 150.08599999999996 39.92700000000001 z M 180.80999999999997 42.863 C 179.53599999999997 41.995 178.68999999999997 41.74 177.71999999999997 41.74 C 175.70699999999997 41.74 174.31999999999996 43.288000000000004 174.31999999999996 45.554 C 174.31999999999996 47.863 175.80999999999997 49.254000000000005 178.09199999999996 49.254000000000005 C 179.03799999999995 49.254000000000005 179.93299999999996 49.00900000000001 181.05899999999997 48.51200000000001 L 181.05899999999997 50.68500000000001 C 180.30099999999996 51.03500000000001 178.88399999999996 51.32700000000001 177.71899999999997 51.32700000000001 C 174.38699999999997 51.32700000000001 172.06099999999998 49.03200000000001 172.06099999999998 45.75200000000001 C 172.06099999999998 42.05000000000001 174.18699999999998 39.71300000000001 177.57299999999998 39.71300000000001 C 178.86899999999997 39.71300000000001 179.73099999999997 40.01400000000001 180.80899999999997 40.48300000000001 z M 164.06799999999998 51.118 L 166.272 51.118 L 166.272 39.928000000000004 L 164.06799999999998 39.928000000000004 z" stroke-linecap="round" />
</g>
		<g transform="matrix(5.63 0 0 -5.63 56.65 59.33)"  >
<path style="stroke: none; stroke-width: 1; stroke-dasharray: none; stroke-linecap: butt; stroke-dashoffset: 0; stroke-linejoin: miter; stroke-miterlimit: 4; fill: rgb(0,158,77); fill-rule: nonzero; opacity: 1;" vector-effect="non-scaling-stroke"  transform=" translate(-493.41, -93.89)" d="M 541.047 98.507 C 541.219 98.075 540.918 97.464 540.388 97.153 C 539.854 96.84100000000001 539.289 96.941 539.128 97.37400000000001 C 538.9670000000001 97.811 539.259 98.41700000000002 539.7950000000001 98.72900000000001 C 540.3240000000001 99.04500000000002 540.8860000000001 98.94400000000002 541.047 98.50700000000002 M 462.13 97.78300000000002 C 461.819 97.78300000000002 461.688 97.73200000000001 461.561 97.59000000000002 C 461.51099999999997 97.53500000000001 461.491 97.47900000000001 461.47299999999996 97.36700000000002 L 459.89199999999994 91.37100000000002 C 459.52099999999996 89.26800000000003 456.93799999999993 87.16800000000002 453.5709999999999 87.16800000000002 L 448.88999999999993 87.16800000000002 L 449.70199999999994 90.24900000000002 L 452.70899999999995 90.24900000000002 C 453.01599999999996 90.24900000000002 453.256 90.36300000000003 453.45699999999994 90.58700000000002 C 453.53099999999995 90.67400000000002 453.62699999999995 90.81000000000002 453.63999999999993 90.95000000000002 L 454.8879999999999 96.18900000000002 C 455.2559999999999 98.29300000000002 457.4789999999999 100.61700000000002 460.8449999999999 100.61700000000002 L 465.6389999999999 100.61700000000002 L 465.0259999999999 97.78300000000002 z M 463.21 94.12900000000002 L 463.745 96.06900000000002 L 468.615 96.06900000000002 C 469.216 98.88200000000002 468.743 101.48800000000001 467.036 103.19500000000002 C 463.581 106.65000000000002 456.353 105.47600000000003 450.968 100.32400000000003 C 450.127 99.52400000000003 449.41700000000003 98.65900000000002 448.77000000000004 97.77500000000002 L 451.70200000000006 97.77500000000002 L 451.02000000000004 95.83100000000002 L 447.51700000000005 95.83100000000002 C 447.1820000000001 95.21800000000002 446.86800000000005 94.61000000000001 446.62800000000004 93.99300000000002 L 450.78200000000004 93.99300000000002 L 450.117 92.04900000000002 L 446.035 92.04900000000002 C 445.33700000000005 89.07900000000002 445.78200000000004 86.30900000000003 447.538 84.55000000000003 C 450.95 81.13900000000002 458.156 82.33800000000002 463.538 87.48900000000003 C 464.48 88.38500000000003 465.25800000000004 89.35200000000003 465.961 90.34500000000003 L 462.194 90.34500000000003 L 462.76800000000003 92.28500000000003 L 467.172 92.28500000000003 C 467.495 92.90200000000003 467.79200000000003 93.51200000000003 468.024 94.12900000000002 z" stroke-linecap="round" />
</g>
</g>
</g>
</svg>