<?xml version="1.0" encoding="UTF-8" standalone="no" ?>
<!DOCTYPE svg PUBLIC "-//W3C//DTD SVG 1.1//EN" "http://www.w3.org/Graphics/SVG/1.1/DTD/svg11.dtd">
<svg xmlns="http://www.w3.org/2000/svg" xmlns:xlink="http://www.w3.org/1999/xlink" version="1.1" width="1080" height="1080" viewBox="0 0 1080 1080" xml:space="preserve">
<desc>Created with Fabric.js 5.2.4</desc>
<defs>
</defs>
<rect x="0" y="0" width="100%" height="100%" fill="transparent"></rect>
<g transform="matrix(1 0 0 1 540 540)" id="a505a0c8-3f6f-4313-afb6-516bbe097f6f"  >
<rect style="stroke: none; stroke-width: 1; stroke-dasharray: none; stroke-linecap: butt; stroke-dashoffset: 0; stroke-linejoin: miter; stroke-miterlimit: 4; fill: rgb(255,255,255); fill-rule: nonzero; opacity: 1; visibility: hidden;" vector-effect="non-scaling-stroke"  x="-540" y="-540" rx="0" ry="0" width="1080" height="1080" />
</g>
<g transform="matrix(1 0 0 1 540 540)" id="d34f9ec9-caa0-4c65-be30-fe0ebc772659"  >
</g>
<g transform="matrix(0 0 0 0 0 0)"  >
<g style=""   >
</g>
</g>
<g transform="matrix(0 0 0 0 0 0)"  >
<g style=""   >
</g>
</g>
<g transform="matrix(0 0 0 0 0 0)"  >
<g style=""   >
</g>
</g>
<g transform="matrix(1 0 0 1 50 50)"  >
<rect style="stroke: none; stroke-width: 1; stroke-dasharray: none; stroke-linecap: butt; stroke-dashoffset: 0; stroke-linejoin: miter; stroke-miterlimit: 4; fill: rgb(255,255,255); fill-opacity: 0; fill-rule: nonzero; opacity: 1;" vector-effect="non-scaling-stroke"  x="-50" y="-50" rx="0" ry="0" width="100" height="100" />
</g>
<g transform="matrix(1 0 0 1 540 540)"  >
<rect style="stroke: none; stroke-width: 1; stroke-dasharray: none; stroke-linecap: butt; stroke-dashoffset: 0; stroke-linejoin: miter; stroke-miterlimit: 4; fill: rgb(255,255,255); fill-rule: nonzero; opacity: 1; visibility: hidden;" vector-effect="non-scaling-stroke"  x="-540" y="-540" rx="0" ry="0" width="1080" height="1080" />
</g>
<g transform="matrix(0.4 0 0 0.4 540 585.48)"  >
<g style="" vector-effect="non-scaling-stroke"   >
		<g transform="matrix(18.03 0 0 18.03 693.71 181.21)"  >
<path style="stroke: none; stroke-width: 1; stroke-dasharray: none; stroke-linecap: butt; stroke-dashoffset: 0; stroke-linejoin: miter; stroke-miterlimit: 4; fill: rgb(179,45,44); fill-rule: nonzero; opacity: 1;" vector-effect="non-scaling-stroke"  transform=" translate(-107.71, -26.65)" d="M 112.797 20.102 L 99.674 33.207 L 102.62400000000001 33.207 L 115.74700000000001 20.102 z" stroke-linecap="round" />
</g>
		<g transform="matrix(18.03 0 0 18.03 0 -130.43)"  >
<path style="stroke: none; stroke-width: 1; stroke-dasharray: none; stroke-linecap: butt; stroke-dashoffset: 0; stroke-linejoin: miter; stroke-miterlimit: 4; fill: rgb(6,29,71); fill-rule: nonzero; opacity: 1;" vector-effect="non-scaling-stroke"  transform=" translate(-69.23, -9.37)" d="M 136.524 7.514 C 136.524 7.735 136.425 7.8870000000000005 136.226 7.9670000000000005 C 136.119 8.01 135.959 8.029 135.744 8.029 L 135.281 8.029 L 135.281 6.99 L 135.717 6.99 C 136.001 6.99 136.204 7.023000000000001 136.334 7.094 C 136.459 7.1690000000000005 136.524 7.305000000000001 136.524 7.513 z M 134.774 6.641 L 134.774 9.525 L 135.281 9.525 L 135.281 8.392 L 135.68200000000002 8.392 C 135.95200000000003 8.392 136.14200000000002 8.42 136.24800000000002 8.482 C 136.431 8.59 136.51800000000003 8.812 136.51800000000003 9.142 L 136.51800000000003 9.366999999999999 L 136.53100000000003 9.462 C 136.53100000000003 9.477 136.53600000000003 9.485999999999999 136.53600000000003 9.496 C 136.54100000000003 9.505 136.54100000000003 9.515 136.54600000000002 9.525 L 137.02 9.525 L 137.001 9.486 C 136.98668602952839 9.436933412906612 136.9792814483845 9.386111060510054 136.979 9.335 C 136.97363868129304 9.264787255996845 136.9706369893365 9.194414255682467 136.97000000000003 9.124 L 136.97000000000003 8.91 C 136.96454457813738 8.750132841845444 136.90930757567455 8.595958676743505 136.81200000000004 8.469 C 136.71000000000004 8.311 136.54600000000005 8.216999999999999 136.31600000000003 8.18 C 136.46455612547996 8.165976702748335 136.60807702309395 8.118819836389449 136.73600000000002 8.042 C 136.924 7.922 137.01700000000002 7.732 137.01700000000002 7.4719999999999995 C 137.01700000000002 7.109999999999999 136.86900000000003 6.866999999999999 136.56900000000002 6.744999999999999 C 136.401 6.674999999999999 136.14100000000002 6.640999999999999 135.782 6.640999999999999 z M 135.831 5.835 C 136.45399999999998 5.835 136.99099999999999 6.059 137.43099999999998 6.496 C 137.87099999999998 6.94 138.08999999999997 7.472 138.08999999999997 8.095 C 138.1003885607514 8.697565268676092 137.8620079333813 9.27778154530988 137.43099999999998 9.699000000000002 C 136.99399999999997 10.142000000000001 136.45899999999997 10.364 135.831 10.364 C 135.203 10.364 134.66799999999998 10.142000000000001 134.22899999999998 9.699000000000002 C 133.7995864046148 9.27670809661631 133.56149993683712 8.697207801752256 133.57 8.095000000000002 C 133.57 7.472000000000002 133.793 6.940000000000002 134.231 6.496000000000002 C 134.671 6.059000000000002 135.206 5.835000000000003 135.831 5.835000000000003 z M 138.46499999999997 8.091 C 138.46499999999997 7.363999999999999 138.20699999999997 6.744999999999999 137.69099999999997 6.235999999999999 C 137.20402930857654 5.736364977839486 136.53260020718105 5.459617530335416 135.83499999999998 5.471 C 135.10999999999999 5.470999999999999 134.49399999999997 5.725999999999999 133.98 6.235999999999999 C 133.48078472560616 6.722999557818422 133.20348521577822 7.393652218484448 133.213 8.091000000000001 C 133.213 8.821 133.463 9.44 133.97299999999998 9.953999999999999 C 134.48299999999998 10.466999999999999 135.10299999999998 10.725999999999999 135.83499999999998 10.725999999999999 C 136.55899999999997 10.725999999999999 137.18099999999998 10.466999999999999 137.69099999999997 9.953999999999999 C 138.19563049040653 9.466824295090396 138.47585204455729 8.792337531029855 138.46499999999997 8.091 z M 23.259 6.38 C 24.609 6.38 24.795 7.71 24.771 10.530000000000001 L 24.764 11.035000000000002 L 21.753999999999998 11.035000000000002 L 21.746 10.530000000000001 C 21.721 7.710000000000001 21.910999999999998 6.380000000000001 23.259 6.380000000000001 M 25.425 14.332 C 25.489 16.698 24.793 17.143 23.584 17.143 C 21.913 17.143 21.683 15.681000000000001 21.713 12.516000000000002 L 30.435000000000002 12.516000000000002 L 30.431 11.676000000000002 C 30.431 6.213000000000002 28.955000000000002 4.992000000000002 23.449 4.936000000000002 C 17.576 4.936000000000002 16.029000000000003 6.067000000000002 16.029000000000003 11.680000000000001 C 16.029000000000003 17.285000000000004 17.591000000000005 18.747 23.403000000000002 18.738 C 28.863000000000003 18.727999999999998 30.410000000000004 17.498 30.415000000000003 14.326 z M 0 0.005 L 0 4.219 C 0 4.219 2.579 4.227 2.579 4.219 C 2.648 3.8020000000000005 2.754 3.2410000000000005 2.9000000000000004 2.6800000000000006 C 3.0300000000000002 2.1840000000000006 3.3200000000000003 1.8400000000000007 3.9880000000000004 1.7070000000000007 C 5.210000000000001 1.4670000000000007 7.040000000000001 1.5050000000000008 7.040000000000001 1.5050000000000008 L 7.0440000000000005 1.4960000000000009 L 7.0440000000000005 12.874 C 7.0440000000000005 12.874 7.056 14.699 6.808000000000001 15.447000000000001 C 6.533 16.274 6.178000000000001 16.751 5.535000000000001 16.93 C 4.923000000000001 17.099 4.2010000000000005 17.059 4.2010000000000005 17.059 L 4.2010000000000005 18.292 L 15.68 18.292 L 15.68 17.047 C 15.68 17.047 14.961 17.080000000000002 14.334 16.924 C 13.689 16.759999999999998 13.336 16.27 13.059 15.443999999999999 C 12.812 14.699 12.824 12.87 12.824 12.87 L 12.824 1.496 C 12.824 1.496 14.654 1.462 15.876 1.7 C 16.544 1.8359999999999999 16.834 2.1799999999999997 16.964 2.675 C 17.11 3.2359999999999998 17.215999999999998 3.7969999999999997 17.284 4.2139999999999995 C 17.284 4.218999999999999 19.887999999999998 4.2139999999999995 19.887999999999998 4.2139999999999995 L 19.887999999999998 0 z M 79.151 17.116999999999997 C 77.479 17.116999999999997 77.271 15.711999999999998 77.276 12.556999999999999 L 77.28 10.906999999999998 C 77.283 7.768999999999998 77.481 6.349999999999998 79.154 6.349999999999998 C 80.825 6.349999999999998 81.02499999999999 7.768999999999998 81.02799999999999 10.905999999999999 L 81.026 12.556999999999999 C 81.02499999999999 15.761 80.825 17.116999999999997 79.151 17.116999999999997 z M 79.143 18.714999999999996 C 84.768 18.714999999999996 86.741 16.934999999999995 86.741 11.631999999999996 C 86.741 6.751999999999996 84.831 4.911999999999996 79.143 4.911999999999996 L 79.166 4.911999999999996 C 73.476 4.911999999999996 71.565 6.751999999999996 71.565 11.631999999999996 C 71.565 16.934999999999995 73.53999999999999 18.714999999999996 79.166 18.714999999999996 z M 106.92699999999999 18.291999999999998 L 113.794 18.296999999999997 L 113.794 5.27 L 106.929 5.27 L 106.929 6.51 C 106.929 6.51 107.565 6.467 107.999 6.906 C 108.36399999999999 7.274 108.271 8.174999999999999 108.271 8.174999999999999 L 108.271 15.372 C 108.271 15.372 108.327 16.245 107.999 16.642 C 107.741 16.945 107.21499999999999 17.038999999999998 106.92099999999999 17.059 z M 108.27099999999999 3.456999999999997 L 113.79199999999999 3.456999999999997 L 113.79199999999999 0.192 L 108.27199999999999 0.192 z M 120.41999999999999 12.711999999999998 L 114.73499999999999 18.296999999999997 L 117.79499999999999 18.296999999999997 L 121.72899999999998 14.366999999999997 L 124.53999999999999 18.291999999999998 L 131.807 18.291999999999998 L 131.807 17.06 C 131.807 17.06 130.667 17.2 130.13299999999998 16.663 C 129.94699999999997 16.478 125.80999999999997 10.781 125.80999999999997 10.781 L 131.41099999999997 5.271000000000001 L 128.35099999999997 5.266000000000001 L 124.48099999999997 9.147 L 124.52499999999996 9.147 L 121.63899999999997 5.271000000000001 L 114.83499999999997 5.271000000000001 L 114.83499999999997 6.506000000000001 C 114.83499999999997 6.506000000000001 115.68899999999996 6.517000000000001 116.19399999999996 6.996000000000001 C 116.58199999999997 7.360000000000001 117.01599999999996 7.992000000000001 117.01599999999996 7.992000000000001 L 120.45699999999997 12.705000000000002 z M 105.72699999999999 17.052 C 105.591 17.027 105.02099999999999 16.945 104.78099999999999 16.652 C 104.452 16.252000000000002 104.51899999999999 15.384 104.51899999999999 15.384 L 104.511 9.034 C 104.511 7.444000000000001 104.487 4.859000000000001 100.005 4.859000000000001 C 96.47099999999999 4.859000000000001 95.223 6.712000000000001 95.223 6.712000000000001 L 95.223 5.265 L 87.81 5.265 L 87.81 6.516 C 87.81 6.516 89.062 6.406 89.485 6.912 C 89.818 7.306 89.763 8.18 89.763 8.18 L 89.74900000000001 15.392 C 89.74900000000001 15.392 89.81800000000001 16.255 89.48500000000001 16.652 C 89.04200000000002 17.184 87.81000000000002 17.047 87.81000000000002 17.047 L 87.81000000000002 18.292 L 96.62800000000001 18.292 L 96.62800000000001 17.047 C 96.62800000000001 17.047 95.87200000000001 17.124000000000002 95.52900000000001 16.709 C 95.20000000000002 16.307 95.269 15.384 95.269 15.384 L 95.269 9.807 C 95.263 9.534 95.09 7.449 97.21900000000001 7.444000000000001 C 99.17500000000001 7.444000000000001 98.94900000000001 9.534 98.94000000000001 9.811 L 98.94000000000001 15.384 C 98.94000000000001 15.384 99.00900000000001 16.477 98.66700000000002 16.812 C 98.36000000000001 17.105 97.77300000000001 17.047 97.77300000000001 17.047 L 97.77300000000001 18.292 L 105.72600000000001 18.292 z M 71 9.566 L 71.229 5.227 C 71.229 5.227 68.075 3.7410000000000005 66.279 7.484 L 66.173 5.25 L 59.103 5.25 L 59.103 6.679 C 59.103 6.679 60.120000000000005 6.614 60.509 7.081 C 60.841 7.476000000000001 60.785000000000004 8.369 60.785000000000004 8.369 L 60.785000000000004 15.392 C 60.785000000000004 15.392 60.841 16.24 60.509 16.637 C 60.079 17.147000000000002 59.104 17.034 59.104 17.034 L 59.104 18.282 L 68.246 18.282 L 68.246 17.034 C 68.246 17.034 66.97399999999999 17.139 66.56099999999999 16.637 C 66.231 16.237000000000002 66.30099999999999 15.344000000000001 66.30099999999999 15.344000000000001 L 66.30399999999999 10.420000000000002 C 66.323 9.264000000000001 66.97999999999999 8.469000000000001 68.14099999999999 8.469000000000001 C 69.635 8.469 71 9.566 71 9.566 z M 42.159 5.26 L 42.159 6.292 L 42.565999999999995 6.322 C 42.885999999999996 6.354 43.056 6.712 43.059999999999995 6.877 C 43.08221021720947 7.097706142379597 43.01361175106804 7.317943323149465 42.87 7.487 C 42.681 7.7090000000000005 42.47 7.8790000000000004 42.47 7.8790000000000004 L 38.691 10.859 L 38.684 0 L 31.224999999999998 0 L 31.224999999999998 1.246 C 31.224999999999998 1.246 32.458999999999996 1.1139999999999999 32.902 1.646 C 33.232 2.044 33.174 2.915 33.174 2.915 L 33.174 15.384 C 33.174 15.384 33.231 16.255 32.902 16.652 C 32.459 17.184 31.225 17.047 31.225 17.047 L 31.225 18.282 L 40.229 18.282 L 40.229 17.047 C 40.229 17.047 39.311 17.067 38.945 16.652 C 38.659 16.326 38.684 15.384 38.684 15.384 L 38.690999999999995 12.232 L 42.894 18.282 L 49.835 18.282 L 49.833 17.232 C 49.833 17.232 48.973 17.255 48.098 16.302 C 46.285 14.331999999999999 43.865 10.622 42.853 9.689 C 42.865 9.704 43.596000000000004 8.901 44.675000000000004 8.085 C 45.885000000000005 7.176000000000001 46.81400000000001 6.534000000000001 48.399 6.379000000000001 L 48.399 5.26 z M 55.596 15.684 C 55.596 16.227 55.888 16.697 56.354 16.916 C 56.694 17.071 57.949 17.047 57.949 17.047 L 57.949 18.279 L 52.81 18.279 C 51.151 18.282 50.080000000000005 17.066 50.080000000000005 15.562 L 50.079 4.35 L 55.6 1.175 L 55.595 5.26 L 57.954 5.26 L 57.954 6.755 L 55.595 6.755 z" stroke-linecap="round" />
</g>
</g>
</g>
</svg>